<?xml version="1.0" encoding="UTF-8"?>
<!DOCTYPE svg PUBLIC "-//W3C//DTD SVG 1.1//EN" "http://www.w3.org/Graphics/SVG/1.1/DTD/svg11.dtd">
<svg xmlns="http://www.w3.org/2000/svg" version="1.1" width="512px" height="512px" style="shape-rendering:geometricPrecision; text-rendering:geometricPrecision; image-rendering:optimizeQuality; fill-rule:evenodd; clip-rule:evenodd" xmlns:xlink="http://www.w3.org/1999/xlink">
<g><path style="opacity:0.991" fill="#f109fd" d="M 232.5,-0.5 C 247.833,-0.5 263.167,-0.5 278.5,-0.5C 307.769,2.4843 335.769,10.151 362.5,22.5C 291.665,22.8325 220.998,22.4992 150.5,21.5C 176.746,9.77337 204.079,2.44003 232.5,-0.5 Z"/></g>
<g><path style="opacity:0.994" fill="#ea0ffc" d="M 150.5,21.5 C 220.998,22.4992 291.665,22.8325 362.5,22.5C 373.599,26.9705 383.933,32.6371 393.5,39.5C 393.565,39.9382 393.399,40.2716 393,40.5C 301.736,39.8346 210.569,39.1679 119.5,38.5C 129.023,31.5674 139.357,25.9007 150.5,21.5 Z"/></g>
<g><path style="opacity:0.996" fill="#e315fb" d="M 119.5,38.5 C 210.569,39.1679 301.736,39.8346 393,40.5C 393.399,40.2716 393.565,39.9382 393.5,39.5C 400.554,43.6868 407.221,48.3534 413.5,53.5C 307.904,54.4977 202.237,54.831 96.5,54.5C 103.61,48.3946 111.276,43.0612 119.5,38.5 Z"/></g>
<g><path style="opacity:0.997" fill="#dd1afa" d="M 413.5,53.5 C 419.489,58.1569 425.156,63.1569 430.5,68.5C 313.999,68.8329 197.665,68.4995 81.5,67.5C 86.1793,62.8223 91.1793,58.489 96.5,54.5C 202.237,54.831 307.904,54.4977 413.5,53.5 Z"/></g>
<g><path style="opacity:0.998" fill="#d620fa" d="M 81.5,67.5 C 197.665,68.4995 313.999,68.8329 430.5,68.5C 435.833,73.1667 440.833,78.1667 445.5,83.5C 319.001,84.3331 192.334,84.8331 65.5,85C 64.7562,86.0386 63.7562,86.5386 62.5,86.5C 68.5,79.8333 74.8333,73.5 81.5,67.5 Z"/></g>
<g><path style="opacity:0.999" fill="#d124f9" d="M 445.5,83.5 C 449.513,87.5149 453.179,91.8482 456.5,96.5C 322.5,97.8333 188.5,97.8333 54.5,96.5C 56.8171,92.8536 59.4838,89.5203 62.5,86.5C 63.7562,86.5386 64.7562,86.0386 65.5,85C 192.334,84.8331 319.001,84.3331 445.5,83.5 Z"/></g>
<g><path style="opacity:0.998" fill="#cb2af8" d="M 54.5,96.5 C 188.5,97.8333 322.5,97.8333 456.5,96.5C 461.576,101.918 465.909,107.918 469.5,114.5C 326.833,114.5 184.167,114.5 41.5,114.5C 45.0908,107.918 49.4242,101.918 54.5,96.5 Z"/></g>
<g><path style="opacity:0.999" fill="#c42ff7" d="M 41.5,114.5 C 184.167,114.5 326.833,114.5 469.5,114.5C 472.916,118.323 475.582,122.657 477.5,127.5C 329.504,129.498 181.17,130.165 32.5,129.5C 34.7487,123.995 37.7487,118.995 41.5,114.5 Z"/></g>
<g><path style="opacity:0.998" fill="#be35f6" d="M 477.5,127.5 C 480.927,132.016 483.593,137.016 485.5,142.5C 332.167,143.833 178.833,143.833 25.5,142.5C 27.0741,137.68 29.4074,133.347 32.5,129.5C 181.17,130.165 329.504,129.498 477.5,127.5 Z"/></g>
<g><path style="opacity:0.998" fill="#b83af6" d="M 25.5,142.5 C 178.833,143.833 332.167,143.833 485.5,142.5C 488.351,147.541 490.684,152.875 492.5,158.5C 462.5,158.5 432.5,158.5 402.5,158.5C 402.5,157.167 402.5,155.833 402.5,154.5C 304.332,154.167 206.332,154.501 108.5,155.5C 108.5,156.5 108.5,157.5 108.5,158.5C 78.5,158.5 48.5,158.5 18.5,158.5C 20.0711,152.77 22.4044,147.437 25.5,142.5 Z"/></g>
<g><path style="opacity:1" fill="#fefefd" d="M 108.5,155.5 C 206.167,155.5 303.833,155.5 401.5,155.5C 401.5,167.5 401.5,179.5 401.5,191.5C 303.833,191.5 206.167,191.5 108.5,191.5C 108.5,191.167 108.5,190.833 108.5,190.5C 108.5,185.5 108.5,180.5 108.5,175.5C 108.5,169.833 108.5,164.167 108.5,158.5C 108.5,157.5 108.5,156.5 108.5,155.5 Z"/></g>
<g><path style="opacity:0.997" fill="#b140f5" d="M 18.5,158.5 C 48.5,158.5 78.5,158.5 108.5,158.5C 108.5,164.167 108.5,169.833 108.5,175.5C 76.329,175.832 44.329,175.498 12.5,174.5C 13.5361,168.715 15.5361,163.382 18.5,158.5 Z"/></g>
<g><path style="opacity:0.996" fill="#b140f5" d="M 402.5,158.5 C 432.5,158.5 462.5,158.5 492.5,158.5C 495.464,163.382 497.464,168.715 498.5,174.5C 466.671,175.498 434.671,175.832 402.5,175.5C 402.5,169.833 402.5,164.167 402.5,158.5 Z"/></g>
<g><path style="opacity:0.997" fill="#ab46f4" d="M 498.5,174.5 C 500.461,178.982 502.128,183.649 503.5,188.5C 470.056,190.482 436.389,191.149 402.5,190.5C 402.5,185.5 402.5,180.5 402.5,175.5C 434.671,175.832 466.671,175.498 498.5,174.5 Z"/></g>
<g><path style="opacity:0.997" fill="#ab46f4" d="M 12.5,174.5 C 44.329,175.498 76.329,175.832 108.5,175.5C 108.5,180.5 108.5,185.5 108.5,190.5C 74.8333,190.5 41.1667,190.5 7.5,190.5C 8.56599,184.88 10.2327,179.547 12.5,174.5 Z"/></g>
<g><path style="opacity:1" fill="#dba9fa" d="M 108.5,155.5 C 206.332,154.501 304.332,154.167 402.5,154.5C 402.5,155.833 402.5,157.167 402.5,158.5C 402.5,164.167 402.5,169.833 402.5,175.5C 402.5,180.5 402.5,185.5 402.5,190.5C 353.838,191.833 304.838,192.5 255.5,192.5C 206.332,192.5 157.332,192.167 108.5,191.5C 206.167,191.5 303.833,191.5 401.5,191.5C 401.5,179.5 401.5,167.5 401.5,155.5C 303.833,155.5 206.167,155.5 108.5,155.5 Z"/></g>
<g><path style="opacity:1" fill="#a64af3" d="M 503.5,188.5 C 504.01,191.539 504.677,194.539 505.5,197.5C 338.903,198.499 172.237,198.832 5.5,198.5C 5.85831,195.733 6.52498,193.067 7.5,190.5C 41.1667,190.5 74.8333,190.5 108.5,190.5C 108.5,190.833 108.5,191.167 108.5,191.5C 157.332,192.167 206.332,192.5 255.5,192.5C 304.838,192.5 353.838,191.833 402.5,190.5C 436.389,191.149 470.056,190.482 503.5,188.5 Z"/></g>
<g><path style="opacity:0.999" fill="#a34cf3" d="M 505.5,197.5 C 506.219,199.764 506.552,202.097 506.5,204.5C 339.167,204.5 171.833,204.5 4.5,204.5C 4.32526,202.379 4.65859,200.379 5.5,198.5C 172.237,198.832 338.903,198.499 505.5,197.5 Z"/></g>
<g><path style="opacity:0.998" fill="#a04ff3" d="M 4.5,204.5 C 171.833,204.5 339.167,204.5 506.5,204.5C 507.903,207.909 508.57,211.575 508.5,215.5C 339.833,215.5 171.167,215.5 2.5,215.5C 2.42993,211.575 3.09659,207.909 4.5,204.5 Z"/></g>
<g><path style="opacity:0.999" fill="#9d52f2" d="M 2.5,215.5 C 171.167,215.5 339.833,215.5 508.5,215.5C 509.461,217.265 509.795,219.265 509.5,221.5C 425.042,220.169 340.375,219.503 255.5,219.5C 170.764,219.501 86.097,219.835 1.5,220.5C 1.21552,218.585 1.54885,216.919 2.5,215.5 Z"/></g>
<g><path style="opacity:0.999" fill="#9955f2" d="M 509.5,221.5 C 510.324,224.764 510.658,228.098 510.5,231.5C 340.5,231.5 170.5,231.5 0.5,231.5C 0.322742,227.766 0.656075,224.099 1.5,220.5C 86.097,219.835 170.764,219.501 255.5,219.5C 340.375,219.503 425.042,220.169 509.5,221.5 Z"/></g>
<g><path style="opacity:1" fill="#9658f2" d="M 0.5,231.5 C 170.5,231.5 340.5,231.5 510.5,231.5C 510.5,232.167 510.833,232.5 511.5,232.5C 511.5,233.833 511.5,235.167 511.5,236.5C 475.167,236.5 438.833,236.5 402.5,236.5C 304.5,236.5 206.5,236.5 108.5,236.5C 72.1667,236.5 35.8333,236.5 -0.5,236.5C -0.5,235.167 -0.5,233.833 -0.5,232.5C 0.166667,232.5 0.5,232.167 0.5,231.5 Z"/></g>
<g><path style="opacity:0.997" fill="#925bf0" d="M -0.5,236.5 C 35.8333,236.5 72.1667,236.5 108.5,236.5C 108.5,236.833 108.5,237.167 108.5,237.5C 108.5,241.833 108.5,246.167 108.5,250.5C 72.1667,250.5 35.8333,250.5 -0.5,250.5C -0.5,245.833 -0.5,241.167 -0.5,236.5 Z"/></g>
<g><path style="opacity:0.997" fill="#925bf1" d="M 402.5,236.5 C 438.833,236.5 475.167,236.5 511.5,236.5C 511.5,241.167 511.5,245.833 511.5,250.5C 475.167,250.5 438.833,250.5 402.5,250.5C 402.5,245.833 402.5,241.167 402.5,236.5 Z"/></g>
<g><path style="opacity:1" fill="#fefefd" d="M 108.5,237.5 C 206.167,237.5 303.833,237.5 401.5,237.5C 401.5,249.5 401.5,261.5 401.5,273.5C 303.833,273.5 206.167,273.5 108.5,273.5C 108.5,270.833 108.5,268.167 108.5,265.5C 108.5,260.5 108.5,255.5 108.5,250.5C 108.5,246.167 108.5,241.833 108.5,237.5 Z"/></g>
<g><path style="opacity:1" fill="#8c60f0" d="M -0.5,250.5 C 35.8333,250.5 72.1667,250.5 108.5,250.5C 108.5,255.5 108.5,260.5 108.5,265.5C 72.1667,265.5 35.8333,265.5 -0.5,265.5C -0.5,260.5 -0.5,255.5 -0.5,250.5 Z"/></g>
<g><path style="opacity:0.999" fill="#8c60f0" d="M 402.5,250.5 C 438.833,250.5 475.167,250.5 511.5,250.5C 511.5,255.5 511.5,260.5 511.5,265.5C 475.167,265.5 438.833,265.5 402.5,265.5C 402.5,260.5 402.5,255.5 402.5,250.5 Z"/></g>
<g><path style="opacity:0.998" fill="#8566ef" d="M -0.5,265.5 C 35.8333,265.5 72.1667,265.5 108.5,265.5C 108.5,268.167 108.5,270.833 108.5,273.5C 206.332,274.499 304.332,274.833 402.5,274.5C 402.5,271.5 402.5,268.5 402.5,265.5C 438.833,265.5 475.167,265.5 511.5,265.5C 511.5,269.833 511.5,274.167 511.5,278.5C 510.833,278.5 510.5,278.833 510.5,279.5C 340.5,279.5 170.5,279.5 0.5,279.5C 0.5,278.833 0.166667,278.5 -0.5,278.5C -0.5,274.167 -0.5,269.833 -0.5,265.5 Z"/></g>
<g><path style="opacity:1" fill="#cbb6f7" d="M 108.5,237.5 C 108.5,237.167 108.5,236.833 108.5,236.5C 206.5,236.5 304.5,236.5 402.5,236.5C 402.5,241.167 402.5,245.833 402.5,250.5C 402.5,255.5 402.5,260.5 402.5,265.5C 402.5,268.5 402.5,271.5 402.5,274.5C 304.332,274.833 206.332,274.499 108.5,273.5C 206.167,273.5 303.833,273.5 401.5,273.5C 401.5,261.5 401.5,249.5 401.5,237.5C 303.833,237.5 206.167,237.5 108.5,237.5 Z"/></g>
<g><path style="opacity:0.999" fill="#8269ef" d="M 0.5,279.5 C 170.5,279.5 340.5,279.5 510.5,279.5C 510.5,281.167 510.5,282.833 510.5,284.5C 340.5,284.5 170.5,284.5 0.5,284.5C 0.5,282.833 0.5,281.167 0.5,279.5 Z"/></g>
<g><path style="opacity:0.999" fill="#7f6cee" d="M 0.5,284.5 C 170.5,284.5 340.5,284.5 510.5,284.5C 509.994,288.561 509.327,292.561 508.5,296.5C 339.833,296.5 171.167,296.5 2.5,296.5C 1.67287,292.561 1.00621,288.561 0.5,284.5 Z"/></g>
<g><path style="opacity:0.998" fill="#7b6fee" d="M 2.5,296.5 C 171.167,296.5 339.833,296.5 508.5,296.5C 508.675,298.621 508.341,300.621 507.5,302.5C 339.57,301.501 171.57,301.168 3.5,301.5C 2.54885,300.081 2.21552,298.415 2.5,296.5 Z"/></g>
<g><path style="opacity:0.999" fill="#7872ee" d="M 3.5,301.5 C 171.57,301.168 339.57,301.501 507.5,302.5C 507.212,305.939 506.546,309.272 505.5,312.5C 338.624,311.837 171.957,312.504 5.5,314.5C 4.57546,310.21 3.90879,305.876 3.5,301.5 Z"/></g>
<g><path style="opacity:0.998" fill="#7476ec" d="M 505.5,312.5 C 504.657,316.873 503.657,321.207 502.5,325.5C 469.167,325.5 435.833,325.5 402.5,325.5C 402.5,323.167 402.5,320.833 402.5,318.5C 304.332,318.167 206.332,318.501 108.5,319.5C 108.5,321.5 108.5,323.5 108.5,325.5C 75.3291,325.168 42.3291,325.502 9.5,326.5C 7.87229,322.681 6.53895,318.681 5.5,314.5C 171.957,312.504 338.624,311.837 505.5,312.5 Z"/></g>
<g><path style="opacity:1" fill="#fefefd" d="M 108.5,319.5 C 206.167,319.5 303.833,319.5 401.5,319.5C 401.5,331.5 401.5,343.5 401.5,355.5C 303.833,355.5 206.167,355.5 108.5,355.5C 108.5,355.167 108.5,354.833 108.5,354.5C 108.5,349.833 108.5,345.167 108.5,340.5C 108.5,335.5 108.5,330.5 108.5,325.5C 108.5,323.5 108.5,321.5 108.5,319.5 Z"/></g>
<g><path style="opacity:0.996" fill="#6d7bec" d="M 108.5,325.5 C 108.5,330.5 108.5,335.5 108.5,340.5C 76.8155,339.841 45.4822,340.507 14.5,342.5C 12.057,337.5 10.3904,332.166 9.5,326.5C 42.3291,325.502 75.3291,325.168 108.5,325.5 Z"/></g>
<g><path style="opacity:0.996" fill="#6d7bec" d="M 402.5,325.5 C 435.833,325.5 469.167,325.5 502.5,325.5C 501.035,330.563 499.368,335.563 497.5,340.5C 465.833,340.5 434.167,340.5 402.5,340.5C 402.5,335.5 402.5,330.5 402.5,325.5 Z"/></g>
<g><path style="opacity:0.996" fill="#6781eb" d="M 108.5,340.5 C 108.5,345.167 108.5,349.833 108.5,354.5C 78.5,354.5 48.5,354.5 18.5,354.5C 16.9651,350.562 15.6318,346.562 14.5,342.5C 45.4822,340.507 76.8155,339.841 108.5,340.5 Z"/></g>
<g><path style="opacity:0.996" fill="#6781eb" d="M 402.5,340.5 C 434.167,340.5 465.833,340.5 497.5,340.5C 495.871,345.735 493.871,350.735 491.5,355.5C 462.005,354.502 432.338,354.169 402.5,354.5C 402.5,349.833 402.5,345.167 402.5,340.5 Z"/></g>
<g><path style="opacity:0.998" fill="#6484ea" d="M 18.5,354.5 C 48.5,354.5 78.5,354.5 108.5,354.5C 108.5,354.833 108.5,355.167 108.5,355.5C 157.332,356.167 206.332,356.5 255.5,356.5C 304.838,356.5 353.838,355.833 402.5,354.5C 432.338,354.169 462.005,354.502 491.5,355.5C 491.672,356.492 491.338,357.158 490.5,357.5C 333.833,357.5 177.167,357.5 20.5,357.5C 19.5987,356.71 18.9321,355.71 18.5,354.5 Z"/></g>
<g><path style="opacity:1" fill="#b6c1f4" d="M 108.5,319.5 C 206.332,318.501 304.332,318.167 402.5,318.5C 402.5,320.833 402.5,323.167 402.5,325.5C 402.5,330.5 402.5,335.5 402.5,340.5C 402.5,345.167 402.5,349.833 402.5,354.5C 353.838,355.833 304.838,356.5 255.5,356.5C 206.332,356.5 157.332,356.167 108.5,355.5C 206.167,355.5 303.833,355.5 401.5,355.5C 401.5,343.5 401.5,331.5 401.5,319.5C 303.833,319.5 206.167,319.5 108.5,319.5 Z"/></g>
<g><path style="opacity:0.999" fill="#6087ea" d="M 20.5,357.5 C 177.167,357.5 333.833,357.5 490.5,357.5C 489.048,362.403 487.048,367.07 484.5,371.5C 331.833,371.5 179.167,371.5 26.5,371.5C 23.9517,367.07 21.9517,362.403 20.5,357.5 Z"/></g>
<g><path style="opacity:0.998" fill="#5a8cea" d="M 26.5,371.5 C 179.167,371.5 331.833,371.5 484.5,371.5C 481.404,377.367 478.071,383.033 474.5,388.5C 328.334,387.5 182.001,387.167 35.5,387.5C 32.5,382.167 29.5,376.833 26.5,371.5 Z"/></g>
<g><path style="opacity:0.999" fill="#5491e9" d="M 35.5,387.5 C 182.001,387.167 328.334,387.5 474.5,388.5C 472.095,392.973 469.429,397.306 466.5,401.5C 325.833,401.5 185.167,401.5 44.5,401.5C 41.5,396.833 38.5,392.167 35.5,387.5 Z"/></g>
<g><path style="opacity:0.998" fill="#5094e9" d="M 44.5,401.5 C 185.167,401.5 325.833,401.5 466.5,401.5C 465.488,402.872 464.488,404.205 463.5,405.5C 324.736,404.168 186.069,404.168 47.5,405.5C 46.5116,404.205 45.5116,402.872 44.5,401.5 Z"/></g>
<g><path style="opacity:0.998" fill="#4d98e8" d="M 463.5,405.5 C 460.305,410.569 456.638,415.235 452.5,419.5C 321.001,418.5 189.334,418.167 57.5,418.5C 53.9358,414.386 50.6025,410.052 47.5,405.5C 186.069,404.168 324.736,404.168 463.5,405.5 Z"/></g>
<g><path style="opacity:0.999" fill="#489be8" d="M 57.5,418.5 C 189.334,418.167 321.001,418.5 452.5,419.5C 450.628,422.582 448.295,425.249 445.5,427.5C 318.668,426.5 191.668,426.167 64.5,426.5C 62.1765,423.874 59.8432,421.207 57.5,418.5 Z"/></g>
<g><path style="opacity:0.998" fill="#459ee6" d="M 64.5,426.5 C 191.668,426.167 318.668,426.5 445.5,427.5C 444.167,429.5 442.5,431.167 440.5,432.5C 317.167,432.5 193.833,432.5 70.5,432.5C 68.1667,430.833 66.1667,428.833 64.5,426.5 Z"/></g>
<g><path style="opacity:0.998" fill="#42a0e7" d="M 70.5,432.5 C 193.833,432.5 317.167,432.5 440.5,432.5C 438.167,435.5 435.5,438.167 432.5,440.5C 314.5,440.5 196.5,440.5 78.5,440.5C 75.5,438.167 72.8333,435.5 70.5,432.5 Z"/></g>
<g><path style="opacity:0.997" fill="#3fa3e6" d="M 78.5,440.5 C 196.5,440.5 314.5,440.5 432.5,440.5C 430.167,443.5 427.5,446.167 424.5,448.5C 311.57,447.502 198.57,447.169 85.5,447.5C 82.8333,445.5 80.5,443.167 78.5,440.5 Z"/></g>
<g><path style="opacity:0.998" fill="#3ba7e6" d="M 85.5,447.5 C 198.57,447.169 311.57,447.502 424.5,448.5C 419.123,453.21 413.457,457.543 407.5,461.5C 306.167,461.5 204.833,461.5 103.5,461.5C 97.1294,457.314 91.1294,452.647 85.5,447.5 Z"/></g>
<g><path style="opacity:0.996" fill="#36ace5" d="M 103.5,461.5 C 204.833,461.5 306.167,461.5 407.5,461.5C 401.891,466.311 395.891,470.644 389.5,474.5C 300.167,473.167 210.833,473.167 121.5,474.5C 115.109,470.644 109.109,466.311 103.5,461.5 Z"/></g>
<g><path style="opacity:0.995" fill="#32afe5" d="M 121.5,474.5 C 210.833,473.167 300.167,473.167 389.5,474.5C 386.661,476.42 383.661,478.087 380.5,479.5C 297.5,478.167 214.5,478.167 131.5,479.5C 127.883,478.358 124.55,476.692 121.5,474.5 Z"/></g>
<g><path style="opacity:0.993" fill="#2eb2e4" d="M 380.5,479.5 C 370.564,485.301 360.231,490.301 349.5,494.5C 285.973,493.823 222.306,493.156 158.5,492.5C 148.801,489.483 139.801,485.149 131.5,479.5C 214.5,478.167 297.5,478.167 380.5,479.5 Z"/></g>
<g><path style="opacity:0.984" fill="#28b8e3" d="M 158.5,492.5 C 222.306,493.156 285.973,493.823 349.5,494.5C 326.439,503.183 302.773,508.85 278.5,511.5C 263.167,511.5 247.833,511.5 232.5,511.5C 206.88,508.928 182.213,502.595 158.5,492.5 Z"/></g>
</svg>
