<?xml version="1.0" encoding="UTF-8"?>
<!DOCTYPE svg PUBLIC "-//W3C//DTD SVG 1.1//EN" "http://www.w3.org/Graphics/SVG/1.1/DTD/svg11.dtd">
<svg xmlns="http://www.w3.org/2000/svg" version="1.1" width="512px" height="512px" style="shape-rendering:geometricPrecision; text-rendering:geometricPrecision; image-rendering:optimizeQuality; fill-rule:evenodd; clip-rule:evenodd" xmlns:xlink="http://www.w3.org/1999/xlink">
<g><path style="opacity:0.991" fill="#f109fd" d="M 232.5,-0.5 C 247.833,-0.5 263.167,-0.5 278.5,-0.5C 307.769,2.4843 335.769,10.151 362.5,22.5C 291.665,22.8325 220.998,22.4992 150.5,21.5C 176.746,9.77337 204.079,2.44003 232.5,-0.5 Z"/></g>
<g><path style="opacity:0.994" fill="#ea0ffc" d="M 150.5,21.5 C 220.998,22.4992 291.665,22.8325 362.5,22.5C 373.599,26.9705 383.933,32.6371 393.5,39.5C 393.565,39.9382 393.399,40.2716 393,40.5C 301.736,39.8346 210.569,39.1679 119.5,38.5C 129.023,31.5674 139.357,25.9007 150.5,21.5 Z"/></g>
<g><path style="opacity:0.996" fill="#e315fb" d="M 119.5,38.5 C 210.569,39.1679 301.736,39.8346 393,40.5C 393.399,40.2716 393.565,39.9382 393.5,39.5C 400.554,43.6868 407.221,48.3534 413.5,53.5C 307.904,54.4977 202.237,54.831 96.5,54.5C 103.61,48.3946 111.276,43.0612 119.5,38.5 Z"/></g>
<g><path style="opacity:0.997" fill="#dd1afa" d="M 413.5,53.5 C 419.489,58.1569 425.156,63.1569 430.5,68.5C 313.999,68.8329 197.665,68.4995 81.5,67.5C 86.1793,62.8223 91.1793,58.489 96.5,54.5C 202.237,54.831 307.904,54.4977 413.5,53.5 Z"/></g>
<g><path style="opacity:0.998" fill="#d620fa" d="M 81.5,67.5 C 197.665,68.4995 313.999,68.8329 430.5,68.5C 435.833,73.1667 440.833,78.1667 445.5,83.5C 319.001,84.3331 192.334,84.8331 65.5,85C 64.7562,86.0386 63.7562,86.5386 62.5,86.5C 68.5,79.8333 74.8333,73.5 81.5,67.5 Z"/></g>
<g><path style="opacity:0.999" fill="#d124f9" d="M 445.5,83.5 C 449.513,87.5149 453.179,91.8482 456.5,96.5C 322.5,97.8333 188.5,97.8333 54.5,96.5C 56.8171,92.8536 59.4838,89.5203 62.5,86.5C 63.7562,86.5386 64.7562,86.0386 65.5,85C 192.334,84.8331 319.001,84.3331 445.5,83.5 Z"/></g>
<g><path style="opacity:0.998" fill="#cb2af8" d="M 54.5,96.5 C 188.5,97.8333 322.5,97.8333 456.5,96.5C 461.576,101.918 465.909,107.918 469.5,114.5C 326.833,114.5 184.167,114.5 41.5,114.5C 45.0908,107.918 49.4242,101.918 54.5,96.5 Z"/></g>
<g><path style="opacity:0.999" fill="#c42ff7" d="M 41.5,114.5 C 184.167,114.5 326.833,114.5 469.5,114.5C 472.916,118.323 475.582,122.657 477.5,127.5C 329.504,129.498 181.17,130.165 32.5,129.5C 34.7487,123.995 37.7487,118.995 41.5,114.5 Z"/></g>
<g><path style="opacity:0.998" fill="#be35f6" d="M 477.5,127.5 C 480.927,132.016 483.593,137.016 485.5,142.5C 332.167,143.833 178.833,143.833 25.5,142.5C 27.0741,137.68 29.4074,133.347 32.5,129.5C 181.17,130.165 329.504,129.498 477.5,127.5 Z"/></g>
<g><path style="opacity:0.998" fill="#b73bf5" d="M 25.5,142.5 C 178.833,143.833 332.167,143.833 485.5,142.5C 489.011,148.861 492.011,155.528 494.5,162.5C 335.097,162.832 175.763,162.498 16.5,161.5C 19.2611,154.981 22.2611,148.648 25.5,142.5 Z"/></g>
<g><path style="opacity:0.998" fill="#b143f5" d="M 16.5,161.5 C 175.763,162.498 335.097,162.832 494.5,162.5C 496.762,167.285 498.428,172.285 499.5,177.5C 429.841,179.497 359.841,180.163 289.5,179.5C 287.329,177.5 284.996,175.666 282.5,174C 236.5,173.333 190.5,173.333 144.5,174C 143.663,175.011 143.33,176.178 143.5,177.5C 99.5126,179.495 55.1792,180.161 10.5,179.5C 12.3024,173.426 14.3024,167.426 16.5,161.5 Z"/></g>
<g><path style="opacity:1" fill="#fefdfd" d="M 289.5,179.5 C 292.123,183.791 295.456,187.457 299.5,190.5C 303.861,195.193 308.195,199.859 312.5,204.5C 317.5,210.167 322.833,215.5 328.5,220.5C 341.812,223.153 355.145,226.319 368.5,230C 373.765,231.694 378.765,233.861 383.5,236.5C 388.564,240.233 392.564,244.899 395.5,250.5C 397.511,253.869 398.511,257.536 398.5,261.5C 398.667,274.171 398.5,286.838 398,299.5C 397.226,301.939 395.726,303.773 393.5,305C 389.27,306.29 384.936,306.79 380.5,306.5C 380.874,302.353 379.874,298.686 377.5,295.5C 368.121,279.424 354.454,274.258 336.5,280C 328.926,283.406 323.592,288.906 320.5,296.5C 318.32,299.381 317.32,302.714 317.5,306.5C 273.167,306.5 228.833,306.5 184.5,306.5C 180.449,285.631 167.782,276.131 146.5,278C 133.771,281.729 125.271,289.896 121,302.5C 118.63,299.961 116.13,297.628 113.5,295.5C 112.608,285.866 112.275,276.199 112.5,266.5C 112.5,266.167 112.5,265.833 112.5,265.5C 112.234,261.395 112.734,257.395 114,253.5C 116.415,252.868 118.582,251.868 120.5,250.5C 128.052,246.405 132.385,240.072 133.5,231.5C 134.115,227.009 133.115,223.009 130.5,219.5C 131.776,214.282 134.109,209.615 137.5,205.5C 140.436,200.627 143.103,195.627 145.5,190.5C 145.665,186.818 145.499,183.152 145,179.5C 144.722,178.584 144.222,177.918 143.5,177.5C 143.33,176.178 143.663,175.011 144.5,174C 190.5,173.333 236.5,173.333 282.5,174C 284.996,175.666 287.329,177.5 289.5,179.5 Z"/></g>
<g><path style="opacity:0.999" fill="#aa46f4" d="M 499.5,177.5 C 500.975,181.031 502.308,184.698 503.5,188.5C 435.714,190.491 367.714,191.158 299.5,190.5C 295.456,187.457 292.123,183.791 289.5,179.5C 359.841,180.163 429.841,179.497 499.5,177.5 Z"/></g>
<g><path style="opacity:0.998" fill="#aa46f4" d="M 143.5,177.5 C 144.222,177.918 144.722,178.584 145,179.5C 145.499,183.152 145.665,186.818 145.5,190.5C 99.5,190.5 53.5,190.5 7.5,190.5C 8.30284,186.761 9.30284,183.095 10.5,179.5C 55.1792,180.161 99.5126,179.495 143.5,177.5 Z"/></g>
<g><path style="opacity:1" fill="#aa49f4" d="M 206.5,190.5 C 192.323,190.171 178.323,190.504 164.5,191.5C 163.026,192.436 162.026,193.77 161.5,195.5C 159.265,195.795 157.265,195.461 155.5,194.5C 156.081,190.08 158.414,186.914 162.5,185C 176.5,184.333 190.5,184.333 204.5,185C 206.155,186.444 206.822,188.278 206.5,190.5 Z"/></g>
<g><path style="opacity:1" fill="#a94cf4" d="M 305.5,214.5 C 303.393,215.468 301.059,215.802 298.5,215.5C 290.005,207.172 281.338,199.005 272.5,191C 255.157,190.167 237.824,190.334 220.5,191.5C 221.309,193.071 221.643,194.738 221.5,196.5C 220.082,198.308 218.082,198.975 215.5,198.5C 215.046,194.851 214.046,191.351 212.5,188C 212.759,186.739 213.426,185.739 214.5,185C 234.167,184.333 253.833,184.333 273.5,185C 275.725,185.561 277.725,186.561 279.5,188C 288.369,196.702 297.036,205.535 305.5,214.5 Z"/></g>
<g><path style="opacity:0.999" fill="#a54af3" d="M 503.5,188.5 C 504.818,193.773 505.818,199.107 506.5,204.5C 441.833,204.5 377.167,204.5 312.5,204.5C 308.195,199.859 303.861,195.193 299.5,190.5C 367.714,191.158 435.714,190.491 503.5,188.5 Z"/></g>
<g><path style="opacity:1" fill="#fefdfd" d="M 164.5,191.5 C 176.518,191.168 188.518,191.501 200.5,192.5C 203.907,203.722 206.907,215.055 209.5,226.5C 190.863,228.487 171.863,229.154 152.5,228.5C 150.748,228.582 149.748,227.749 149.5,226C 153.374,215.756 157.374,205.59 161.5,195.5C 162.026,193.77 163.026,192.436 164.5,191.5 Z"/></g>
<g><path style="opacity:1" fill="#fefcfd" d="M 298.5,215.5 C 300.795,218.297 303.295,220.964 306,223.5C 306.72,225.112 306.554,226.612 305.5,228C 280.493,228.833 255.493,228.666 230.5,227.5C 227.632,217.009 224.632,206.676 221.5,196.5C 221.643,194.738 221.309,193.071 220.5,191.5C 237.824,190.334 255.157,190.167 272.5,191C 281.338,199.005 290.005,207.172 298.5,215.5 Z"/></g>
<g><path style="opacity:0.999" fill="#a44bf3" d="M 7.5,190.5 C 53.5,190.5 99.5,190.5 145.5,190.5C 143.103,195.627 140.436,200.627 137.5,205.5C 93.2388,204.506 48.9055,204.172 4.5,204.5C 4.87378,199.675 5.87378,195.008 7.5,190.5 Z"/></g>
<g><path style="opacity:0.997" fill="#9f50f2" d="M 4.5,204.5 C 48.9055,204.172 93.2388,204.506 137.5,205.5C 134.109,209.615 131.776,214.282 130.5,219.5C 87.4278,219.172 44.4278,219.506 1.5,220.5C 1.87113,214.924 2.87113,209.591 4.5,204.5 Z"/></g>
<g><path style="opacity:0.998" fill="#9f50f2" d="M 312.5,204.5 C 377.167,204.5 441.833,204.5 506.5,204.5C 508.236,209.911 509.236,215.578 509.5,221.5C 479.38,220.174 449.047,219.508 418.5,219.5C 388.331,219.5 358.331,219.833 328.5,220.5C 322.833,215.5 317.5,210.167 312.5,204.5 Z"/></g>
<g><path style="opacity:0.998" fill="#9956f2" d="M 130.5,219.5 C 133.115,223.009 134.115,227.009 133.5,231.5C 131.5,231.5 129.5,231.5 127.5,231.5C 127.856,228.436 127.023,225.769 125,223.5C 121.466,227.235 118.966,231.568 117.5,236.5C 78.1667,236.5 38.8333,236.5 -0.5,236.5C -0.5,235.167 -0.5,233.833 -0.5,232.5C 0.293656,228.642 0.960323,224.642 1.5,220.5C 44.4278,219.506 87.4278,219.172 130.5,219.5 Z"/></g>
<g><path style="opacity:1" fill="#a05cf3" d="M 164.5,191.5 C 178.323,190.504 192.323,190.171 206.5,190.5C 210.438,202.565 213.938,214.899 217,227.5C 217.769,230.099 217.602,232.599 216.5,235C 194.5,235.667 172.5,235.667 150.5,235C 144.911,232.268 142.745,227.768 144,221.5C 147.885,212.411 151.718,203.411 155.5,194.5C 157.265,195.461 159.265,195.795 161.5,195.5C 157.374,205.59 153.374,215.756 149.5,226C 149.748,227.749 150.748,228.582 152.5,228.5C 171.659,229.497 190.993,229.83 210.5,229.5C 210.737,228.209 210.404,227.209 209.5,226.5C 206.907,215.055 203.907,203.722 200.5,192.5C 188.518,191.501 176.518,191.168 164.5,191.5 Z"/></g>
<g><path style="opacity:1" fill="#9e5df2" d="M 221.5,196.5 C 224.632,206.676 227.632,217.009 230.5,227.5C 255.493,228.666 280.493,228.833 305.5,228C 306.554,226.612 306.72,225.112 306,223.5C 303.295,220.964 300.795,218.297 298.5,215.5C 301.059,215.802 303.393,215.468 305.5,214.5C 313.766,218.52 315.599,224.52 311,232.5C 309.581,233.46 308.081,234.293 306.5,235C 279.833,235.667 253.167,235.667 226.5,235C 222.395,222.959 218.728,210.792 215.5,198.5C 218.082,198.975 220.082,198.308 221.5,196.5 Z"/></g>
<g><path style="opacity:0.999" fill="#9956f2" d="M 509.5,221.5 C 510.026,225.312 510.693,228.979 511.5,232.5C 511.5,233.833 511.5,235.167 511.5,236.5C 468.833,236.5 426.167,236.5 383.5,236.5C 378.765,233.861 373.765,231.694 368.5,230C 355.145,226.319 341.812,223.153 328.5,220.5C 358.331,219.833 388.331,219.5 418.5,219.5C 449.047,219.508 479.38,220.174 509.5,221.5 Z"/></g>
<g><path style="opacity:1" fill="#f9f6fd" d="M 127.5,231.5 C 126.077,237.924 122.41,242.59 116.5,245.5C 115.892,242.495 116.226,239.495 117.5,236.5C 118.966,231.568 121.466,227.235 125,223.5C 127.023,225.769 127.856,228.436 127.5,231.5 Z"/></g>
<g><path style="opacity:1" fill="#c19af7" d="M 209.5,226.5 C 210.404,227.209 210.737,228.209 210.5,229.5C 190.993,229.83 171.659,229.497 152.5,228.5C 171.863,229.154 190.863,228.487 209.5,226.5 Z"/></g>
<g><path style="opacity:0.997" fill="#925cf1" d="M 127.5,231.5 C 129.5,231.5 131.5,231.5 133.5,231.5C 132.385,240.072 128.052,246.405 120.5,250.5C 80.1667,250.5 39.8333,250.5 -0.5,250.5C -0.5,245.833 -0.5,241.167 -0.5,236.5C 38.8333,236.5 78.1667,236.5 117.5,236.5C 116.226,239.495 115.892,242.495 116.5,245.5C 122.41,242.59 126.077,237.924 127.5,231.5 Z"/></g>
<g><path style="opacity:0.997" fill="#925bf1" d="M 383.5,236.5 C 426.167,236.5 468.833,236.5 511.5,236.5C 511.5,241.167 511.5,245.833 511.5,250.5C 472.833,250.5 434.167,250.5 395.5,250.5C 392.564,244.899 388.564,240.233 383.5,236.5 Z"/></g>
<g><path style="opacity:1" fill="#8c60f0" d="M -0.5,250.5 C 39.8333,250.5 80.1667,250.5 120.5,250.5C 118.582,251.868 116.415,252.868 114,253.5C 112.734,257.395 112.234,261.395 112.5,265.5C 74.8333,265.5 37.1667,265.5 -0.5,265.5C -0.5,260.5 -0.5,255.5 -0.5,250.5 Z"/></g>
<g><path style="opacity:1" fill="#9668f1" d="M 232.5,247.5 C 239.175,247.334 245.842,247.5 252.5,248C 255.167,250 255.167,252 252.5,254C 245.833,254.667 239.167,254.667 232.5,254C 231.232,251.837 231.232,249.67 232.5,247.5 Z"/></g>
<g><path style="opacity:1" fill="#9263f1" d="M 361.5,236.5 C 373.347,236.672 382.513,241.672 389,251.5C 390.89,260.113 387.39,263.78 378.5,262.5C 366.476,261.981 359.143,255.814 356.5,244C 357.299,240.896 358.966,238.396 361.5,236.5 Z"/></g>
<g><path style="opacity:1" fill="#faf8fd" d="M 363.5,243.5 C 371.136,244.568 377.636,247.902 383,253.5C 383.483,254.448 383.649,255.448 383.5,256.5C 376.549,257.572 370.715,255.572 366,250.5C 364.589,248.35 363.755,246.016 363.5,243.5 Z"/></g>
<g><path style="opacity:0.999" fill="#8c60f0" d="M 395.5,250.5 C 434.167,250.5 472.833,250.5 511.5,250.5C 511.5,255.5 511.5,260.5 511.5,265.5C 474.167,265.5 436.833,265.5 399.5,265.5C 399.768,263.901 399.434,262.568 398.5,261.5C 398.511,257.536 397.511,253.869 395.5,250.5 Z"/></g>
<g><path style="opacity:1" fill="#8f68f0" d="M 140.5,259.5 C 144.514,259.334 148.514,259.501 152.5,260C 153.554,261.388 153.72,262.888 153,264.5C 149.256,265.626 145.423,265.793 141.5,265C 139.365,263.444 139.032,261.611 140.5,259.5 Z"/></g>
<g><path style="opacity:1" fill="#8c64f0" d="M 333.5,259.5 C 337.182,259.335 340.848,259.501 344.5,260C 345.554,261.388 345.72,262.888 345,264.5C 341.256,265.626 337.423,265.793 333.5,265C 332.248,263.172 332.248,261.339 333.5,259.5 Z"/></g>
<g><path style="opacity:0.997" fill="#8666ef" d="M -0.5,265.5 C 37.1667,265.5 74.8333,265.5 112.5,265.5C 112.5,265.833 112.5,266.167 112.5,266.5C 111.515,270.634 111.182,274.968 111.5,279.5C 74.5,279.5 37.5,279.5 0.5,279.5C 0.5,278.833 0.166667,278.5 -0.5,278.5C -0.5,274.167 -0.5,269.833 -0.5,265.5 Z"/></g>
<g><path style="opacity:0.996" fill="#8666ef" d="M 399.5,265.5 C 436.833,265.5 474.167,265.5 511.5,265.5C 511.5,269.833 511.5,274.167 511.5,278.5C 510.833,278.5 510.5,278.833 510.5,279.5C 473.5,279.5 436.5,279.5 399.5,279.5C 399.5,274.833 399.5,270.167 399.5,265.5 Z"/></g>
<g><path style="opacity:0.997" fill="#806cee" d="M 112.5,266.5 C 112.275,276.199 112.608,285.866 113.5,295.5C 76.6704,296.498 39.6704,296.832 2.5,296.5C 1.26407,290.943 0.597401,285.277 0.5,279.5C 37.5,279.5 74.5,279.5 111.5,279.5C 111.182,274.968 111.515,270.634 112.5,266.5 Z"/></g>
<g><path style="opacity:1" fill="#fafafd" d="M 178.5,312.5 C 177.383,316.734 175.716,320.734 173.5,324.5C 165.528,333.962 155.528,336.795 143.5,333C 139.458,330.984 135.791,328.484 132.5,325.5C 130.575,321.307 128.908,316.974 127.5,312.5C 127.598,295.735 135.931,286.069 152.5,283.5C 169.631,285.629 178.297,295.295 178.5,312.5 Z"/></g>
<g><path style="opacity:1" fill="#846fef" d="M 377.5,295.5 C 375.735,296.461 373.735,296.795 371.5,296.5C 362.284,284.445 350.617,281.279 336.5,287C 332.639,289.696 329.306,292.863 326.5,296.5C 324.5,296.5 322.5,296.5 320.5,296.5C 323.592,288.906 328.926,283.406 336.5,280C 354.454,274.258 368.121,279.424 377.5,295.5 Z"/></g>
<g><path style="opacity:1" fill="#fafafd" d="M 371.5,296.5 C 373.95,301.53 374.95,306.864 374.5,312.5C 373.416,317.09 371.749,321.424 369.5,325.5C 355.833,337.5 342.167,337.5 328.5,325.5C 326.254,321.436 324.588,317.102 323.5,312.5C 323.05,306.864 324.05,301.53 326.5,296.5C 329.306,292.863 332.639,289.696 336.5,287C 350.617,281.279 362.284,284.445 371.5,296.5 Z"/></g>
<g><path style="opacity:0.997" fill="#7f6bee" d="M 399.5,279.5 C 436.5,279.5 473.5,279.5 510.5,279.5C 510.403,285.277 509.736,290.943 508.5,296.5C 472.167,296.5 435.833,296.5 399.5,296.5C 399.5,290.833 399.5,285.167 399.5,279.5 Z"/></g>
<g><path style="opacity:1" fill="#8674ef" d="M 194.5,288.5 C 232.168,288.333 269.835,288.5 307.5,289C 308.935,291.267 308.602,293.267 306.5,295C 269.167,295.667 231.833,295.667 194.5,295C 191.939,292.844 191.939,290.677 194.5,288.5 Z"/></g>
<g><path style="opacity:1" fill="#7d73ee" d="M 365.5,312.5 C 363.265,312.795 361.265,312.461 359.5,311.5C 359.906,304.068 356.406,299.734 349,298.5C 341.709,299.74 338.209,304.073 338.5,311.5C 336.735,312.461 334.735,312.795 332.5,312.5C 332.807,296.36 340.807,290.193 356.5,294C 363.64,298.114 366.64,304.281 365.5,312.5 Z"/></g>
<g><path style="opacity:1" fill="#fafafd" d="M 163.5,311.5 C 159.546,319.753 153.546,321.587 145.5,317C 144.391,315.124 143.391,313.291 142.5,311.5C 142.094,304.068 145.594,299.734 153,298.5C 160.291,299.74 163.791,304.073 163.5,311.5 Z"/></g>
<g><path style="opacity:1" fill="#fbfafd" d="M 359.5,311.5 C 356.452,318.848 351.118,321.015 343.5,318C 341.174,316.195 339.508,314.028 338.5,311.5C 338.209,304.073 341.709,299.74 349,298.5C 356.406,299.734 359.906,304.068 359.5,311.5 Z"/></g>
<g><path style="opacity:0.997" fill="#7a72ee" d="M 320.5,296.5 C 322.5,296.5 324.5,296.5 326.5,296.5C 324.05,301.53 323.05,306.864 323.5,312.5C 275.167,312.5 226.833,312.5 178.5,312.5C 178.297,295.295 169.631,285.629 152.5,283.5C 135.931,286.069 127.598,295.735 127.5,312.5C 86.6138,311.848 45.9471,312.515 5.5,314.5C 4.24235,308.545 3.24235,302.545 2.5,296.5C 39.6704,296.832 76.6704,296.498 113.5,295.5C 116.13,297.628 118.63,299.961 121,302.5C 125.271,289.896 133.771,281.729 146.5,278C 167.782,276.131 180.449,285.631 184.5,306.5C 228.833,306.5 273.167,306.5 317.5,306.5C 317.32,302.714 318.32,299.381 320.5,296.5 Z"/></g>
<g><path style="opacity:1" fill="#7d73ee" d="M 169.5,312.5 C 167.265,312.795 165.265,312.461 163.5,311.5C 163.791,304.073 160.291,299.74 153,298.5C 145.594,299.734 142.094,304.068 142.5,311.5C 140.735,312.461 138.735,312.795 136.5,312.5C 136.798,296.371 144.798,290.204 160.5,294C 167.64,298.114 170.64,304.281 169.5,312.5 Z"/></g>
<g><path style="opacity:0.998" fill="#7a73ee" d="M 398.5,261.5 C 399.434,262.568 399.768,263.901 399.5,265.5C 399.5,270.167 399.5,274.833 399.5,279.5C 399.5,285.167 399.5,290.833 399.5,296.5C 435.833,296.5 472.167,296.5 508.5,296.5C 508.008,301.959 507.008,307.292 505.5,312.5C 461.833,312.5 418.167,312.5 374.5,312.5C 374.95,306.864 373.95,301.53 371.5,296.5C 373.735,296.795 375.735,296.461 377.5,295.5C 379.874,298.686 380.874,302.353 380.5,306.5C 384.936,306.79 389.27,306.29 393.5,305C 395.726,303.773 397.226,301.939 398,299.5C 398.5,286.838 398.667,274.171 398.5,261.5 Z"/></g>
<g><path style="opacity:0.998" fill="#7377ed" d="M 127.5,312.5 C 128.908,316.974 130.575,321.307 132.5,325.5C 91.3299,325.168 50.3299,325.501 9.5,326.5C 7.87229,322.681 6.53895,318.681 5.5,314.5C 45.9471,312.515 86.6138,311.848 127.5,312.5 Z"/></g>
<g><path style="opacity:1" fill="#7a7ded" d="M 142.5,311.5 C 143.391,313.291 144.391,315.124 145.5,317C 153.546,321.587 159.546,319.753 163.5,311.5C 165.265,312.461 167.265,312.795 169.5,312.5C 167.551,321.278 162.051,325.944 153,326.5C 143.949,325.944 138.449,321.278 136.5,312.5C 138.735,312.795 140.735,312.461 142.5,311.5 Z"/></g>
<g><path style="opacity:1" fill="#7377ed" d="M 178.5,312.5 C 226.833,312.5 275.167,312.5 323.5,312.5C 324.588,317.102 326.254,321.436 328.5,325.5C 276.664,325.832 224.997,325.499 173.5,324.5C 175.716,320.734 177.383,316.734 178.5,312.5 Z"/></g>
<g><path style="opacity:1" fill="#7a7ded" d="M 338.5,311.5 C 339.508,314.028 341.174,316.195 343.5,318C 351.118,321.015 356.452,318.848 359.5,311.5C 361.265,312.461 363.265,312.795 365.5,312.5C 362.478,323.019 355.478,327.519 344.5,326C 337.843,323.844 333.843,319.344 332.5,312.5C 334.735,312.795 336.735,312.461 338.5,311.5 Z"/></g>
<g><path style="opacity:0.999" fill="#7377ed" d="M 374.5,312.5 C 418.167,312.5 461.833,312.5 505.5,312.5C 504.657,316.873 503.657,321.207 502.5,325.5C 458.167,325.5 413.833,325.5 369.5,325.5C 371.749,321.424 373.416,317.09 374.5,312.5 Z"/></g>
<g><path style="opacity:0.999" fill="#6d7cec" d="M 173.5,324.5 C 224.997,325.499 276.664,325.832 328.5,325.5C 342.167,337.5 355.833,337.5 369.5,325.5C 413.833,325.5 458.167,325.5 502.5,325.5C 501.035,330.563 499.368,335.563 497.5,340.5C 336.163,339.835 175.163,340.501 14.5,342.5C 12.057,337.5 10.3904,332.166 9.5,326.5C 50.3299,325.501 91.3299,325.168 132.5,325.5C 135.791,328.484 139.458,330.984 143.5,333C 155.528,336.795 165.528,333.962 173.5,324.5 Z"/></g>
<g><path style="opacity:0.998" fill="#6781eb" d="M 497.5,340.5 C 495.871,345.735 493.871,350.735 491.5,355.5C 334.001,354.5 176.334,354.167 18.5,354.5C 16.9651,350.562 15.6318,346.562 14.5,342.5C 175.163,340.501 336.163,339.835 497.5,340.5 Z"/></g>
<g><path style="opacity:0.999" fill="#6484ea" d="M 18.5,354.5 C 176.334,354.167 334.001,354.5 491.5,355.5C 491.672,356.492 491.338,357.158 490.5,357.5C 333.833,357.5 177.167,357.5 20.5,357.5C 19.5987,356.71 18.9321,355.71 18.5,354.5 Z"/></g>
<g><path style="opacity:0.999" fill="#6087ea" d="M 20.5,357.5 C 177.167,357.5 333.833,357.5 490.5,357.5C 489.048,362.403 487.048,367.07 484.5,371.5C 331.833,371.5 179.167,371.5 26.5,371.5C 23.9517,367.07 21.9517,362.403 20.5,357.5 Z"/></g>
<g><path style="opacity:0.998" fill="#5a8cea" d="M 26.5,371.5 C 179.167,371.5 331.833,371.5 484.5,371.5C 481.404,377.367 478.071,383.033 474.5,388.5C 328.334,387.5 182.001,387.167 35.5,387.5C 32.5,382.167 29.5,376.833 26.5,371.5 Z"/></g>
<g><path style="opacity:0.999" fill="#5392e9" d="M 35.5,387.5 C 182.001,387.167 328.334,387.5 474.5,388.5C 471.22,394.441 467.553,400.108 463.5,405.5C 324.736,404.168 186.069,404.168 47.5,405.5C 43.141,399.795 39.141,393.795 35.5,387.5 Z"/></g>
<g><path style="opacity:0.998" fill="#4d98e8" d="M 463.5,405.5 C 460.305,410.569 456.638,415.235 452.5,419.5C 321.001,418.5 189.334,418.167 57.5,418.5C 53.9358,414.386 50.6025,410.052 47.5,405.5C 186.069,404.168 324.736,404.168 463.5,405.5 Z"/></g>
<g><path style="opacity:0.999" fill="#489be8" d="M 57.5,418.5 C 189.334,418.167 321.001,418.5 452.5,419.5C 450.628,422.582 448.295,425.249 445.5,427.5C 318.668,426.5 191.668,426.167 64.5,426.5C 62.1765,423.874 59.8432,421.207 57.5,418.5 Z"/></g>
<g><path style="opacity:0.998" fill="#43a0e7" d="M 64.5,426.5 C 191.668,426.167 318.668,426.5 445.5,427.5C 441.5,432.167 437.167,436.5 432.5,440.5C 314.5,440.5 196.5,440.5 78.5,440.5C 73.5,436.167 68.8333,431.5 64.5,426.5 Z"/></g>
<g><path style="opacity:0.997" fill="#3fa3e6" d="M 78.5,440.5 C 196.5,440.5 314.5,440.5 432.5,440.5C 430.167,443.5 427.5,446.167 424.5,448.5C 311.57,447.502 198.57,447.169 85.5,447.5C 82.8333,445.5 80.5,443.167 78.5,440.5 Z"/></g>
<g><path style="opacity:0.998" fill="#3ba7e6" d="M 85.5,447.5 C 198.57,447.169 311.57,447.502 424.5,448.5C 419.123,453.21 413.457,457.543 407.5,461.5C 306.167,461.5 204.833,461.5 103.5,461.5C 97.1294,457.314 91.1294,452.647 85.5,447.5 Z"/></g>
<g><path style="opacity:0.996" fill="#35ace5" d="M 103.5,461.5 C 204.833,461.5 306.167,461.5 407.5,461.5C 399.067,468.251 390.067,474.251 380.5,479.5C 297.5,478.167 214.5,478.167 131.5,479.5C 121.356,474.675 112.022,468.675 103.5,461.5 Z"/></g>
<g><path style="opacity:0.993" fill="#2eb2e4" d="M 380.5,479.5 C 370.564,485.301 360.231,490.301 349.5,494.5C 285.973,493.823 222.306,493.156 158.5,492.5C 148.801,489.483 139.801,485.149 131.5,479.5C 214.5,478.167 297.5,478.167 380.5,479.5 Z"/></g>
<g><path style="opacity:0.984" fill="#28b8e3" d="M 158.5,492.5 C 222.306,493.156 285.973,493.823 349.5,494.5C 326.439,503.183 302.773,508.85 278.5,511.5C 263.167,511.5 247.833,511.5 232.5,511.5C 206.88,508.928 182.213,502.595 158.5,492.5 Z"/></g>
</svg>
