<?xml version="1.0" encoding="UTF-8"?>
<!DOCTYPE svg PUBLIC "-//W3C//DTD SVG 1.1//EN" "http://www.w3.org/Graphics/SVG/1.1/DTD/svg11.dtd">
<svg xmlns="http://www.w3.org/2000/svg" version="1.1" width="512px" height="512px" style="shape-rendering:geometricPrecision; text-rendering:geometricPrecision; image-rendering:optimizeQuality; fill-rule:evenodd; clip-rule:evenodd" xmlns:xlink="http://www.w3.org/1999/xlink">
<g><path style="opacity:0.991" fill="#f109fd" d="M 232.5,-0.5 C 247.833,-0.5 263.167,-0.5 278.5,-0.5C 307.769,2.4843 335.769,10.151 362.5,22.5C 291.665,22.8325 220.998,22.4992 150.5,21.5C 176.746,9.77337 204.079,2.44003 232.5,-0.5 Z"/></g>
<g><path style="opacity:0.994" fill="#ea0ffc" d="M 150.5,21.5 C 220.998,22.4992 291.665,22.8325 362.5,22.5C 373.599,26.9705 383.933,32.6371 393.5,39.5C 393.565,39.9382 393.399,40.2716 393,40.5C 301.736,39.8346 210.569,39.1679 119.5,38.5C 129.023,31.5674 139.357,25.9007 150.5,21.5 Z"/></g>
<g><path style="opacity:0.996" fill="#e315fb" d="M 119.5,38.5 C 210.569,39.1679 301.736,39.8346 393,40.5C 393.399,40.2716 393.565,39.9382 393.5,39.5C 400.554,43.6868 407.221,48.3534 413.5,53.5C 307.904,54.4977 202.237,54.831 96.5,54.5C 103.61,48.3946 111.276,43.0612 119.5,38.5 Z"/></g>
<g><path style="opacity:0.997" fill="#dd1afa" d="M 413.5,53.5 C 419.489,58.1569 425.156,63.1569 430.5,68.5C 313.999,68.8329 197.665,68.4995 81.5,67.5C 86.1793,62.8223 91.1793,58.489 96.5,54.5C 202.237,54.831 307.904,54.4977 413.5,53.5 Z"/></g>
<g><path style="opacity:0.998" fill="#d620fa" d="M 81.5,67.5 C 197.665,68.4995 313.999,68.8329 430.5,68.5C 435.833,73.1667 440.833,78.1667 445.5,83.5C 319.001,84.3331 192.334,84.8331 65.5,85C 64.7562,86.0386 63.7562,86.5386 62.5,86.5C 68.5,79.8333 74.8333,73.5 81.5,67.5 Z"/></g>
<g><path style="opacity:0.999" fill="#d025f9" d="M 445.5,83.5 C 449.513,87.5149 453.179,91.8482 456.5,96.5C 322.5,97.8333 188.5,97.8333 54.5,96.5C 56.8171,92.8536 59.4838,89.5203 62.5,86.5C 63.7562,86.5386 64.7562,86.0386 65.5,85C 192.334,84.8331 319.001,84.3331 445.5,83.5 Z"/></g>
<g><path style="opacity:0.998" fill="#cb2af8" d="M 54.5,96.5 C 188.5,97.8333 322.5,97.8333 456.5,96.5C 461.576,101.918 465.909,107.918 469.5,114.5C 326.833,114.5 184.167,114.5 41.5,114.5C 45.0908,107.918 49.4242,101.918 54.5,96.5 Z"/></g>
<g><path style="opacity:0.999" fill="#c42ff7" d="M 41.5,114.5 C 184.167,114.5 326.833,114.5 469.5,114.5C 472.916,118.323 475.582,122.657 477.5,127.5C 329.504,129.498 181.17,130.165 32.5,129.5C 34.7487,123.995 37.7487,118.995 41.5,114.5 Z"/></g>
<g><path style="opacity:0.998" fill="#be35f6" d="M 477.5,127.5 C 480.927,132.016 483.593,137.016 485.5,142.5C 414.335,143.499 343.002,143.833 271.5,143.5C 252.15,127.558 232.817,127.558 213.5,143.5C 150.664,143.832 87.9978,143.499 25.5,142.5C 27.0741,137.68 29.4074,133.347 32.5,129.5C 181.17,130.165 329.504,129.498 477.5,127.5 Z"/></g>
<g><path style="opacity:1" fill="#fbf9fd" d="M 271.5,143.5 C 275.72,147.731 278.72,152.731 280.5,158.5C 282.708,165.708 283.041,173.041 281.5,180.5C 292.63,180.996 303.63,182.329 314.5,184.5C 325.605,172.031 339.438,164.697 356,162.5C 360.543,162.683 364.876,163.683 369,165.5C 369.667,167.167 369.667,168.833 369,170.5C 367.624,171.705 366.458,173.038 365.5,174.5C 360.849,179.129 357.182,184.463 354.5,190.5C 352.334,193.498 350.667,196.832 349.5,200.5C 349.754,202.417 350.754,203.751 352.5,204.5C 356.74,209.317 360.74,214.317 364.5,219.5C 366.428,224.197 369.428,228.03 373.5,231C 375.473,231.495 377.473,231.662 379.5,231.5C 384.826,232.081 390.159,233.248 395.5,235C 400.016,238.01 402.683,242.177 403.5,247.5C 403.667,260.504 403.5,273.504 403,286.5C 402.128,290.181 400.294,293.181 397.5,295.5C 395.104,297.138 392.438,298.304 389.5,299C 384.148,299.521 378.815,300.187 373.5,301C 369.913,303.76 367.246,307.26 365.5,311.5C 362.198,315.809 358.864,320.143 355.5,324.5C 349.399,330.269 342.732,335.269 335.5,339.5C 328.678,343.552 321.345,346.219 313.5,347.5C 313.5,349.167 313.5,350.833 313.5,352.5C 312.51,358.645 312.177,364.978 312.5,371.5C 311.21,374.868 308.877,377.368 305.5,379C 295.833,379.667 286.167,379.667 276.5,379C 273.108,377.458 271.108,374.958 270.5,371.5C 270.498,364.48 270.165,357.48 269.5,350.5C 251.833,350.5 234.167,350.5 216.5,350.5C 215.835,357.48 215.502,364.48 215.5,371.5C 214.795,375.376 212.462,377.876 208.5,379C 198.833,379.667 189.167,379.667 179.5,379C 177.667,377.833 176.167,376.333 175,374.5C 174.823,370.644 174.323,366.977 173.5,363.5C 173.815,359.629 173.482,355.962 172.5,352.5C 172.762,351.022 172.429,349.689 171.5,348.5C 164.126,346.311 157.126,343.311 150.5,339.5C 143.633,335.566 137.3,330.899 131.5,325.5C 127.803,320.809 124.136,316.142 120.5,311.5C 117.814,306.128 115.147,300.795 112.5,295.5C 111.475,290.067 110.142,284.733 108.5,279.5C 108.002,274.848 107.669,270.181 107.5,265.5C 107.246,260.031 107.913,254.697 109.5,249.5C 110.032,245.039 111.032,240.706 112.5,236.5C 115.712,229.079 119.712,222.079 124.5,215.5C 127.739,212.017 130.739,208.35 133.5,204.5C 139.913,199.412 146.58,194.745 153.5,190.5C 169.302,182.977 185.969,179.977 203.5,181.5C 203.483,179.435 203.15,177.435 202.5,175.5C 202.124,169.665 202.79,163.998 204.5,158.5C 206.745,153.003 209.745,148.003 213.5,143.5C 232.817,127.558 252.15,127.558 271.5,143.5 Z"/></g>
<g><path style="opacity:0.998" fill="#b83af6" d="M 25.5,142.5 C 87.9978,143.499 150.664,143.832 213.5,143.5C 209.745,148.003 206.745,153.003 204.5,158.5C 142.5,158.5 80.5,158.5 18.5,158.5C 20.0711,152.77 22.4044,147.437 25.5,142.5 Z"/></g>
<g><path style="opacity:1" fill="#b840f5" d="M 276.5,175.5 C 269.833,175.5 263.167,175.5 256.5,175.5C 254.139,171.982 250.805,169.982 246.5,169.5C 245.911,165.029 246.577,161.029 248.5,157.5C 251.407,159.896 254.573,160.562 258,159.5C 258.667,158.167 258.667,156.833 258,155.5C 254.961,152.897 251.461,151.231 247.5,150.5C 244.235,143.913 241.235,143.913 238.5,150.5C 232.864,151.808 229.197,155.141 227.5,160.5C 222.13,162.379 216.463,163.045 210.5,162.5C 213.91,150.589 221.577,142.756 233.5,139C 254.923,135.621 269.09,144.121 276,164.5C 276.499,168.152 276.665,171.818 276.5,175.5 Z"/></g>
<g><path style="opacity:1" fill="#fcf8fd" d="M 248.5,157.5 C 247.791,156.596 246.791,156.263 245.5,156.5C 245.182,161.032 245.515,165.366 246.5,169.5C 250.805,169.982 254.139,171.982 256.5,175.5C 259.684,184.783 256.35,190.45 246.5,192.5C 246.527,198.016 244.36,199.349 240,196.5C 239.517,195.552 239.351,194.552 239.5,193.5C 234.167,193.176 230.167,190.843 227.5,186.5C 227.5,184.5 228.5,183.5 230.5,183.5C 233.422,184.798 236.422,185.798 239.5,186.5C 239.824,182.445 239.491,178.445 238.5,174.5C 231.039,172.716 227.373,168.049 227.5,160.5C 229.197,155.141 232.864,151.808 238.5,150.5C 241.235,143.913 244.235,143.913 247.5,150.5C 251.461,151.231 254.961,152.897 258,155.5C 258.667,156.833 258.667,158.167 258,159.5C 254.573,160.562 251.407,159.896 248.5,157.5 Z"/></g>
<g><path style="opacity:0.999" fill="#b83af6" d="M 485.5,142.5 C 488.351,147.541 490.684,152.875 492.5,158.5C 421.833,158.5 351.167,158.5 280.5,158.5C 278.72,152.731 275.72,147.731 271.5,143.5C 343.002,143.833 414.335,143.499 485.5,142.5 Z"/></g>
<g><path style="opacity:1" fill="#e3b6fa" d="M 248.5,157.5 C 246.577,161.029 245.911,165.029 246.5,169.5C 245.515,165.366 245.182,161.032 245.5,156.5C 246.791,156.263 247.791,156.596 248.5,157.5 Z"/></g>
<g><path style="opacity:0.998" fill="#b140f5" d="M 18.5,158.5 C 80.5,158.5 142.5,158.5 204.5,158.5C 202.79,163.998 202.124,169.665 202.5,175.5C 138.998,175.832 75.6645,175.499 12.5,174.5C 13.5361,168.715 15.5361,163.382 18.5,158.5 Z"/></g>
<g><path style="opacity:1" fill="#b74af5" d="M 237.5,157.5 C 239.402,160.337 240.069,163.671 239.5,167.5C 232.458,165.339 231.791,162.006 237.5,157.5 Z"/></g>
<g><path style="opacity:0.997" fill="#b241f5" d="M 280.5,158.5 C 351.167,158.5 421.833,158.5 492.5,158.5C 495.464,163.382 497.464,168.715 498.5,174.5C 454.167,175.833 409.833,175.833 365.5,174.5C 366.458,173.038 367.624,171.705 369,170.5C 369.667,168.833 369.667,167.167 369,165.5C 364.876,163.683 360.543,162.683 356,162.5C 339.438,164.697 325.605,172.031 314.5,184.5C 303.63,182.329 292.63,180.996 281.5,180.5C 283.041,173.041 282.708,165.708 280.5,158.5 Z"/></g>
<g><path style="opacity:0.998" fill="#ab46f4" d="M 365.5,174.5 C 409.833,175.833 454.167,175.833 498.5,174.5C 500.461,178.982 502.128,183.649 503.5,188.5C 454.05,190.488 404.384,191.155 354.5,190.5C 357.182,184.463 360.849,179.129 365.5,174.5 Z"/></g>
<g><path style="opacity:0.998" fill="#ab46f4" d="M 12.5,174.5 C 75.6645,175.499 138.998,175.832 202.5,175.5C 203.15,177.435 203.483,179.435 203.5,181.5C 185.969,179.977 169.302,182.977 153.5,190.5C 104.833,190.5 56.1667,190.5 7.5,190.5C 8.56599,184.88 10.2327,179.547 12.5,174.5 Z"/></g>
<g><path style="opacity:0.998" fill="#a64bf3" d="M 7.5,190.5 C 56.1667,190.5 104.833,190.5 153.5,190.5C 146.58,194.745 139.913,199.412 133.5,204.5C 90.5,204.5 47.5,204.5 4.5,204.5C 4.87378,199.675 5.87378,195.008 7.5,190.5 Z"/></g>
<g><path style="opacity:1" fill="#a94df4" d="M 342.5,202.5 C 326.072,204.463 309.405,205.13 292.5,204.5C 292.389,203.883 292.056,203.383 291.5,203C 284.167,202.667 276.833,202.333 269.5,202C 273.443,197.945 276.776,193.445 279.5,188.5C 283,188.167 286.5,187.833 290,187.5C 299.53,188.343 309.03,189.176 318.5,190C 327.703,178.433 339.537,171.6 354,169.5C 356.167,169.667 358.333,169.833 360.5,170C 351.726,179.28 345.726,190.113 342.5,202.5 Z"/></g>
<g><path style="opacity:0.997" fill="#a44bf3" d="M 503.5,188.5 C 504.818,193.773 505.818,199.107 506.5,204.5C 455.167,204.5 403.833,204.5 352.5,204.5C 350.754,203.751 349.754,202.417 349.5,200.5C 350.667,196.832 352.334,193.498 354.5,190.5C 404.384,191.155 454.05,190.488 503.5,188.5 Z"/></g>
<g><path style="opacity:1" fill="#ab4df4" d="M 227.5,160.5 C 227.373,168.049 231.039,172.716 238.5,174.5C 239.491,178.445 239.824,182.445 239.5,186.5C 236.422,185.798 233.422,184.798 230.5,183.5C 228.5,183.5 227.5,184.5 227.5,186.5C 230.167,190.843 234.167,193.176 239.5,193.5C 239.351,194.552 239.517,195.552 240,196.5C 244.36,199.349 246.527,198.016 246.5,192.5C 256.35,190.45 259.684,184.783 256.5,175.5C 263.167,175.5 269.833,175.5 276.5,175.5C 274.578,187.575 268.245,196.409 257.5,202C 247.5,202.667 237.5,202.667 227.5,202C 212.358,192.701 206.692,179.535 210.5,162.5C 216.463,163.045 222.13,162.379 227.5,160.5 Z"/></g>
<g><path style="opacity:1" fill="#ae4bf4" d="M 247.5,176.5 C 251.146,177.462 252.313,179.795 251,183.5C 250.184,184.823 249.017,185.489 247.5,185.5C 246.167,182.5 246.167,179.5 247.5,176.5 Z"/></g>
<g><path style="opacity:1" fill="#dcb1f9" d="M 247.5,176.5 C 246.167,179.5 246.167,182.5 247.5,185.5C 247.44,186.043 247.107,186.376 246.5,186.5C 245.167,182.833 245.167,179.167 246.5,175.5C 247.107,175.624 247.44,175.957 247.5,176.5 Z"/></g>
<g><path style="opacity:1" fill="#ce9ff8" d="M 214.5,200.5 C 215.289,200.783 215.956,201.283 216.5,202C 209.174,202.5 201.841,202.666 194.5,202.5C 201.167,201.833 207.833,201.167 214.5,200.5 Z"/></g>
<g><path style="opacity:0.997" fill="#a04ff3" d="M 4.5,204.5 C 47.5,204.5 90.5,204.5 133.5,204.5C 130.739,208.35 127.739,212.017 124.5,215.5C 83.8333,215.5 43.1667,215.5 2.5,215.5C 2.42993,211.575 3.09659,207.909 4.5,204.5 Z"/></g>
<g><path style="opacity:1" fill="#a14ff3" d="M 214.5,200.5 C 207.833,201.167 201.167,201.833 194.5,202.5C 193.883,202.611 193.383,202.944 193,203.5C 192.501,208.823 192.334,214.156 192.5,219.5C 171.66,219.831 150.993,219.497 130.5,218.5C 150.098,194.387 175.431,184.721 206.5,189.5C 208.442,193.728 211.109,197.394 214.5,200.5 Z"/></g>
<g><path style="opacity:0.998" fill="#9f50f2" d="M 352.5,204.5 C 403.833,204.5 455.167,204.5 506.5,204.5C 508.236,209.911 509.236,215.578 509.5,221.5C 461.384,219.512 413.051,218.846 364.5,219.5C 360.74,214.317 356.74,209.317 352.5,204.5 Z"/></g>
<g><path style="opacity:1" fill="#a156f3" d="M 199.5,208.5 C 228.5,208.5 257.5,208.5 286.5,208.5C 286.5,212.833 286.5,217.167 286.5,221.5C 257.5,221.5 228.5,221.5 199.5,221.5C 199.5,217.167 199.5,212.833 199.5,208.5 Z"/></g>
<g><path style="opacity:0.997" fill="#9955f2" d="M 2.5,215.5 C 43.1667,215.5 83.8333,215.5 124.5,215.5C 119.712,222.079 115.712,229.079 112.5,236.5C 74.8333,236.5 37.1667,236.5 -0.5,236.5C -0.5,235.167 -0.5,233.833 -0.5,232.5C 0.30333,226.804 1.30333,221.137 2.5,215.5 Z"/></g>
<g><path style="opacity:1" fill="#9a55f2" d="M 342.5,202.5 C 342.351,203.552 342.517,204.552 343,205.5C 351.836,212.67 358.836,221.337 364,231.5C 365.371,233.041 366.871,234.375 368.5,235.5C 359.014,236.494 349.348,236.827 339.5,236.5C 339.795,234.265 339.461,232.265 338.5,230.5C 337.341,228.623 335.674,228.123 333.5,229C 332.748,229.671 332.414,230.504 332.5,231.5C 331.549,232.919 331.216,234.585 331.5,236.5C 261.167,236.5 190.833,236.5 120.5,236.5C 122.808,229.879 126.142,223.879 130.5,218.5C 150.993,219.497 171.66,219.831 192.5,219.5C 192.055,222.365 192.722,224.865 194.5,227C 226.833,227.667 259.167,227.667 291.5,227C 292.481,219.587 292.814,212.087 292.5,204.5C 309.405,205.13 326.072,204.463 342.5,202.5 Z"/></g>
<g><path style="opacity:0.998" fill="#9a55f2" d="M 364.5,219.5 C 413.051,218.846 461.384,219.512 509.5,221.5C 510.324,224.764 510.658,228.098 510.5,231.5C 466.833,231.5 423.167,231.5 379.5,231.5C 377.473,231.662 375.473,231.495 373.5,231C 369.428,228.03 366.428,224.197 364.5,219.5 Z"/></g>
<g><path style="opacity:1" fill="#fdfcfd" d="M 338.5,230.5 C 338.666,235.511 338.499,240.511 338,245.5C 336.333,246.833 334.667,246.833 333,245.5C 332.501,240.845 332.334,236.179 332.5,231.5C 332.414,230.504 332.748,229.671 333.5,229C 335.674,228.123 337.341,228.623 338.5,230.5 Z"/></g>
<g><path style="opacity:0.997" fill="#925bf1" d="M -0.5,236.5 C 37.1667,236.5 74.8333,236.5 112.5,236.5C 111.032,240.706 110.032,245.039 109.5,249.5C 72.9061,250.493 36.2395,250.827 -0.5,250.5C -0.5,245.833 -0.5,241.167 -0.5,236.5 Z"/></g>
<g><path style="opacity:1" fill="#945df1" d="M 338.5,230.5 C 339.461,232.265 339.795,234.265 339.5,236.5C 349.348,236.827 359.014,236.494 368.5,235.5C 370.359,236.594 372.359,237.427 374.5,238C 379.897,238.227 385.231,238.894 390.5,240C 393.749,241.08 395.749,243.247 396.5,246.5C 396.5,247.833 396.5,249.167 396.5,250.5C 364.329,250.168 332.329,250.502 300.5,251.5C 295.505,248.664 290.172,246.498 284.5,245C 256.5,244.333 228.5,244.333 200.5,245C 195.71,246.563 191.044,248.396 186.5,250.5C 162.809,251.157 139.476,250.49 116.5,248.5C 116.861,244.085 118.194,240.085 120.5,236.5C 190.833,236.5 261.167,236.5 331.5,236.5C 331.216,234.585 331.549,232.919 332.5,231.5C 332.334,236.179 332.501,240.845 333,245.5C 334.667,246.833 336.333,246.833 338,245.5C 338.499,240.511 338.666,235.511 338.5,230.5 Z"/></g>
<g><path style="opacity:0.997" fill="#935bf1" d="M 379.5,231.5 C 423.167,231.5 466.833,231.5 510.5,231.5C 510.5,232.167 510.833,232.5 511.5,232.5C 511.5,238.5 511.5,244.5 511.5,250.5C 475.833,250.5 440.167,250.5 404.5,250.5C 404.737,249.209 404.404,248.209 403.5,247.5C 402.683,242.177 400.016,238.01 395.5,235C 390.159,233.248 384.826,232.081 379.5,231.5 Z"/></g>
<g><path style="opacity:1" fill="#fcfbfd" d="M 300.5,251.5 C 305.427,255.341 309.427,260.008 312.5,265.5C 314.957,269.87 316.624,274.536 317.5,279.5C 317.625,285.203 317.292,290.87 316.5,296.5C 314.466,301.572 312.133,306.572 309.5,311.5C 303.278,318.543 295.611,323.376 286.5,326C 271.371,327.116 256.204,327.616 241,327.5C 227.833,327.333 214.667,327.167 201.5,327C 191.571,324.371 183.237,319.204 176.5,311.5C 173.053,306.136 170.386,300.47 168.5,294.5C 168.5,289.5 168.5,284.5 168.5,279.5C 170.714,267.391 176.714,257.725 186.5,250.5C 191.044,248.396 195.71,246.563 200.5,245C 228.5,244.333 256.5,244.333 284.5,245C 290.172,246.498 295.505,248.664 300.5,251.5 Z"/></g>
<g><path style="opacity:1" fill="#8c60f0" d="M 109.5,249.5 C 107.913,254.697 107.246,260.031 107.5,265.5C 71.5,265.5 35.5,265.5 -0.5,265.5C -0.5,260.5 -0.5,255.5 -0.5,250.5C 36.2395,250.827 72.9061,250.493 109.5,249.5 Z"/></g>
<g><path style="opacity:1" fill="#8b63f0" d="M 116.5,248.5 C 139.476,250.49 162.809,251.157 186.5,250.5C 176.714,257.725 170.714,267.391 168.5,279.5C 150.833,279.5 133.167,279.5 115.5,279.5C 113.875,268.955 114.208,258.622 116.5,248.5 Z"/></g>
<g><path style="opacity:1" fill="#8c61f0" d="M 396.5,250.5 C 396.5,255.5 396.5,260.5 396.5,265.5C 368.5,265.5 340.5,265.5 312.5,265.5C 309.427,260.008 305.427,255.341 300.5,251.5C 332.329,250.502 364.329,250.168 396.5,250.5 Z"/></g>
<g><path style="opacity:0.999" fill="#8c60f0" d="M 404.5,250.5 C 440.167,250.5 475.833,250.5 511.5,250.5C 511.5,255.5 511.5,260.5 511.5,265.5C 475.833,265.5 440.167,265.5 404.5,265.5C 404.5,260.5 404.5,255.5 404.5,250.5 Z"/></g>
<g><path style="opacity:1" fill="#8b64f0" d="M 309.5,276.5 C 309.5,277.5 309.5,278.5 309.5,279.5C 296.167,279.5 282.833,279.5 269.5,279.5C 269.18,276.102 269.513,272.768 270.5,269.5C 273.653,270.579 276.653,271.912 279.5,273.5C 283.38,271.347 283.38,268.847 279.5,266C 276.244,264.526 272.911,263.36 269.5,262.5C 269.003,257.507 266.836,256.507 263,259.5C 262.51,260.793 262.343,262.127 262.5,263.5C 254.19,265.138 249.857,270.138 249.5,278.5C 241.016,279.493 232.349,279.826 223.5,279.5C 223.5,276.167 223.5,272.833 223.5,269.5C 226.962,270.153 230.128,271.487 233,273.5C 236.826,272.031 237.326,269.864 234.5,267C 230.797,264.646 226.797,263.146 222.5,262.5C 222.985,257.841 221.152,256.508 217,258.5C 216.506,260.134 216.34,261.801 216.5,263.5C 210.088,264.199 205.755,267.532 203.5,273.5C 202.539,275.265 202.205,277.265 202.5,279.5C 193.318,279.827 184.318,279.493 175.5,278.5C 178.893,263.939 187.893,254.773 202.5,251C 228.5,250.333 254.5,250.333 280.5,251C 295.357,253.695 305.024,262.195 309.5,276.5 Z"/></g>
<g><path style="opacity:1" fill="#fbfafd" d="M 223.5,269.5 C 222.514,273.97 222.181,278.637 222.5,283.5C 229.208,283.887 233.541,287.221 235.5,293.5C 235.88,302.46 231.546,307.46 222.5,308.5C 223.508,313.667 221.675,315.334 217,313.5C 216.506,311.866 216.34,310.199 216.5,308.5C 211.564,308.689 207.398,307.023 204,303.5C 202.92,300.763 203.754,299.096 206.5,298.5C 208.703,299.767 211.037,300.767 213.5,301.5C 214.209,302.404 215.209,302.737 216.5,302.5C 216.819,297.637 216.486,292.97 215.5,288.5C 206.997,287.006 202.997,282.006 203.5,273.5C 205.755,267.532 210.088,264.199 216.5,263.5C 216.34,261.801 216.506,260.134 217,258.5C 221.152,256.508 222.985,257.841 222.5,262.5C 226.797,263.146 230.797,264.646 234.5,267C 237.326,269.864 236.826,272.031 233,273.5C 230.128,271.487 226.962,270.153 223.5,269.5 Z"/></g>
<g><path style="opacity:1" fill="#f9f8fd" d="M 269.5,279.5 C 269.5,280.833 269.5,282.167 269.5,283.5C 277.091,284.095 281.425,288.095 282.5,295.5C 281.431,302.404 277.431,306.57 270.5,308C 269.944,310.237 268.944,312.237 267.5,314C 263.68,314.342 262.014,312.509 262.5,308.5C 256.642,308.573 252.309,306.073 249.5,301C 249.862,299.115 251.029,298.281 253,298.5C 255.423,299.626 257.923,300.626 260.5,301.5C 261.209,302.404 262.209,302.737 263.5,302.5C 263.819,297.637 263.486,292.97 262.5,288.5C 256.374,287.361 252.041,284.028 249.5,278.5C 249.857,270.138 254.19,265.138 262.5,263.5C 262.343,262.127 262.51,260.793 263,259.5C 266.836,256.507 269.003,257.507 269.5,262.5C 272.911,263.36 276.244,264.526 279.5,266C 283.38,268.847 283.38,271.347 279.5,273.5C 276.653,271.912 273.653,270.579 270.5,269.5C 269.513,272.768 269.18,276.102 269.5,279.5 Z"/></g>
<g><path style="opacity:0.996" fill="#8666ef" d="M -0.5,265.5 C 35.5,265.5 71.5,265.5 107.5,265.5C 107.669,270.181 108.002,274.848 108.5,279.5C 72.5,279.5 36.5,279.5 0.5,279.5C 0.5,278.833 0.166667,278.5 -0.5,278.5C -0.5,274.167 -0.5,269.833 -0.5,265.5 Z"/></g>
<g><path style="opacity:1" fill="#8666ef" d="M 312.5,265.5 C 340.5,265.5 368.5,265.5 396.5,265.5C 396.5,270.167 396.5,274.833 396.5,279.5C 370.167,279.5 343.833,279.5 317.5,279.5C 316.624,274.536 314.957,269.87 312.5,265.5 Z"/></g>
<g><path style="opacity:0.996" fill="#8666ef" d="M 404.5,265.5 C 440.167,265.5 475.833,265.5 511.5,265.5C 511.5,269.833 511.5,274.167 511.5,278.5C 510.833,278.5 510.5,278.833 510.5,279.5C 475.167,279.5 439.833,279.5 404.5,279.5C 404.5,274.833 404.5,270.167 404.5,265.5 Z"/></g>
<g><path style="opacity:1" fill="#9175f0" d="M 214.5,269.5 C 216.423,273.029 217.089,277.029 216.5,281.5C 211.137,281.312 208.97,278.645 210,273.5C 211.667,272.267 213.167,270.933 214.5,269.5 Z"/></g>
<g><path style="opacity:1" fill="#876aef" d="M 259.5,270.5 C 260.5,270.5 261.5,270.5 262.5,270.5C 262.823,274.226 262.489,277.893 261.5,281.5C 255.688,278.773 255.021,275.106 259.5,270.5 Z"/></g>
<g><path style="opacity:1" fill="#816dee" d="M 203.5,273.5 C 202.997,282.006 206.997,287.006 215.5,288.5C 215.5,291.167 215.5,293.833 215.5,296.5C 202.5,296.5 189.5,296.5 176.5,296.5C 174.301,290.529 173.968,284.529 175.5,278.5C 184.318,279.493 193.318,279.827 202.5,279.5C 202.205,277.265 202.539,275.265 203.5,273.5 Z"/></g>
<g><path style="opacity:0.997" fill="#806cee" d="M 0.5,279.5 C 36.5,279.5 72.5,279.5 108.5,279.5C 110.142,284.733 111.475,290.067 112.5,295.5C 76.0038,296.498 39.3371,296.832 2.5,296.5C 1.26407,290.943 0.597401,285.277 0.5,279.5 Z"/></g>
<g><path style="opacity:1" fill="#806cee" d="M 115.5,279.5 C 133.167,279.5 150.833,279.5 168.5,279.5C 168.5,284.5 168.5,289.5 168.5,294.5C 152.868,296.485 136.868,297.151 120.5,296.5C 118.37,290.981 116.703,285.314 115.5,279.5 Z"/></g>
<g><path style="opacity:1" fill="#816def" d="M 223.5,269.5 C 223.5,272.833 223.5,276.167 223.5,279.5C 232.349,279.826 241.016,279.493 249.5,278.5C 252.041,284.028 256.374,287.361 262.5,288.5C 262.5,291.167 262.5,293.833 262.5,296.5C 253.833,296.5 245.167,296.5 236.5,296.5C 236.737,295.209 236.404,294.209 235.5,293.5C 233.541,287.221 229.208,283.887 222.5,283.5C 222.181,278.637 222.514,273.97 223.5,269.5 Z"/></g>
<g><path style="opacity:1" fill="#826def" d="M 309.5,276.5 C 312.055,283.054 312.055,289.721 309.5,296.5C 300.416,296.804 291.416,296.471 282.5,295.5C 281.425,288.095 277.091,284.095 269.5,283.5C 269.5,282.167 269.5,280.833 269.5,279.5C 282.833,279.5 296.167,279.5 309.5,279.5C 309.5,278.5 309.5,277.5 309.5,276.5 Z"/></g>
<g><path style="opacity:1" fill="#816cef" d="M 396.5,246.5 C 397.166,252.658 397.5,258.991 397.5,265.5C 402.553,286.268 394.553,295.768 373.5,294C 371.593,295.122 369.593,295.955 367.5,296.5C 350.5,296.5 333.5,296.5 316.5,296.5C 317.292,290.87 317.625,285.203 317.5,279.5C 343.833,279.5 370.167,279.5 396.5,279.5C 396.5,274.833 396.5,270.167 396.5,265.5C 396.5,260.5 396.5,255.5 396.5,250.5C 396.5,249.167 396.5,247.833 396.5,246.5 Z"/></g>
<g><path style="opacity:0.997" fill="#806cee" d="M 403.5,247.5 C 404.404,248.209 404.737,249.209 404.5,250.5C 404.5,255.5 404.5,260.5 404.5,265.5C 404.5,270.167 404.5,274.833 404.5,279.5C 439.833,279.5 475.167,279.5 510.5,279.5C 510.403,285.277 509.736,290.943 508.5,296.5C 471.33,296.832 434.33,296.498 397.5,295.5C 400.294,293.181 402.128,290.181 403,286.5C 403.5,273.504 403.667,260.504 403.5,247.5 Z"/></g>
<g><path style="opacity:1" fill="#c9c3f7" d="M 262.5,288.5 C 263.486,292.97 263.819,297.637 263.5,302.5C 262.209,302.737 261.209,302.404 260.5,301.5C 262.256,300.448 262.923,298.781 262.5,296.5C 262.5,293.833 262.5,291.167 262.5,288.5 Z"/></g>
<g><path style="opacity:1" fill="#8172ee" d="M 269.5,289.5 C 278.35,292.883 278.684,296.883 270.5,301.5C 269.509,297.555 269.176,293.555 269.5,289.5 Z"/></g>
<g><path style="opacity:1" fill="#a99ff3" d="M 215.5,288.5 C 216.486,292.97 216.819,297.637 216.5,302.5C 215.209,302.737 214.209,302.404 213.5,301.5C 215.256,300.448 215.923,298.781 215.5,296.5C 215.5,293.833 215.5,291.167 215.5,288.5 Z"/></g>
<g><path style="opacity:1" fill="#8375ef" d="M 222.5,289.5 C 228.857,290.792 230.524,294.125 227.5,299.5C 226.15,300.95 224.484,301.617 222.5,301.5C 222.5,297.5 222.5,293.5 222.5,289.5 Z"/></g>
<g><path style="opacity:0.997" fill="#7971ee" d="M 112.5,295.5 C 115.147,300.795 117.814,306.128 120.5,311.5C 82.1166,311.846 43.7833,312.846 5.5,314.5C 4.24235,308.545 3.24235,302.545 2.5,296.5C 39.3371,296.832 76.0038,296.498 112.5,295.5 Z"/></g>
<g><path style="opacity:1" fill="#7972ee" d="M 168.5,294.5 C 170.386,300.47 173.053,306.136 176.5,311.5C 161.342,312.496 146.009,312.83 130.5,312.5C 126.18,307.876 122.846,302.543 120.5,296.5C 136.868,297.151 152.868,296.485 168.5,294.5 Z"/></g>
<g><path style="opacity:1" fill="#7972ee" d="M 316.5,296.5 C 333.5,296.5 350.5,296.5 367.5,296.5C 363.833,301.833 360.167,307.167 356.5,312.5C 340.658,312.83 324.991,312.496 309.5,311.5C 312.133,306.572 314.466,301.572 316.5,296.5 Z"/></g>
<g><path style="opacity:0.998" fill="#7972ee" d="M 397.5,295.5 C 434.33,296.498 471.33,296.832 508.5,296.5C 508.008,301.959 507.008,307.292 505.5,312.5C 458.664,312.832 411.997,312.499 365.5,311.5C 367.246,307.26 369.913,303.76 373.5,301C 378.815,300.187 384.148,299.521 389.5,299C 392.438,298.304 395.104,297.138 397.5,295.5 Z"/></g>
<g><path style="opacity:1" fill="#7a76ed" d="M 235.5,293.5 C 236.404,294.209 236.737,295.209 236.5,296.5C 245.167,296.5 253.833,296.5 262.5,296.5C 262.923,298.781 262.256,300.448 260.5,301.5C 257.923,300.626 255.423,299.626 253,298.5C 251.029,298.281 249.862,299.115 249.5,301C 252.309,306.073 256.642,308.573 262.5,308.5C 262.014,312.509 263.68,314.342 267.5,314C 268.944,312.237 269.944,310.237 270.5,308C 277.431,306.57 281.431,302.404 282.5,295.5C 291.416,296.471 300.416,296.804 309.5,296.5C 305.322,308.178 297.322,316.011 285.5,320C 271.044,321.123 256.544,321.623 242,321.5C 229.167,321.333 216.333,321.167 203.5,321C 190.111,317.435 181.111,309.269 176.5,296.5C 189.5,296.5 202.5,296.5 215.5,296.5C 215.923,298.781 215.256,300.448 213.5,301.5C 211.037,300.767 208.703,299.767 206.5,298.5C 203.754,299.096 202.92,300.763 204,303.5C 207.398,307.023 211.564,308.689 216.5,308.5C 216.34,310.199 216.506,311.866 217,313.5C 221.675,315.334 223.508,313.667 222.5,308.5C 231.546,307.46 235.88,302.46 235.5,293.5 Z"/></g>
<g><path style="opacity:0.998" fill="#7377ed" d="M 120.5,311.5 C 124.136,316.142 127.803,320.809 131.5,325.5C 90.6632,325.168 49.9966,325.501 9.5,326.5C 7.87229,322.681 6.53895,318.681 5.5,314.5C 43.7833,312.846 82.1166,311.846 120.5,311.5 Z"/></g>
<g><path style="opacity:0.999" fill="#7377ed" d="M 365.5,311.5 C 411.997,312.499 458.664,312.832 505.5,312.5C 504.657,316.873 503.657,321.207 502.5,325.5C 453.33,325.832 404.33,325.499 355.5,324.5C 358.864,320.143 362.198,315.809 365.5,311.5 Z"/></g>
<g><path style="opacity:0.997" fill="#6e7bec" d="M 131.5,325.5 C 137.3,330.899 143.633,335.566 150.5,339.5C 104.991,339.835 59.6575,340.835 14.5,342.5C 12.057,337.5 10.3904,332.166 9.5,326.5C 49.9966,325.501 90.6632,325.168 131.5,325.5 Z"/></g>
<g><path style="opacity:1" fill="#717aec" d="M 176.5,311.5 C 183.237,319.204 191.571,324.371 201.5,327C 214.667,327.167 227.833,327.333 241,327.5C 256.204,327.616 271.371,327.116 286.5,326C 295.611,323.376 303.278,318.543 309.5,311.5C 324.991,312.496 340.658,312.83 356.5,312.5C 349.407,321.71 340.74,329.044 330.5,334.5C 272.5,334.5 214.5,334.5 156.5,334.5C 145.705,329.707 137.038,322.373 130.5,312.5C 146.009,312.83 161.342,312.496 176.5,311.5 Z"/></g>
<g><path style="opacity:0.998" fill="#6d7cec" d="M 355.5,324.5 C 404.33,325.499 453.33,325.832 502.5,325.5C 501.035,330.563 499.368,335.563 497.5,340.5C 443.331,340.832 389.331,340.499 335.5,339.5C 342.732,335.269 349.399,330.269 355.5,324.5 Z"/></g>
<g><path style="opacity:1" fill="#6c7dec" d="M 156.5,334.5 C 214.5,334.5 272.5,334.5 330.5,334.5C 325.647,337.585 320.314,339.585 314.5,340.5C 266.5,340.5 218.5,340.5 170.5,340.5C 165.28,339.551 160.614,337.551 156.5,334.5 Z"/></g>
<g><path style="opacity:0.998" fill="#6781eb" d="M 150.5,339.5 C 157.126,343.311 164.126,346.311 171.5,348.5C 172.429,349.689 172.762,351.022 172.5,352.5C 172.5,354.167 172.5,355.833 172.5,357.5C 121.833,357.5 71.1667,357.5 20.5,357.5C 17.7344,352.883 15.7344,347.883 14.5,342.5C 59.6575,340.835 104.991,339.835 150.5,339.5 Z"/></g>
<g><path style="opacity:1" fill="#6885eb" d="M 170.5,340.5 C 218.5,340.5 266.5,340.5 314.5,340.5C 312.611,341.322 310.611,342.155 308.5,343C 307.874,343.75 307.374,344.584 307,345.5C 306.789,354.445 305.956,363.278 304.5,372C 295.506,372.5 286.506,372.666 277.5,372.5C 277.281,364.153 276.781,355.82 276,347.5C 275.626,346.584 275.126,345.75 274.5,345C 253.5,344.333 232.5,344.333 211.5,345C 210.132,353.963 209.132,362.963 208.5,372C 199.5,372.667 190.5,372.667 181.5,372C 180.629,362.893 179.796,353.726 179,344.5C 176.436,342.376 173.603,341.042 170.5,340.5 Z"/></g>
<g><path style="opacity:0.998" fill="#6781eb" d="M 335.5,339.5 C 389.331,340.499 443.331,340.832 497.5,340.5C 495.733,346.485 493.4,352.152 490.5,357.5C 431.5,357.5 372.5,357.5 313.5,357.5C 313.5,355.833 313.5,354.167 313.5,352.5C 313.5,350.833 313.5,349.167 313.5,347.5C 321.345,346.219 328.678,343.552 335.5,339.5 Z"/></g>
<g><path style="opacity:0.997" fill="#6087ea" d="M 172.5,352.5 C 173.482,355.962 173.815,359.629 173.5,363.5C 173.5,366.167 173.5,368.833 173.5,371.5C 124.5,371.5 75.5,371.5 26.5,371.5C 23.9517,367.07 21.9517,362.403 20.5,357.5C 71.1667,357.5 121.833,357.5 172.5,357.5C 172.5,355.833 172.5,354.167 172.5,352.5 Z"/></g>
<g><path style="opacity:1" fill="#6287ea" d="M 270.5,371.5 C 252.167,372.833 233.833,372.833 215.5,371.5C 215.502,364.48 215.835,357.48 216.5,350.5C 234.167,350.5 251.833,350.5 269.5,350.5C 270.165,357.48 270.498,364.48 270.5,371.5 Z"/></g>
<g><path style="opacity:0.998" fill="#6087ea" d="M 313.5,352.5 C 313.5,354.167 313.5,355.833 313.5,357.5C 372.5,357.5 431.5,357.5 490.5,357.5C 489.048,362.403 487.048,367.07 484.5,371.5C 427.167,371.5 369.833,371.5 312.5,371.5C 312.177,364.978 312.51,358.645 313.5,352.5 Z"/></g>
<g><path style="opacity:0.998" fill="#5a8cea" d="M 173.5,363.5 C 174.323,366.977 174.823,370.644 175,374.5C 176.167,376.333 177.667,377.833 179.5,379C 189.167,379.667 198.833,379.667 208.5,379C 212.462,377.876 214.795,375.376 215.5,371.5C 233.833,372.833 252.167,372.833 270.5,371.5C 271.108,374.958 273.108,377.458 276.5,379C 286.167,379.667 295.833,379.667 305.5,379C 308.877,377.368 311.21,374.868 312.5,371.5C 369.833,371.5 427.167,371.5 484.5,371.5C 481.404,377.367 478.071,383.033 474.5,388.5C 328.334,387.5 182.001,387.167 35.5,387.5C 32.5,382.167 29.5,376.833 26.5,371.5C 75.5,371.5 124.5,371.5 173.5,371.5C 173.5,368.833 173.5,366.167 173.5,363.5 Z"/></g>
<g><path style="opacity:0.999" fill="#5392e9" d="M 35.5,387.5 C 182.001,387.167 328.334,387.5 474.5,388.5C 471.22,394.441 467.553,400.108 463.5,405.5C 324.736,404.168 186.069,404.168 47.5,405.5C 43.141,399.795 39.141,393.795 35.5,387.5 Z"/></g>
<g><path style="opacity:0.998" fill="#4d98e8" d="M 463.5,405.5 C 460.305,410.569 456.638,415.235 452.5,419.5C 321.001,418.5 189.334,418.167 57.5,418.5C 53.9358,414.386 50.6025,410.052 47.5,405.5C 186.069,404.168 324.736,404.168 463.5,405.5 Z"/></g>
<g><path style="opacity:0.999" fill="#489be8" d="M 57.5,418.5 C 189.334,418.167 321.001,418.5 452.5,419.5C 450.628,422.582 448.295,425.249 445.5,427.5C 318.668,426.5 191.668,426.167 64.5,426.5C 62.1765,423.874 59.8432,421.207 57.5,418.5 Z"/></g>
<g><path style="opacity:0.998" fill="#43a0e7" d="M 64.5,426.5 C 191.668,426.167 318.668,426.5 445.5,427.5C 441.5,432.167 437.167,436.5 432.5,440.5C 314.5,440.5 196.5,440.5 78.5,440.5C 73.5,436.167 68.8333,431.5 64.5,426.5 Z"/></g>
<g><path style="opacity:0.997" fill="#3fa3e6" d="M 78.5,440.5 C 196.5,440.5 314.5,440.5 432.5,440.5C 430.167,443.5 427.5,446.167 424.5,448.5C 311.57,447.502 198.57,447.169 85.5,447.5C 82.8333,445.5 80.5,443.167 78.5,440.5 Z"/></g>
<g><path style="opacity:0.998" fill="#3ba7e6" d="M 85.5,447.5 C 198.57,447.169 311.57,447.502 424.5,448.5C 419.123,453.21 413.457,457.543 407.5,461.5C 306.167,461.5 204.833,461.5 103.5,461.5C 97.1294,457.314 91.1294,452.647 85.5,447.5 Z"/></g>
<g><path style="opacity:0.996" fill="#35ace5" d="M 103.5,461.5 C 204.833,461.5 306.167,461.5 407.5,461.5C 399.067,468.251 390.067,474.251 380.5,479.5C 297.5,478.167 214.5,478.167 131.5,479.5C 121.356,474.675 112.022,468.675 103.5,461.5 Z"/></g>
<g><path style="opacity:0.993" fill="#2eb2e4" d="M 380.5,479.5 C 370.564,485.301 360.231,490.301 349.5,494.5C 285.973,493.823 222.306,493.156 158.5,492.5C 148.801,489.483 139.801,485.149 131.5,479.5C 214.5,478.167 297.5,478.167 380.5,479.5 Z"/></g>
<g><path style="opacity:0.984" fill="#28b8e3" d="M 158.5,492.5 C 222.306,493.156 285.973,493.823 349.5,494.5C 326.439,503.183 302.773,508.85 278.5,511.5C 263.167,511.5 247.833,511.5 232.5,511.5C 206.88,508.928 182.213,502.595 158.5,492.5 Z"/></g>
</svg>
