<?xml version="1.0" encoding="UTF-8"?>
<!DOCTYPE svg PUBLIC "-//W3C//DTD SVG 1.1//EN" "http://www.w3.org/Graphics/SVG/1.1/DTD/svg11.dtd">
<svg xmlns="http://www.w3.org/2000/svg" version="1.1" width="512px" height="512px" style="shape-rendering:geometricPrecision; text-rendering:geometricPrecision; image-rendering:optimizeQuality; fill-rule:evenodd; clip-rule:evenodd" xmlns:xlink="http://www.w3.org/1999/xlink">
<g><path style="opacity:0.991" fill="#f109fd" d="M 232.5,-0.5 C 247.833,-0.5 263.167,-0.5 278.5,-0.5C 307.769,2.4843 335.769,10.151 362.5,22.5C 291.665,22.8325 220.998,22.4992 150.5,21.5C 176.746,9.77337 204.079,2.44003 232.5,-0.5 Z"/></g>
<g><path style="opacity:0.994" fill="#ea0ffc" d="M 150.5,21.5 C 220.998,22.4992 291.665,22.8325 362.5,22.5C 373.599,26.9705 383.933,32.6371 393.5,39.5C 393.565,39.9382 393.399,40.2716 393,40.5C 301.736,39.8346 210.569,39.1679 119.5,38.5C 129.023,31.5674 139.357,25.9007 150.5,21.5 Z"/></g>
<g><path style="opacity:0.996" fill="#e315fb" d="M 119.5,38.5 C 210.569,39.1679 301.736,39.8346 393,40.5C 393.399,40.2716 393.565,39.9382 393.5,39.5C 400.554,43.6868 407.221,48.3534 413.5,53.5C 307.904,54.4977 202.237,54.831 96.5,54.5C 103.61,48.3946 111.276,43.0612 119.5,38.5 Z"/></g>
<g><path style="opacity:0.997" fill="#dd1afa" d="M 413.5,53.5 C 419.489,58.1569 425.156,63.1569 430.5,68.5C 313.999,68.8329 197.665,68.4995 81.5,67.5C 86.1793,62.8223 91.1793,58.489 96.5,54.5C 202.237,54.831 307.904,54.4977 413.5,53.5 Z"/></g>
<g><path style="opacity:0.998" fill="#d620fa" d="M 81.5,67.5 C 197.665,68.4995 313.999,68.8329 430.5,68.5C 435.833,73.1667 440.833,78.1667 445.5,83.5C 319.001,84.3331 192.334,84.8331 65.5,85C 64.7562,86.0386 63.7562,86.5386 62.5,86.5C 68.5,79.8333 74.8333,73.5 81.5,67.5 Z"/></g>
<g><path style="opacity:0.999" fill="#d025f9" d="M 445.5,83.5 C 449.513,87.5149 453.179,91.8482 456.5,96.5C 322.5,97.8333 188.5,97.8333 54.5,96.5C 56.8171,92.8536 59.4838,89.5203 62.5,86.5C 63.7562,86.5386 64.7562,86.0386 65.5,85C 192.334,84.8331 319.001,84.3331 445.5,83.5 Z"/></g>
<g><path style="opacity:0.998" fill="#cc29f8" d="M 54.5,96.5 C 188.5,97.8333 322.5,97.8333 456.5,96.5C 460.064,100.614 463.397,104.948 466.5,109.5C 325.833,109.5 185.167,109.5 44.5,109.5C 47.6025,104.948 50.9358,100.614 54.5,96.5 Z"/></g>
<g><path style="opacity:0.999" fill="#c52ef7" d="M 44.5,109.5 C 185.167,109.5 325.833,109.5 466.5,109.5C 470.416,114.996 474.082,120.663 477.5,126.5C 385.5,126.5 293.5,126.5 201.5,126.5C 201.821,121.305 201.487,116.305 200.5,111.5C 183.833,111.5 167.167,111.5 150.5,111.5C 150.5,116.5 150.5,121.5 150.5,126.5C 111.761,126.827 73.0941,126.494 34.5,125.5C 37.4376,119.901 40.7709,114.567 44.5,109.5 Z"/></g>
<g><path style="opacity:1" fill="#fefffd" d="M 200.5,112.5 C 200.5,117.167 200.5,121.833 200.5,126.5C 184.167,126.5 167.833,126.5 151.5,126.5C 151.5,121.833 151.5,117.167 151.5,112.5C 167.833,112.5 184.167,112.5 200.5,112.5 Z"/></g>
<g><path style="opacity:1" fill="#e9aafb" d="M 200.5,111.5 C 200.5,111.833 200.5,112.167 200.5,112.5C 184.167,112.5 167.833,112.5 151.5,112.5C 151.5,117.167 151.5,121.833 151.5,126.5C 151.167,126.5 150.833,126.5 150.5,126.5C 150.5,121.5 150.5,116.5 150.5,111.5C 167.167,111.5 183.833,111.5 200.5,111.5 Z"/></g>
<g><path style="opacity:1" fill="#fefefd" d="M 279.5,143.5 C 286.216,148.881 293.216,153.881 300.5,158.5C 307.939,164.937 315.939,170.603 324.5,175.5C 330.963,181.233 337.963,186.233 345.5,190.5C 351.262,195.887 357.595,200.554 364.5,204.5C 370.599,208.752 376.599,213.252 382.5,218C 377.511,218.499 372.511,218.666 367.5,218.5C 366.5,218.833 365.833,219.5 365.5,220.5C 364.501,271.997 364.168,323.664 364.5,375.5C 322.5,375.5 280.5,375.5 238.5,375.5C 238.832,336.996 238.499,298.663 237.5,260.5C 237.389,259.883 237.056,259.383 236.5,259C 213.5,258.333 190.5,258.333 167.5,259C 166.944,259.383 166.611,259.883 166.5,260.5C 165.501,298.663 165.168,336.996 165.5,375.5C 158.833,375.5 152.167,375.5 145.5,375.5C 145.5,374.167 145.5,372.833 145.5,371.5C 145.5,365.833 145.5,360.167 145.5,354.5C 145.5,349.833 145.5,345.167 145.5,340.5C 145.5,335.5 145.5,330.5 145.5,325.5C 145.5,321.167 145.5,316.833 145.5,312.5C 145.5,307.167 145.5,301.833 145.5,296.5C 145.5,290.833 145.5,285.167 145.5,279.5C 145.5,274.833 145.5,270.167 145.5,265.5C 145.5,260.5 145.5,255.5 145.5,250.5C 145.5,245.833 145.5,241.167 145.5,236.5C 145.666,230.824 145.499,225.157 145,219.5C 144.617,218.944 144.117,218.611 143.5,218.5C 138.833,217.833 134.167,217.167 129.5,216.5C 130.167,216.5 130.5,216.167 130.5,215.5C 136.189,212.324 141.523,208.658 146.5,204.5C 153.049,200.066 159.383,195.399 165.5,190.5C 178.527,181.988 191.193,172.988 203.5,163.5C 220.901,151.381 238.401,139.381 256,127.5C 263.787,132.971 271.621,138.304 279.5,143.5 Z"/></g>
<g><path style="opacity:0.998" fill="#bf35f6" d="M 200.5,111.5 C 201.487,116.305 201.821,121.305 201.5,126.5C 293.5,126.5 385.5,126.5 477.5,126.5C 480.692,131.55 483.358,136.883 485.5,142.5C 417.002,143.499 348.335,143.833 279.5,143.5C 271.621,138.304 263.787,132.971 256,127.5C 238.401,139.381 220.901,151.381 203.5,163.5C 201.052,162.527 198.385,162.194 195.5,162.5C 195.5,152.833 195.5,143.167 195.5,133.5C 182.5,133.5 169.5,133.5 156.5,133.5C 155.521,136.625 155.187,139.958 155.5,143.5C 111.997,143.832 68.6635,143.499 25.5,142.5C 27.7396,136.35 30.7396,130.684 34.5,125.5C 73.0941,126.494 111.761,126.827 150.5,126.5C 150.833,126.5 151.167,126.5 151.5,126.5C 167.833,126.5 184.167,126.5 200.5,126.5C 200.5,121.833 200.5,117.167 200.5,112.5C 200.5,112.167 200.5,111.833 200.5,111.5 Z"/></g>
<g><path style="opacity:1" fill="#fefcfd" d="M 156.5,133.5 C 169.5,133.5 182.5,133.5 195.5,133.5C 195.5,143.167 195.5,152.833 195.5,162.5C 182.288,170.866 169.454,179.866 157,189.5C 156.5,170.836 156.333,152.17 156.5,133.5 Z"/></g>
<g><path style="opacity:0.997" fill="#b83af6" d="M 25.5,142.5 C 68.6635,143.499 111.997,143.832 155.5,143.5C 155.5,148.5 155.5,153.5 155.5,158.5C 109.833,158.5 64.1667,158.5 18.5,158.5C 20.0711,152.77 22.4044,147.437 25.5,142.5 Z"/></g>
<g><path style="opacity:0.998" fill="#b83af6" d="M 485.5,142.5 C 488.351,147.541 490.684,152.875 492.5,158.5C 428.5,158.5 364.5,158.5 300.5,158.5C 293.216,153.881 286.216,148.881 279.5,143.5C 348.335,143.833 417.002,143.499 485.5,142.5 Z"/></g>
<g><path style="opacity:0.998" fill="#b140f5" d="M 18.5,158.5 C 64.1667,158.5 109.833,158.5 155.5,158.5C 155.5,165.5 155.5,172.5 155.5,179.5C 107.167,179.5 58.8333,179.5 10.5,179.5C 12.403,172.112 15.0697,165.112 18.5,158.5 Z"/></g>
<g><path style="opacity:1" fill="#b149f5" d="M 287.5,198.5 C 285.5,198.5 283.5,198.5 281.5,198.5C 281.5,197.5 281.5,196.5 281.5,195.5C 279.935,173.432 268.269,164.266 246.5,168C 234.861,173.473 229.194,182.639 229.5,195.5C 229.5,196.5 229.5,197.5 229.5,198.5C 227.5,198.5 225.5,198.5 223.5,198.5C 222.351,176.145 232.851,163.145 255,159.5C 270.841,160.682 281.507,168.682 287,183.5C 287.499,188.489 287.666,193.489 287.5,198.5 Z"/></g>
<g><path style="opacity:0.998" fill="#b240f5" d="M 300.5,158.5 C 364.5,158.5 428.5,158.5 492.5,158.5C 495.464,163.382 497.464,168.715 498.5,174.5C 440.669,175.499 382.669,175.832 324.5,175.5C 315.939,170.603 307.939,164.937 300.5,158.5 Z"/></g>
<g><path style="opacity:1" fill="#fefdfd" d="M 281.5,195.5 C 276.907,212.874 265.574,220.04 247.5,217C 237.603,213.01 231.603,205.843 229.5,195.5C 229.194,182.639 234.861,173.473 246.5,168C 268.269,164.266 279.935,173.432 281.5,195.5 Z"/></g>
<g><path style="opacity:0.998" fill="#ab46f4" d="M 498.5,174.5 C 500.461,178.982 502.128,183.649 503.5,188.5C 451.05,190.489 398.383,191.155 345.5,190.5C 337.963,186.233 330.963,181.233 324.5,175.5C 382.669,175.832 440.669,175.499 498.5,174.5 Z"/></g>
<g><path style="opacity:0.998" fill="#ac47f4" d="M 156.5,133.5 C 156.333,152.17 156.5,170.836 157,189.5C 169.454,179.866 182.288,170.866 195.5,162.5C 198.385,162.194 201.052,162.527 203.5,163.5C 191.193,172.988 178.527,181.988 165.5,190.5C 112.833,190.5 60.1667,190.5 7.5,190.5C 8.30284,186.761 9.30284,183.095 10.5,179.5C 58.8333,179.5 107.167,179.5 155.5,179.5C 155.5,172.5 155.5,165.5 155.5,158.5C 155.5,153.5 155.5,148.5 155.5,143.5C 155.187,139.958 155.521,136.625 156.5,133.5 Z"/></g>
<g><path style="opacity:0.998" fill="#a64af3" d="M 7.5,190.5 C 60.1667,190.5 112.833,190.5 165.5,190.5C 159.383,195.399 153.049,200.066 146.5,204.5C 99.1667,204.5 51.8333,204.5 4.5,204.5C 4.87378,199.675 5.87378,195.008 7.5,190.5 Z"/></g>
<g><path style="opacity:0.999" fill="#a64af3" d="M 503.5,188.5 C 504.818,193.773 505.818,199.107 506.5,204.5C 459.167,204.5 411.833,204.5 364.5,204.5C 357.595,200.554 351.262,195.887 345.5,190.5C 398.383,191.155 451.05,190.489 503.5,188.5 Z"/></g>
<g><path style="opacity:0.997" fill="#a04ff3" d="M 4.5,204.5 C 51.8333,204.5 99.1667,204.5 146.5,204.5C 141.523,208.658 136.189,212.324 130.5,215.5C 87.8333,215.5 45.1667,215.5 2.5,215.5C 2.42993,211.575 3.09659,207.909 4.5,204.5 Z"/></g>
<g><path style="opacity:0.997" fill="#9f50f2" d="M 364.5,204.5 C 411.833,204.5 459.167,204.5 506.5,204.5C 508.236,209.911 509.236,215.578 509.5,221.5C 462.215,219.843 414.881,218.843 367.5,218.5C 372.511,218.666 377.511,218.499 382.5,218C 376.599,213.252 370.599,208.752 364.5,204.5 Z"/></g>
<g><path style="opacity:1" fill="#a359f3" d="M 229.5,195.5 C 231.603,205.843 237.603,213.01 247.5,217C 265.574,220.04 276.907,212.874 281.5,195.5C 281.5,196.5 281.5,197.5 281.5,198.5C 283.5,198.5 285.5,198.5 287.5,198.5C 280.634,219.603 266.301,227.77 244.5,223C 233.356,218.358 226.356,210.191 223.5,198.5C 225.5,198.5 227.5,198.5 229.5,198.5C 229.5,197.5 229.5,196.5 229.5,195.5 Z"/></g>
<g><path style="opacity:1" fill="#c498f7" d="M 129.5,216.5 C 134.167,217.167 138.833,217.833 143.5,218.5C 138.456,218.827 133.456,218.494 128.5,217.5C 128.624,216.893 128.957,216.56 129.5,216.5 Z"/></g>
<g><path style="opacity:0.998" fill="#9955f2" d="M 2.5,215.5 C 45.1667,215.5 87.8333,215.5 130.5,215.5C 130.5,216.167 130.167,216.5 129.5,216.5C 128.957,216.56 128.624,216.893 128.5,217.5C 133.456,218.494 138.456,218.827 143.5,218.5C 144.117,218.611 144.617,218.944 145,219.5C 145.499,225.157 145.666,230.824 145.5,236.5C 96.8333,236.5 48.1667,236.5 -0.5,236.5C -0.5,235.167 -0.5,233.833 -0.5,232.5C 0.30333,226.804 1.30333,221.137 2.5,215.5 Z"/></g>
<g><path style="opacity:0.998" fill="#9955f2" d="M 367.5,218.5 C 414.881,218.843 462.215,219.843 509.5,221.5C 510.026,225.312 510.693,228.979 511.5,232.5C 511.5,233.833 511.5,235.167 511.5,236.5C 462.833,236.5 414.167,236.5 365.5,236.5C 365.5,231.167 365.5,225.833 365.5,220.5C 365.833,219.5 366.5,218.833 367.5,218.5 Z"/></g>
<g><path style="opacity:0.998" fill="#925bf0" d="M -0.5,236.5 C 48.1667,236.5 96.8333,236.5 145.5,236.5C 145.5,241.167 145.5,245.833 145.5,250.5C 96.8333,250.5 48.1667,250.5 -0.5,250.5C -0.5,245.833 -0.5,241.167 -0.5,236.5 Z"/></g>
<g><path style="opacity:0.997" fill="#925bf1" d="M 365.5,236.5 C 414.167,236.5 462.833,236.5 511.5,236.5C 511.5,241.167 511.5,245.833 511.5,250.5C 462.833,250.5 414.167,250.5 365.5,250.5C 365.5,245.833 365.5,241.167 365.5,236.5 Z"/></g>
<g><path style="opacity:1" fill="#8c60f0" d="M -0.5,250.5 C 48.1667,250.5 96.8333,250.5 145.5,250.5C 145.5,255.5 145.5,260.5 145.5,265.5C 96.8333,265.5 48.1667,265.5 -0.5,265.5C -0.5,260.5 -0.5,255.5 -0.5,250.5 Z"/></g>
<g><path style="opacity:1" fill="#8c60f0" d="M 365.5,250.5 C 414.167,250.5 462.833,250.5 511.5,250.5C 511.5,255.5 511.5,260.5 511.5,265.5C 462.833,265.5 414.167,265.5 365.5,265.5C 365.5,260.5 365.5,255.5 365.5,250.5 Z"/></g>
<g><path style="opacity:1" fill="#8e69f0" d="M 237.5,260.5 C 237.5,266.833 237.5,273.167 237.5,279.5C 235.833,279.5 234.167,279.5 232.5,279.5C 232.819,274.637 232.486,269.97 231.5,265.5C 212.167,265.5 192.833,265.5 173.5,265.5C 172.514,269.97 172.181,274.637 172.5,279.5C 170.5,279.5 168.5,279.5 166.5,279.5C 166.5,273.167 166.5,266.833 166.5,260.5C 166.611,259.883 166.944,259.383 167.5,259C 190.5,258.333 213.5,258.333 236.5,259C 237.056,259.383 237.389,259.883 237.5,260.5 Z"/></g>
<g><path style="opacity:1" fill="#8d68f0" d="M 344.5,284.5 C 342.5,284.5 340.5,284.5 338.5,284.5C 338.5,278.167 338.5,271.833 338.5,265.5C 327.833,265.5 317.167,265.5 306.5,265.5C 305.51,271.645 305.177,277.978 305.5,284.5C 303.5,284.5 301.5,284.5 299.5,284.5C 299.5,278.167 299.5,271.833 299.5,265.5C 288.833,265.5 278.167,265.5 267.5,265.5C 266.51,271.645 266.177,277.978 266.5,284.5C 264.833,284.5 263.167,284.5 261.5,284.5C 261.5,276.5 261.5,268.5 261.5,260.5C 261.611,259.883 261.944,259.383 262.5,259C 289.167,258.333 315.833,258.333 342.5,259C 344.452,267.23 345.118,275.73 344.5,284.5 Z"/></g>
<g><path style="opacity:0.997" fill="#8666ef" d="M -0.5,265.5 C 48.1667,265.5 96.8333,265.5 145.5,265.5C 145.5,270.167 145.5,274.833 145.5,279.5C 97.1667,279.5 48.8333,279.5 0.5,279.5C 0.5,278.833 0.166667,278.5 -0.5,278.5C -0.5,274.167 -0.5,269.833 -0.5,265.5 Z"/></g>
<g><path style="opacity:1" fill="#fefefd" d="M 173.5,265.5 C 192.833,265.5 212.167,265.5 231.5,265.5C 231.5,302.167 231.5,338.833 231.5,375.5C 212.167,375.5 192.833,375.5 173.5,375.5C 173.5,338.833 173.5,302.167 173.5,265.5 Z"/></g>
<g><path style="opacity:1" fill="#fdfdfd" d="M 306.5,265.5 C 317.167,265.5 327.833,265.5 338.5,265.5C 338.5,271.833 338.5,278.167 338.5,284.5C 338.5,286.5 338.5,288.5 338.5,290.5C 327.833,290.5 317.167,290.5 306.5,290.5C 306.5,282.167 306.5,273.833 306.5,265.5 Z"/></g>
<g><path style="opacity:0.997" fill="#8666ef" d="M 365.5,265.5 C 414.167,265.5 462.833,265.5 511.5,265.5C 511.5,269.833 511.5,274.167 511.5,278.5C 510.833,278.5 510.5,278.833 510.5,279.5C 462.167,279.5 413.833,279.5 365.5,279.5C 365.5,274.833 365.5,270.167 365.5,265.5 Z"/></g>
<g><path style="opacity:1" fill="#d6dcf8" d="M 173.5,265.5 C 173.5,302.167 173.5,338.833 173.5,375.5C 192.833,375.5 212.167,375.5 231.5,375.5C 212.007,376.497 192.34,376.83 172.5,376.5C 172.5,364.5 172.5,352.5 172.5,340.5C 172.5,331.167 172.5,321.833 172.5,312.5C 172.5,301.5 172.5,290.5 172.5,279.5C 172.181,274.637 172.514,269.97 173.5,265.5 Z"/></g>
<g><path style="opacity:0.998" fill="#7f6bee" d="M 0.5,279.5 C 48.8333,279.5 97.1667,279.5 145.5,279.5C 145.5,285.167 145.5,290.833 145.5,296.5C 97.8333,296.5 50.1667,296.5 2.5,296.5C 1.26407,290.943 0.597401,285.277 0.5,279.5 Z"/></g>
<g><path style="opacity:1" fill="#8072ee" d="M 261.5,260.5 C 261.5,268.5 261.5,276.5 261.5,284.5C 263.167,284.5 264.833,284.5 266.5,284.5C 266.177,277.978 266.51,271.645 267.5,265.5C 267.5,273.833 267.5,282.167 267.5,290.5C 278.167,290.5 288.833,290.5 299.5,290.5C 299.5,288.5 299.5,286.5 299.5,284.5C 301.5,284.5 303.5,284.5 305.5,284.5C 305.177,277.978 305.51,271.645 306.5,265.5C 306.5,273.833 306.5,282.167 306.5,290.5C 317.167,290.5 327.833,290.5 338.5,290.5C 338.5,288.5 338.5,286.5 338.5,284.5C 340.5,284.5 342.5,284.5 344.5,284.5C 344.5,295.833 344.5,307.167 344.5,318.5C 342.5,318.5 340.5,318.5 338.5,318.5C 338.5,311.5 338.5,304.5 338.5,297.5C 327.679,296.505 316.679,296.172 305.5,296.5C 305.5,303.833 305.5,311.167 305.5,318.5C 303.5,318.5 301.5,318.5 299.5,318.5C 299.5,311.167 299.5,303.833 299.5,296.5C 288.654,296.172 277.987,296.506 267.5,297.5C 266.509,304.313 266.175,311.313 266.5,318.5C 264.833,318.5 263.167,318.5 261.5,318.5C 261.826,309.983 261.493,301.65 260.5,293.5C 260.172,282.321 260.505,271.321 261.5,260.5 Z"/></g>
<g><path style="opacity:1" fill="#fefffd" d="M 267.5,265.5 C 278.167,265.5 288.833,265.5 299.5,265.5C 299.5,271.833 299.5,278.167 299.5,284.5C 299.5,286.5 299.5,288.5 299.5,290.5C 288.833,290.5 278.167,290.5 267.5,290.5C 267.5,282.167 267.5,273.833 267.5,265.5 Z"/></g>
<g><path style="opacity:0.998" fill="#7f6bee" d="M 365.5,279.5 C 413.833,279.5 462.167,279.5 510.5,279.5C 510.403,285.277 509.736,290.943 508.5,296.5C 460.833,296.5 413.167,296.5 365.5,296.5C 365.5,290.833 365.5,285.167 365.5,279.5 Z"/></g>
<g><path style="opacity:1" fill="#bbb6f5" d="M 338.5,297.5 C 327.833,297.5 317.167,297.5 306.5,297.5C 306.5,305.833 306.5,314.167 306.5,322.5C 305.566,321.432 305.232,320.099 305.5,318.5C 305.5,311.167 305.5,303.833 305.5,296.5C 316.679,296.172 327.679,296.505 338.5,297.5 Z"/></g>
<g><path style="opacity:1" fill="#fbfbfd" d="M 299.5,318.5 C 299.5,319.833 299.5,321.167 299.5,322.5C 288.833,322.5 278.167,322.5 267.5,322.5C 267.5,314.167 267.5,305.833 267.5,297.5C 277.987,296.506 288.654,296.172 299.5,296.5C 299.5,303.833 299.5,311.167 299.5,318.5 Z"/></g>
<g><path style="opacity:1" fill="#fcfcfd" d="M 338.5,297.5 C 338.5,304.5 338.5,311.5 338.5,318.5C 338.5,319.833 338.5,321.167 338.5,322.5C 327.833,322.5 317.167,322.5 306.5,322.5C 306.5,314.167 306.5,305.833 306.5,297.5C 317.167,297.5 327.833,297.5 338.5,297.5 Z"/></g>
<g><path style="opacity:0.998" fill="#7971ee" d="M 2.5,296.5 C 50.1667,296.5 97.8333,296.5 145.5,296.5C 145.5,301.833 145.5,307.167 145.5,312.5C 98.6155,311.846 51.9488,312.513 5.5,314.5C 4.24235,308.545 3.24235,302.545 2.5,296.5 Z"/></g>
<g><path style="opacity:1" fill="#7b6fee" d="M 166.5,279.5 C 168.5,279.5 170.5,279.5 172.5,279.5C 172.5,290.5 172.5,301.5 172.5,312.5C 170.5,312.5 168.5,312.5 166.5,312.5C 166.5,301.5 166.5,290.5 166.5,279.5 Z"/></g>
<g><path style="opacity:0.998" fill="#7971ee" d="M 365.5,296.5 C 413.167,296.5 460.833,296.5 508.5,296.5C 508.008,301.959 507.008,307.292 505.5,312.5C 458.833,312.5 412.167,312.5 365.5,312.5C 365.5,307.167 365.5,301.833 365.5,296.5 Z"/></g>
<g><path style="opacity:1" fill="#bfc5f5" d="M 166.5,260.5 C 166.5,266.833 166.5,273.167 166.5,279.5C 166.5,290.5 166.5,301.5 166.5,312.5C 166.5,321.833 166.5,331.167 166.5,340.5C 166.5,352.5 166.5,364.5 166.5,376.5C 159.313,376.825 152.313,376.491 145.5,375.5C 152.167,375.5 158.833,375.5 165.5,375.5C 165.168,336.996 165.501,298.663 166.5,260.5 Z"/></g>
<g><path style="opacity:0.999" fill="#7377ec" d="M 145.5,312.5 C 145.5,316.833 145.5,321.167 145.5,325.5C 99.9969,325.168 54.6636,325.501 9.5,326.5C 7.87229,322.681 6.53895,318.681 5.5,314.5C 51.9488,312.513 98.6155,311.846 145.5,312.5 Z"/></g>
<g><path style="opacity:1" fill="#7479ed" d="M 217.5,308.5 C 219.39,308.297 220.89,308.963 222,310.5C 222.667,317.167 222.667,323.833 222,330.5C 220.604,332.527 218.938,332.86 217,331.5C 216.202,323.754 216.369,316.087 217.5,308.5 Z"/></g>
<g><path style="opacity:0.999" fill="#7377ed" d="M 365.5,312.5 C 412.167,312.5 458.833,312.5 505.5,312.5C 504.657,316.873 503.657,321.207 502.5,325.5C 456.833,325.5 411.167,325.5 365.5,325.5C 365.5,321.167 365.5,316.833 365.5,312.5 Z"/></g>
<g><path style="opacity:0.997" fill="#6d7bec" d="M 145.5,325.5 C 145.5,330.5 145.5,335.5 145.5,340.5C 101.487,339.839 57.8206,340.505 14.5,342.5C 12.057,337.5 10.3904,332.166 9.5,326.5C 54.6636,325.501 99.9969,325.168 145.5,325.5 Z"/></g>
<g><path style="opacity:1" fill="#727aed" d="M 260.5,293.5 C 261.493,301.65 261.826,309.983 261.5,318.5C 263.167,318.5 264.833,318.5 266.5,318.5C 266.175,311.313 266.509,304.313 267.5,297.5C 267.5,305.833 267.5,314.167 267.5,322.5C 278.167,322.5 288.833,322.5 299.5,322.5C 299.5,321.167 299.5,319.833 299.5,318.5C 301.5,318.5 303.5,318.5 305.5,318.5C 305.232,320.099 305.566,321.432 306.5,322.5C 317.167,322.5 327.833,322.5 338.5,322.5C 338.5,321.167 338.5,319.833 338.5,318.5C 340.5,318.5 342.5,318.5 344.5,318.5C 344.784,321.777 344.451,324.943 343.5,328C 316.167,328.667 288.833,328.667 261.5,328C 260.512,316.581 260.179,305.081 260.5,293.5 Z"/></g>
<g><path style="opacity:0.997" fill="#6d7bec" d="M 365.5,325.5 C 411.167,325.5 456.833,325.5 502.5,325.5C 501.035,330.563 499.368,335.563 497.5,340.5C 453.5,340.5 409.5,340.5 365.5,340.5C 365.5,335.5 365.5,330.5 365.5,325.5 Z"/></g>
<g><path style="opacity:1" fill="#6e7aec" d="M 166.5,312.5 C 168.5,312.5 170.5,312.5 172.5,312.5C 172.5,321.833 172.5,331.167 172.5,340.5C 170.5,340.5 168.5,340.5 166.5,340.5C 166.5,331.167 166.5,321.833 166.5,312.5 Z"/></g>
<g><path style="opacity:0.997" fill="#6781eb" d="M 145.5,340.5 C 145.5,345.167 145.5,349.833 145.5,354.5C 103.167,354.5 60.8333,354.5 18.5,354.5C 16.9651,350.562 15.6318,346.562 14.5,342.5C 57.8206,340.505 101.487,339.839 145.5,340.5 Z"/></g>
<g><path style="opacity:0.997" fill="#6781eb" d="M 365.5,340.5 C 409.5,340.5 453.5,340.5 497.5,340.5C 495.871,345.735 493.871,350.735 491.5,355.5C 449.67,354.501 407.67,354.168 365.5,354.5C 365.5,349.833 365.5,345.167 365.5,340.5 Z"/></g>
<g><path style="opacity:0.997" fill="#6186ea" d="M 18.5,354.5 C 60.8333,354.5 103.167,354.5 145.5,354.5C 145.5,360.167 145.5,365.833 145.5,371.5C 105.833,371.5 66.1667,371.5 26.5,371.5C 23.5602,365.954 20.8935,360.287 18.5,354.5 Z"/></g>
<g><path style="opacity:0.998" fill="#6186ea" d="M 365.5,354.5 C 407.67,354.168 449.67,354.501 491.5,355.5C 489.714,361.072 487.381,366.405 484.5,371.5C 444.833,371.5 405.167,371.5 365.5,371.5C 365.5,365.833 365.5,360.167 365.5,354.5 Z"/></g>
<g><path style="opacity:0.998" fill="#5d8cea" d="M 237.5,260.5 C 238.499,298.663 238.832,336.996 238.5,375.5C 280.663,376.499 322.997,376.832 365.5,376.5C 365.5,374.833 365.5,373.167 365.5,371.5C 405.167,371.5 444.833,371.5 484.5,371.5C 481.404,377.367 478.071,383.033 474.5,388.5C 443.004,387.502 411.338,387.168 379.5,387.5C 379.784,385.585 379.451,383.919 378.5,382.5C 296.5,382.5 214.5,382.5 132.5,382.5C 131.549,383.919 131.216,385.585 131.5,387.5C 99.5,387.5 67.5,387.5 35.5,387.5C 32.5,382.167 29.5,376.833 26.5,371.5C 66.1667,371.5 105.833,371.5 145.5,371.5C 145.5,372.833 145.5,374.167 145.5,375.5C 152.313,376.491 159.313,376.825 166.5,376.5C 166.5,364.5 166.5,352.5 166.5,340.5C 168.5,340.5 170.5,340.5 172.5,340.5C 172.5,352.5 172.5,364.5 172.5,376.5C 192.34,376.83 212.007,376.497 231.5,375.5C 231.5,338.833 231.5,302.167 231.5,265.5C 232.486,269.97 232.819,274.637 232.5,279.5C 232.5,290.5 232.5,301.5 232.5,312.5C 232.5,326.5 232.5,340.5 232.5,354.5C 234.167,354.5 235.833,354.5 237.5,354.5C 237.5,340.5 237.5,326.5 237.5,312.5C 237.5,301.5 237.5,290.5 237.5,279.5C 237.5,273.167 237.5,266.833 237.5,260.5 Z"/></g>
<g><path style="opacity:1" fill="#6d7bec" d="M 232.5,312.5 C 234.167,312.5 235.833,312.5 237.5,312.5C 237.5,326.5 237.5,340.5 237.5,354.5C 235.833,354.5 234.167,354.5 232.5,354.5C 232.5,340.5 232.5,326.5 232.5,312.5 Z"/></g>
<g><path style="opacity:1" fill="#7b6fee" d="M 232.5,279.5 C 234.167,279.5 235.833,279.5 237.5,279.5C 237.5,290.5 237.5,301.5 237.5,312.5C 235.833,312.5 234.167,312.5 232.5,312.5C 232.5,301.5 232.5,290.5 232.5,279.5 Z"/></g>
<g><path style="opacity:1" fill="#b2c2f4" d="M 365.5,220.5 C 365.5,225.833 365.5,231.167 365.5,236.5C 365.5,241.167 365.5,245.833 365.5,250.5C 365.5,255.5 365.5,260.5 365.5,265.5C 365.5,270.167 365.5,274.833 365.5,279.5C 365.5,285.167 365.5,290.833 365.5,296.5C 365.5,301.833 365.5,307.167 365.5,312.5C 365.5,316.833 365.5,321.167 365.5,325.5C 365.5,330.5 365.5,335.5 365.5,340.5C 365.5,345.167 365.5,349.833 365.5,354.5C 365.5,360.167 365.5,365.833 365.5,371.5C 365.5,373.167 365.5,374.833 365.5,376.5C 322.997,376.832 280.663,376.499 238.5,375.5C 280.5,375.5 322.5,375.5 364.5,375.5C 364.168,323.664 364.501,271.997 365.5,220.5 Z"/></g>
<g><path style="opacity:0.997" fill="#5392e9" d="M 35.5,387.5 C 67.5,387.5 99.5,387.5 131.5,387.5C 131.5,391.5 131.5,395.5 131.5,399.5C 214.167,399.5 296.833,399.5 379.5,399.5C 379.5,395.5 379.5,391.5 379.5,387.5C 411.338,387.168 443.004,387.502 474.5,388.5C 471.22,394.441 467.553,400.108 463.5,405.5C 324.736,404.168 186.069,404.168 47.5,405.5C 43.141,399.795 39.141,393.795 35.5,387.5 Z"/></g>
<g><path style="opacity:1" fill="#b6d2f4" d="M 132.5,382.5 C 132.5,387.833 132.5,393.167 132.5,398.5C 214.5,398.5 296.5,398.5 378.5,398.5C 378.5,393.167 378.5,387.833 378.5,382.5C 379.451,383.919 379.784,385.585 379.5,387.5C 379.5,391.5 379.5,395.5 379.5,399.5C 296.833,399.5 214.167,399.5 131.5,399.5C 131.5,395.5 131.5,391.5 131.5,387.5C 131.216,385.585 131.549,383.919 132.5,382.5 Z"/></g>
<g><path style="opacity:1" fill="#fefffd" d="M 132.5,382.5 C 214.5,382.5 296.5,382.5 378.5,382.5C 378.5,387.833 378.5,393.167 378.5,398.5C 296.5,398.5 214.5,398.5 132.5,398.5C 132.5,393.167 132.5,387.833 132.5,382.5 Z"/></g>
<g><path style="opacity:0.998" fill="#4d98e8" d="M 463.5,405.5 C 460.305,410.569 456.638,415.235 452.5,419.5C 321.001,418.5 189.334,418.167 57.5,418.5C 53.9358,414.386 50.6025,410.052 47.5,405.5C 186.069,404.168 324.736,404.168 463.5,405.5 Z"/></g>
<g><path style="opacity:0.999" fill="#489be8" d="M 57.5,418.5 C 189.334,418.167 321.001,418.5 452.5,419.5C 450.628,422.582 448.295,425.249 445.5,427.5C 318.668,426.5 191.668,426.167 64.5,426.5C 62.1765,423.874 59.8432,421.207 57.5,418.5 Z"/></g>
<g><path style="opacity:0.998" fill="#43a0e7" d="M 64.5,426.5 C 191.668,426.167 318.668,426.5 445.5,427.5C 441.5,432.167 437.167,436.5 432.5,440.5C 314.5,440.5 196.5,440.5 78.5,440.5C 73.5,436.167 68.8333,431.5 64.5,426.5 Z"/></g>
<g><path style="opacity:0.997" fill="#3fa3e6" d="M 78.5,440.5 C 196.5,440.5 314.5,440.5 432.5,440.5C 430.167,443.5 427.5,446.167 424.5,448.5C 311.57,447.502 198.57,447.169 85.5,447.5C 82.8333,445.5 80.5,443.167 78.5,440.5 Z"/></g>
<g><path style="opacity:0.998" fill="#3ba7e6" d="M 85.5,447.5 C 198.57,447.169 311.57,447.502 424.5,448.5C 419.123,453.21 413.457,457.543 407.5,461.5C 306.167,461.5 204.833,461.5 103.5,461.5C 97.1294,457.314 91.1294,452.647 85.5,447.5 Z"/></g>
<g><path style="opacity:0.996" fill="#35ace5" d="M 103.5,461.5 C 204.833,461.5 306.167,461.5 407.5,461.5C 399.067,468.251 390.067,474.251 380.5,479.5C 297.5,478.167 214.5,478.167 131.5,479.5C 121.356,474.675 112.022,468.675 103.5,461.5 Z"/></g>
<g><path style="opacity:0.993" fill="#2eb2e4" d="M 380.5,479.5 C 370.564,485.301 360.231,490.301 349.5,494.5C 285.973,493.823 222.306,493.156 158.5,492.5C 148.801,489.483 139.801,485.149 131.5,479.5C 214.5,478.167 297.5,478.167 380.5,479.5 Z"/></g>
<g><path style="opacity:0.984" fill="#28b8e3" d="M 158.5,492.5 C 222.306,493.156 285.973,493.823 349.5,494.5C 326.439,503.183 302.773,508.85 278.5,511.5C 263.167,511.5 247.833,511.5 232.5,511.5C 206.88,508.928 182.213,502.595 158.5,492.5 Z"/></g>
</svg>
