<?xml version="1.0" encoding="UTF-8"?>
<!DOCTYPE svg PUBLIC "-//W3C//DTD SVG 1.1//EN" "http://www.w3.org/Graphics/SVG/1.1/DTD/svg11.dtd">
<svg xmlns="http://www.w3.org/2000/svg" version="1.1" width="512px" height="512px" style="shape-rendering:geometricPrecision; text-rendering:geometricPrecision; image-rendering:optimizeQuality; fill-rule:evenodd; clip-rule:evenodd" xmlns:xlink="http://www.w3.org/1999/xlink">
<g><path style="opacity:0.991" fill="#f109fd" d="M 232.5,-0.5 C 247.833,-0.5 263.167,-0.5 278.5,-0.5C 307.769,2.4843 335.769,10.151 362.5,22.5C 291.665,22.8325 220.998,22.4992 150.5,21.5C 176.746,9.77337 204.079,2.44003 232.5,-0.5 Z"/></g>
<g><path style="opacity:0.994" fill="#ea0ffc" d="M 150.5,21.5 C 220.998,22.4992 291.665,22.8325 362.5,22.5C 373.599,26.9705 383.933,32.6371 393.5,39.5C 393.565,39.9382 393.399,40.2716 393,40.5C 301.736,39.8346 210.569,39.1679 119.5,38.5C 129.023,31.5674 139.357,25.9007 150.5,21.5 Z"/></g>
<g><path style="opacity:0.996" fill="#e315fb" d="M 119.5,38.5 C 210.569,39.1679 301.736,39.8346 393,40.5C 393.399,40.2716 393.565,39.9382 393.5,39.5C 400.554,43.6868 407.221,48.3534 413.5,53.5C 307.904,54.4977 202.237,54.831 96.5,54.5C 103.61,48.3946 111.276,43.0612 119.5,38.5 Z"/></g>
<g><path style="opacity:0.997" fill="#dd1afa" d="M 413.5,53.5 C 419.489,58.1569 425.156,63.1569 430.5,68.5C 313.999,68.8329 197.665,68.4995 81.5,67.5C 86.1793,62.8223 91.1793,58.489 96.5,54.5C 202.237,54.831 307.904,54.4977 413.5,53.5 Z"/></g>
<g><path style="opacity:0.998" fill="#d620fa" d="M 81.5,67.5 C 197.665,68.4995 313.999,68.8329 430.5,68.5C 435.833,73.1667 440.833,78.1667 445.5,83.5C 319.001,84.3331 192.334,84.8331 65.5,85C 64.7562,86.0386 63.7562,86.5386 62.5,86.5C 68.5,79.8333 74.8333,73.5 81.5,67.5 Z"/></g>
<g><path style="opacity:0.999" fill="#d124f9" d="M 445.5,83.5 C 449.513,87.5149 453.179,91.8482 456.5,96.5C 322.5,97.8333 188.5,97.8333 54.5,96.5C 56.8171,92.8536 59.4838,89.5203 62.5,86.5C 63.7562,86.5386 64.7562,86.0386 65.5,85C 192.334,84.8331 319.001,84.3331 445.5,83.5 Z"/></g>
<g><path style="opacity:0.998" fill="#cb2af8" d="M 54.5,96.5 C 188.5,97.8333 322.5,97.8333 456.5,96.5C 461.576,101.918 465.909,107.918 469.5,114.5C 326.833,114.5 184.167,114.5 41.5,114.5C 45.0908,107.918 49.4242,101.918 54.5,96.5 Z"/></g>
<g><path style="opacity:0.999" fill="#c42ff7" d="M 41.5,114.5 C 184.167,114.5 326.833,114.5 469.5,114.5C 472.916,118.323 475.582,122.657 477.5,127.5C 329.504,129.498 181.17,130.165 32.5,129.5C 34.7487,123.995 37.7487,118.995 41.5,114.5 Z"/></g>
<g><path style="opacity:0.998" fill="#be35f6" d="M 477.5,127.5 C 480.927,132.016 483.593,137.016 485.5,142.5C 332.167,143.833 178.833,143.833 25.5,142.5C 27.0741,137.68 29.4074,133.347 32.5,129.5C 181.17,130.165 329.504,129.498 477.5,127.5 Z"/></g>
<g><path style="opacity:0.998" fill="#b83af6" d="M 25.5,142.5 C 178.833,143.833 332.167,143.833 485.5,142.5C 488.351,147.541 490.684,152.875 492.5,158.5C 417.5,158.5 342.5,158.5 267.5,158.5C 260.37,155.767 253.37,152.767 246.5,149.5C 239.6,152.785 232.6,155.785 225.5,158.5C 156.5,158.5 87.5,158.5 18.5,158.5C 20.0711,152.77 22.4044,147.437 25.5,142.5 Z"/></g>
<g><path style="opacity:1" fill="#f9f8fd" d="M 267.5,158.5 C 279.406,164.951 291.739,170.617 304.5,175.5C 314.856,181.01 325.523,186.01 336.5,190.5C 346.432,195.928 356.766,200.594 367.5,204.5C 372.827,207.83 378.494,210.663 384.5,213C 385.423,215.041 385.756,217.208 385.5,219.5C 385.5,225.167 385.5,230.833 385.5,236.5C 385.5,241.167 385.5,245.833 385.5,250.5C 391.716,250.409 396.883,252.743 401,257.5C 401.791,258.745 402.291,260.078 402.5,261.5C 402.5,272.833 402.5,284.167 402.5,295.5C 402.76,301.172 403.093,306.839 403.5,312.5C 403.5,316.833 403.5,321.167 403.5,325.5C 403.26,331.313 400.927,335.98 396.5,339.5C 386.819,343.46 377.152,343.46 367.5,339.5C 365.164,337.996 363.331,335.996 362,333.5C 360.661,326.574 360.161,319.574 360.5,312.5C 360.417,301.484 360.751,290.484 361.5,279.5C 361.071,272.053 361.571,264.719 363,257.5C 367.225,252.799 372.391,250.466 378.5,250.5C 378.666,240.494 378.5,230.494 378,220.5C 363.241,227.131 348.741,234.131 334.5,241.5C 333.172,263.337 333.172,285.337 334.5,307.5C 336.521,308.855 338.188,310.521 339.5,312.5C 339.91,318.621 339.41,324.621 338,330.5C 332.745,333.879 327.245,336.879 321.5,339.5C 310.242,344.363 298.909,349.03 287.5,353.5C 260.136,364.14 232.802,364.14 205.5,353.5C 193.934,349.383 182.601,344.717 171.5,339.5C 164.993,337.33 159.16,333.997 154,329.5C 153.51,328.207 153.343,326.873 153.5,325.5C 153.5,321.167 153.5,316.833 153.5,312.5C 154.109,310.057 155.609,308.39 158,307.5C 158.499,303.848 158.665,300.182 158.5,296.5C 158.5,290.833 158.5,285.167 158.5,279.5C 158.5,274.833 158.5,270.167 158.5,265.5C 158.5,260.5 158.5,255.5 158.5,250.5C 158.82,247.102 158.487,243.768 157.5,240.5C 153.926,238.545 150.26,236.878 146.5,235.5C 134.286,229.56 121.953,223.893 109.5,218.5C 107.353,217.068 107.02,215.235 108.5,213C 114.314,210.243 119.981,207.41 125.5,204.5C 136.079,200.204 146.412,195.537 156.5,190.5C 167.477,186.01 178.144,181.01 188.5,175.5C 201.261,170.617 213.594,164.951 225.5,158.5C 232.6,155.785 239.6,152.785 246.5,149.5C 253.37,152.767 260.37,155.767 267.5,158.5 Z"/></g>
<g><path style="opacity:0.998" fill="#b240f5" d="M 18.5,158.5 C 87.5,158.5 156.5,158.5 225.5,158.5C 213.594,164.951 201.261,170.617 188.5,175.5C 129.664,175.832 70.9976,175.499 12.5,174.5C 13.5361,168.715 15.5361,163.382 18.5,158.5 Z"/></g>
<g><path style="opacity:0.998" fill="#b240f5" d="M 267.5,158.5 C 342.5,158.5 417.5,158.5 492.5,158.5C 495.464,163.382 497.464,168.715 498.5,174.5C 434.002,175.499 369.335,175.832 304.5,175.5C 291.739,170.617 279.406,164.951 267.5,158.5 Z"/></g>
<g><path style="opacity:0.998" fill="#ab46f4" d="M 498.5,174.5 C 500.461,178.982 502.128,183.649 503.5,188.5C 448.049,190.489 392.383,191.156 336.5,190.5C 325.523,186.01 314.856,181.01 304.5,175.5C 369.335,175.832 434.002,175.499 498.5,174.5 Z"/></g>
<g><path style="opacity:0.998" fill="#ab46f4" d="M 12.5,174.5 C 70.9976,175.499 129.664,175.832 188.5,175.5C 178.144,181.01 167.477,186.01 156.5,190.5C 106.833,190.5 57.1667,190.5 7.5,190.5C 8.56599,184.88 10.2327,179.547 12.5,174.5 Z"/></g>
<g><path style="opacity:1" fill="#ac46f4" d="M 317.5,189.5 C 269.833,190.833 222.167,190.833 174.5,189.5C 198.474,178.514 222.474,167.514 246.5,156.5C 270.281,167.313 293.948,178.313 317.5,189.5 Z"/></g>
<g><path style="opacity:0.998" fill="#a64bf3" d="M 7.5,190.5 C 57.1667,190.5 106.833,190.5 156.5,190.5C 146.412,195.537 136.079,200.204 125.5,204.5C 85.1667,204.5 44.8333,204.5 4.5,204.5C 4.87378,199.675 5.87378,195.008 7.5,190.5 Z"/></g>
<g><path style="opacity:0.999" fill="#a64bf3" d="M 503.5,188.5 C 504.818,193.773 505.818,199.107 506.5,204.5C 460.167,204.5 413.833,204.5 367.5,204.5C 356.766,200.594 346.432,195.928 336.5,190.5C 392.383,191.156 448.049,190.489 503.5,188.5 Z"/></g>
<g><path style="opacity:1" fill="#a44cf3" d="M 174.5,189.5 C 222.167,190.833 269.833,190.833 317.5,189.5C 327.952,193.892 338.285,198.559 348.5,203.5C 280.5,204.833 212.5,204.833 144.5,203.5C 154.5,198.833 164.5,194.167 174.5,189.5 Z"/></g>
<g><path style="opacity:0.996" fill="#9f50f2" d="M 4.5,204.5 C 44.8333,204.5 85.1667,204.5 125.5,204.5C 119.981,207.41 114.314,210.243 108.5,213C 107.02,215.235 107.353,217.068 109.5,218.5C 73.5977,219.173 37.5977,219.84 1.5,220.5C 1.87113,214.924 2.87113,209.591 4.5,204.5 Z"/></g>
<g><path style="opacity:1" fill="#9f50f2" d="M 144.5,203.5 C 212.5,204.833 280.5,204.833 348.5,203.5C 356.262,206.88 363.929,210.547 371.5,214.5C 372.833,215.167 372.833,215.833 371.5,216.5C 369.261,217.788 366.928,218.788 364.5,219.5C 285.833,219.5 207.167,219.5 128.5,219.5C 125.157,218.941 122.157,217.608 119.5,215.5C 127.707,211.23 136.04,207.23 144.5,203.5 Z"/></g>
<g><path style="opacity:0.997" fill="#9f50f2" d="M 367.5,204.5 C 413.833,204.5 460.167,204.5 506.5,204.5C 508.236,209.911 509.236,215.578 509.5,221.5C 468.386,219.514 427.053,218.848 385.5,219.5C 385.756,217.208 385.423,215.041 384.5,213C 378.494,210.663 372.827,207.83 367.5,204.5 Z"/></g>
<g><path style="opacity:0.997" fill="#9956f2" d="M 109.5,218.5 C 121.953,223.893 134.286,229.56 146.5,235.5C 97.6695,236.499 48.6695,236.832 -0.5,236.5C -0.5,235.167 -0.5,233.833 -0.5,232.5C 0.293656,228.642 0.960323,224.642 1.5,220.5C 37.5977,219.84 73.5977,219.173 109.5,218.5 Z"/></g>
<g><path style="opacity:1" fill="#9956f2" d="M 128.5,219.5 C 207.167,219.5 285.833,219.5 364.5,219.5C 352.355,225.403 340.022,231.07 327.5,236.5C 273.5,236.5 219.5,236.5 165.5,236.5C 152.739,231.617 140.406,225.951 128.5,219.5 Z"/></g>
<g><path style="opacity:0.998" fill="#9955f2" d="M 385.5,219.5 C 427.053,218.848 468.386,219.514 509.5,221.5C 510.026,225.312 510.693,228.979 511.5,232.5C 511.5,233.833 511.5,235.167 511.5,236.5C 469.5,236.5 427.5,236.5 385.5,236.5C 385.5,230.833 385.5,225.167 385.5,219.5 Z"/></g>
<g><path style="opacity:0.998" fill="#925bf1" d="M 146.5,235.5 C 150.26,236.878 153.926,238.545 157.5,240.5C 158.487,243.768 158.82,247.102 158.5,250.5C 105.5,250.5 52.5,250.5 -0.5,250.5C -0.5,245.833 -0.5,241.167 -0.5,236.5C 48.6695,236.832 97.6695,236.499 146.5,235.5 Z"/></g>
<g><path style="opacity:1" fill="#935cf1" d="M 165.5,236.5 C 219.5,236.5 273.5,236.5 327.5,236.5C 317.412,241.537 307.079,246.204 296.5,250.5C 263.329,250.168 230.329,250.502 197.5,251.5C 186.523,247.01 175.856,242.01 165.5,236.5 Z"/></g>
<g><path style="opacity:1" fill="#945bf1" d="M 378.5,250.5 C 363.833,250.5 349.167,250.5 334.5,250.5C 334.5,247.5 334.5,244.5 334.5,241.5C 348.741,234.131 363.241,227.131 378,220.5C 378.5,230.494 378.666,240.494 378.5,250.5 Z"/></g>
<g><path style="opacity:0.997" fill="#925bf1" d="M 385.5,236.5 C 427.5,236.5 469.5,236.5 511.5,236.5C 511.5,241.167 511.5,245.833 511.5,250.5C 469.5,250.5 427.5,250.5 385.5,250.5C 385.5,245.833 385.5,241.167 385.5,236.5 Z"/></g>
<g><path style="opacity:1" fill="#8c60f0" d="M -0.5,250.5 C 52.5,250.5 105.5,250.5 158.5,250.5C 158.5,255.5 158.5,260.5 158.5,265.5C 105.5,265.5 52.5,265.5 -0.5,265.5C -0.5,260.5 -0.5,255.5 -0.5,250.5 Z"/></g>
<g><path style="opacity:1" fill="#8d62f0" d="M 296.5,250.5 C 280.142,258.676 263.476,266.343 246.5,273.5C 229.742,266.951 213.409,259.618 197.5,251.5C 230.329,250.502 263.329,250.168 296.5,250.5 Z"/></g>
<g><path style="opacity:0.999" fill="#8c61f0" d="M 385.5,250.5 C 427.5,250.5 469.5,250.5 511.5,250.5C 511.5,255.5 511.5,260.5 511.5,265.5C 475.5,265.5 439.5,265.5 403.5,265.5C 403.768,263.901 403.434,262.568 402.5,261.5C 402.291,260.078 401.791,258.745 401,257.5C 396.883,252.743 391.716,250.409 385.5,250.5 Z"/></g>
<g><path style="opacity:0.998" fill="#8666ef" d="M -0.5,265.5 C 52.5,265.5 105.5,265.5 158.5,265.5C 158.5,270.167 158.5,274.833 158.5,279.5C 105.833,279.5 53.1667,279.5 0.5,279.5C 0.5,278.833 0.166667,278.5 -0.5,278.5C -0.5,274.167 -0.5,269.833 -0.5,265.5 Z"/></g>
<g><path style="opacity:1" fill="#8865ef" d="M 240.5,278.5 C 215.672,279.498 190.672,279.831 165.5,279.5C 165.168,267.814 165.501,256.148 166.5,244.5C 191.188,255.845 215.855,267.178 240.5,278.5 Z"/></g>
<g><path style="opacity:1" fill="#8865ef" d="M 325.5,245.5 C 326.495,256.654 326.828,267.988 326.5,279.5C 301.661,279.831 276.994,279.498 252.5,278.5C 276.71,267.228 301.043,256.228 325.5,245.5 Z"/></g>
<g><path style="opacity:1" fill="#8864ef" d="M 334.5,250.5 C 349.167,250.5 363.833,250.5 378.5,250.5C 372.391,250.466 367.225,252.799 363,257.5C 361.571,264.719 361.071,272.053 361.5,279.5C 352.5,279.5 343.5,279.5 334.5,279.5C 334.5,269.833 334.5,260.167 334.5,250.5 Z"/></g>
<g><path style="opacity:1" fill="#8666ef" d="M 395.5,261.5 C 395.5,269.5 395.5,277.5 395.5,285.5C 386.5,285.5 377.5,285.5 368.5,285.5C 368.5,277.5 368.5,269.5 368.5,261.5C 368.953,260.542 369.619,259.708 370.5,259C 378.167,258.333 385.833,258.333 393.5,259C 394.381,259.708 395.047,260.542 395.5,261.5 Z"/></g>
<g><path style="opacity:0.996" fill="#8666ef" d="M 403.5,265.5 C 439.5,265.5 475.5,265.5 511.5,265.5C 511.5,269.833 511.5,274.167 511.5,278.5C 510.833,278.5 510.5,278.833 510.5,279.5C 474.833,279.5 439.167,279.5 403.5,279.5C 403.5,274.833 403.5,270.167 403.5,265.5 Z"/></g>
<g><path style="opacity:0.998" fill="#7f6bee" d="M 0.5,279.5 C 53.1667,279.5 105.833,279.5 158.5,279.5C 158.5,285.167 158.5,290.833 158.5,296.5C 106.5,296.5 54.5,296.5 2.5,296.5C 1.26407,290.943 0.597401,285.277 0.5,279.5 Z"/></g>
<g><path style="opacity:1" fill="#806cee" d="M 325.5,245.5 C 325.56,244.957 325.893,244.624 326.5,244.5C 327.499,257.149 327.832,269.816 327.5,282.5C 326.514,286.97 326.181,291.637 326.5,296.5C 272.833,296.5 219.167,296.5 165.5,296.5C 165.5,290.833 165.5,285.167 165.5,279.5C 190.672,279.831 215.672,279.498 240.5,278.5C 244.5,281.167 248.5,281.167 252.5,278.5C 276.994,279.498 301.661,279.831 326.5,279.5C 326.828,267.988 326.495,256.654 325.5,245.5 Z"/></g>
<g><path style="opacity:0.997" fill="#806cee" d="M 402.5,261.5 C 403.434,262.568 403.768,263.901 403.5,265.5C 403.5,270.167 403.5,274.833 403.5,279.5C 439.167,279.5 474.833,279.5 510.5,279.5C 510.403,285.277 509.736,290.943 508.5,296.5C 473.094,296.826 437.76,296.493 402.5,295.5C 402.5,284.167 402.5,272.833 402.5,261.5 Z"/></g>
<g><path style="opacity:1" fill="#b4a4f5" d="M 368.5,261.5 C 368.5,269.5 368.5,277.5 368.5,285.5C 377.5,285.5 386.5,285.5 395.5,285.5C 395.5,277.5 395.5,269.5 395.5,261.5C 396.493,269.65 396.826,277.983 396.5,286.5C 386.833,286.5 377.167,286.5 367.5,286.5C 367.174,277.983 367.507,269.65 368.5,261.5 Z"/></g>
<g><path style="opacity:0.998" fill="#7971ee" d="M 2.5,296.5 C 54.5,296.5 106.5,296.5 158.5,296.5C 158.665,300.182 158.499,303.848 158,307.5C 155.609,308.39 154.109,310.057 153.5,312.5C 103.949,311.845 54.6161,312.512 5.5,314.5C 4.24235,308.545 3.24235,302.545 2.5,296.5 Z"/></g>
<g><path style="opacity:1" fill="#7971ee" d="M 327.5,282.5 C 327.666,291.173 327.5,299.84 327,308.5C 324.341,310.246 321.508,311.58 318.5,312.5C 270.5,312.5 222.5,312.5 174.5,312.5C 171.854,311.513 169.188,310.513 166.5,309.5C 165.508,305.217 165.174,300.884 165.5,296.5C 219.167,296.5 272.833,296.5 326.5,296.5C 326.181,291.637 326.514,286.97 327.5,282.5 Z"/></g>
<g><path style="opacity:1" fill="#7f72ee" d="M 334.5,241.5 C 334.5,244.5 334.5,247.5 334.5,250.5C 334.5,260.167 334.5,269.833 334.5,279.5C 343.5,279.5 352.5,279.5 361.5,279.5C 360.751,290.484 360.417,301.484 360.5,312.5C 353.5,312.5 346.5,312.5 339.5,312.5C 338.188,310.521 336.521,308.855 334.5,307.5C 333.172,285.337 333.172,263.337 334.5,241.5 Z"/></g>
<g><path style="opacity:0.998" fill="#7971ee" d="M 402.5,295.5 C 437.76,296.493 473.094,296.826 508.5,296.5C 508.008,301.959 507.008,307.292 505.5,312.5C 471.5,312.5 437.5,312.5 403.5,312.5C 403.093,306.839 402.76,301.172 402.5,295.5 Z"/></g>
<g><path style="opacity:0.999" fill="#7377ec" d="M 153.5,312.5 C 153.5,316.833 153.5,321.167 153.5,325.5C 105.33,325.168 57.3304,325.501 9.5,326.5C 7.87229,322.681 6.53895,318.681 5.5,314.5C 54.6161,312.512 103.949,311.845 153.5,312.5 Z"/></g>
<g><path style="opacity:1" fill="#7378ed" d="M 174.5,312.5 C 222.5,312.5 270.5,312.5 318.5,312.5C 295.695,324.655 271.362,331.988 245.5,334.5C 220.28,332.05 196.613,324.716 174.5,312.5 Z"/></g>
<g><path style="opacity:1" fill="#7879ed" d="M 367.5,292.5 C 369.167,292.5 370.833,292.5 372.5,292.5C 372.667,306.504 372.5,320.504 372,334.5C 369.402,333.32 367.736,331.32 367,328.5C 366.763,316.5 366.93,304.5 367.5,292.5 Z"/></g>
<g><path style="opacity:1" fill="#7476ed" d="M 379.5,292.5 C 381.167,292.5 382.833,292.5 384.5,292.5C 384.5,306.833 384.5,321.167 384.5,335.5C 382.833,335.5 381.167,335.5 379.5,335.5C 379.5,321.167 379.5,306.833 379.5,292.5 Z"/></g>
<g><path style="opacity:1" fill="#7677ed" d="M 391.5,292.5 C 393.167,292.5 394.833,292.5 396.5,292.5C 396.667,305.171 396.5,317.838 396,330.5C 394.667,331.833 393.333,333.167 392,334.5C 391.5,320.504 391.333,306.504 391.5,292.5 Z"/></g>
<g><path style="opacity:0.998" fill="#7377ed" d="M 403.5,312.5 C 437.5,312.5 471.5,312.5 505.5,312.5C 504.657,316.873 503.657,321.207 502.5,325.5C 469.5,325.5 436.5,325.5 403.5,325.5C 403.5,321.167 403.5,316.833 403.5,312.5 Z"/></g>
<g><path style="opacity:0.997" fill="#6e7bec" d="M 153.5,325.5 C 153.343,326.873 153.51,328.207 154,329.5C 159.16,333.997 164.993,337.33 171.5,339.5C 118.992,339.835 66.6587,340.835 14.5,342.5C 12.057,337.5 10.3904,332.166 9.5,326.5C 57.3304,325.501 105.33,325.168 153.5,325.5 Z"/></g>
<g><path style="opacity:0.996" fill="#6d7cec" d="M 403.5,325.5 C 436.5,325.5 469.5,325.5 502.5,325.5C 501.035,330.563 499.368,335.563 497.5,340.5C 463.663,340.832 429.996,340.498 396.5,339.5C 400.927,335.98 403.26,331.313 403.5,325.5 Z"/></g>
<g><path style="opacity:1" fill="#6f7cec" d="M 339.5,312.5 C 346.5,312.5 353.5,312.5 360.5,312.5C 360.161,319.574 360.661,326.574 362,333.5C 363.331,335.996 365.164,337.996 367.5,339.5C 352.167,340.833 336.833,340.833 321.5,339.5C 327.245,336.879 332.745,333.879 338,330.5C 339.41,324.621 339.91,318.621 339.5,312.5 Z"/></g>
<g><path style="opacity:0.998" fill="#6781eb" d="M 171.5,339.5 C 182.601,344.717 193.934,349.383 205.5,353.5C 143.336,354.499 81.0022,354.832 18.5,354.5C 16.9651,350.562 15.6318,346.562 14.5,342.5C 66.6587,340.835 118.992,339.835 171.5,339.5 Z"/></g>
<g><path style="opacity:1" fill="#6d7fec" d="M 331.5,313.5 C 332.812,318.015 332.812,322.682 331.5,327.5C 311.834,337.333 291.501,345.5 270.5,352C 253.08,355.595 235.747,355.261 218.5,351C 198.895,344.632 179.895,336.798 161.5,327.5C 160.508,323.217 160.174,318.884 160.5,314.5C 176.355,321.257 192.355,327.757 208.5,334C 229.859,341.441 251.526,342.441 273.5,337C 293.614,330.802 312.948,322.969 331.5,313.5 Z"/></g>
<g><path style="opacity:0.998" fill="#6781eb" d="M 321.5,339.5 C 336.833,340.833 352.167,340.833 367.5,339.5C 377.152,343.46 386.819,343.46 396.5,339.5C 429.996,340.498 463.663,340.832 497.5,340.5C 495.871,345.735 493.871,350.735 491.5,355.5C 423.5,354.833 355.5,354.167 287.5,353.5C 298.909,349.03 310.242,344.363 321.5,339.5 Z"/></g>
<g><path style="opacity:0.999" fill="#6186ea" d="M 205.5,353.5 C 232.802,364.14 260.136,364.14 287.5,353.5C 355.5,354.167 423.5,354.833 491.5,355.5C 489.714,361.072 487.381,366.405 484.5,371.5C 331.833,371.5 179.167,371.5 26.5,371.5C 23.5602,365.954 20.8935,360.287 18.5,354.5C 81.0022,354.832 143.336,354.499 205.5,353.5 Z"/></g>
<g><path style="opacity:0.998" fill="#5a8cea" d="M 26.5,371.5 C 179.167,371.5 331.833,371.5 484.5,371.5C 481.404,377.367 478.071,383.033 474.5,388.5C 328.334,387.5 182.001,387.167 35.5,387.5C 32.5,382.167 29.5,376.833 26.5,371.5 Z"/></g>
<g><path style="opacity:0.999" fill="#5392e9" d="M 35.5,387.5 C 182.001,387.167 328.334,387.5 474.5,388.5C 471.22,394.441 467.553,400.108 463.5,405.5C 324.736,404.168 186.069,404.168 47.5,405.5C 43.141,399.795 39.141,393.795 35.5,387.5 Z"/></g>
<g><path style="opacity:0.998" fill="#4d98e8" d="M 463.5,405.5 C 460.305,410.569 456.638,415.235 452.5,419.5C 321.001,418.5 189.334,418.167 57.5,418.5C 53.9358,414.386 50.6025,410.052 47.5,405.5C 186.069,404.168 324.736,404.168 463.5,405.5 Z"/></g>
<g><path style="opacity:0.999" fill="#489ce8" d="M 57.5,418.5 C 189.334,418.167 321.001,418.5 452.5,419.5C 450.628,422.582 448.295,425.249 445.5,427.5C 318.668,426.5 191.668,426.167 64.5,426.5C 62.1765,423.874 59.8432,421.207 57.5,418.5 Z"/></g>
<g><path style="opacity:0.998" fill="#459ee6" d="M 64.5,426.5 C 191.668,426.167 318.668,426.5 445.5,427.5C 444.167,429.5 442.5,431.167 440.5,432.5C 317.167,432.5 193.833,432.5 70.5,432.5C 68.1667,430.833 66.1667,428.833 64.5,426.5 Z"/></g>
<g><path style="opacity:0.998" fill="#42a0e7" d="M 70.5,432.5 C 193.833,432.5 317.167,432.5 440.5,432.5C 438.167,435.5 435.5,438.167 432.5,440.5C 314.5,440.5 196.5,440.5 78.5,440.5C 75.5,438.167 72.8333,435.5 70.5,432.5 Z"/></g>
<g><path style="opacity:0.997" fill="#3fa3e6" d="M 78.5,440.5 C 196.5,440.5 314.5,440.5 432.5,440.5C 430.167,443.5 427.5,446.167 424.5,448.5C 311.57,447.502 198.57,447.169 85.5,447.5C 82.8333,445.5 80.5,443.167 78.5,440.5 Z"/></g>
<g><path style="opacity:0.998" fill="#3ba7e6" d="M 85.5,447.5 C 198.57,447.169 311.57,447.502 424.5,448.5C 419.123,453.21 413.457,457.543 407.5,461.5C 306.167,461.5 204.833,461.5 103.5,461.5C 97.1294,457.314 91.1294,452.647 85.5,447.5 Z"/></g>
<g><path style="opacity:0.996" fill="#35ace5" d="M 103.5,461.5 C 204.833,461.5 306.167,461.5 407.5,461.5C 399.067,468.251 390.067,474.251 380.5,479.5C 297.5,478.167 214.5,478.167 131.5,479.5C 121.356,474.675 112.022,468.675 103.5,461.5 Z"/></g>
<g><path style="opacity:0.993" fill="#2eb2e4" d="M 380.5,479.5 C 370.564,485.301 360.231,490.301 349.5,494.5C 285.973,493.823 222.306,493.156 158.5,492.5C 148.801,489.483 139.801,485.149 131.5,479.5C 214.5,478.167 297.5,478.167 380.5,479.5 Z"/></g>
<g><path style="opacity:0.984" fill="#28b8e3" d="M 158.5,492.5 C 222.306,493.156 285.973,493.823 349.5,494.5C 326.439,503.183 302.773,508.85 278.5,511.5C 263.167,511.5 247.833,511.5 232.5,511.5C 206.88,508.928 182.213,502.595 158.5,492.5 Z"/></g>
</svg>
