<?xml version="1.0" encoding="UTF-8"?>
<!DOCTYPE svg PUBLIC "-//W3C//DTD SVG 1.1//EN" "http://www.w3.org/Graphics/SVG/1.1/DTD/svg11.dtd">
<svg xmlns="http://www.w3.org/2000/svg" version="1.1" width="512px" height="512px" style="shape-rendering:geometricPrecision; text-rendering:geometricPrecision; image-rendering:optimizeQuality; fill-rule:evenodd; clip-rule:evenodd" xmlns:xlink="http://www.w3.org/1999/xlink">
<g><path style="opacity:0.991" fill="#f109fd" d="M 232.5,-0.5 C 247.833,-0.5 263.167,-0.5 278.5,-0.5C 307.769,2.4843 335.769,10.151 362.5,22.5C 291.665,22.8325 220.998,22.4992 150.5,21.5C 176.746,9.77337 204.079,2.44003 232.5,-0.5 Z"/></g>
<g><path style="opacity:0.994" fill="#ea0ffc" d="M 150.5,21.5 C 220.998,22.4992 291.665,22.8325 362.5,22.5C 373.599,26.9705 383.933,32.6371 393.5,39.5C 393.565,39.9382 393.399,40.2716 393,40.5C 301.736,39.8346 210.569,39.1679 119.5,38.5C 129.023,31.5674 139.357,25.9007 150.5,21.5 Z"/></g>
<g><path style="opacity:0.996" fill="#e315fb" d="M 119.5,38.5 C 210.569,39.1679 301.736,39.8346 393,40.5C 393.399,40.2716 393.565,39.9382 393.5,39.5C 400.554,43.6868 407.221,48.3534 413.5,53.5C 307.904,54.4977 202.237,54.831 96.5,54.5C 103.61,48.3946 111.276,43.0612 119.5,38.5 Z"/></g>
<g><path style="opacity:0.997" fill="#dd1afa" d="M 413.5,53.5 C 419.489,58.1569 425.156,63.1569 430.5,68.5C 313.999,68.8329 197.665,68.4995 81.5,67.5C 86.1793,62.8223 91.1793,58.489 96.5,54.5C 202.237,54.831 307.904,54.4977 413.5,53.5 Z"/></g>
<g><path style="opacity:0.998" fill="#d620fa" d="M 81.5,67.5 C 197.665,68.4995 313.999,68.8329 430.5,68.5C 435.833,73.1667 440.833,78.1667 445.5,83.5C 319.001,84.3331 192.334,84.8331 65.5,85C 64.7562,86.0386 63.7562,86.5386 62.5,86.5C 68.5,79.8333 74.8333,73.5 81.5,67.5 Z"/></g>
<g><path style="opacity:0.999" fill="#d124f9" d="M 445.5,83.5 C 449.513,87.5149 453.179,91.8482 456.5,96.5C 322.5,97.8333 188.5,97.8333 54.5,96.5C 56.8171,92.8536 59.4838,89.5203 62.5,86.5C 63.7562,86.5386 64.7562,86.0386 65.5,85C 192.334,84.8331 319.001,84.3331 445.5,83.5 Z"/></g>
<g><path style="opacity:0.998" fill="#cb2af8" d="M 54.5,96.5 C 188.5,97.8333 322.5,97.8333 456.5,96.5C 461.576,101.918 465.909,107.918 469.5,114.5C 326.833,114.5 184.167,114.5 41.5,114.5C 45.0908,107.918 49.4242,101.918 54.5,96.5 Z"/></g>
<g><path style="opacity:0.999" fill="#c42ff7" d="M 41.5,114.5 C 184.167,114.5 326.833,114.5 469.5,114.5C 472.916,118.323 475.582,122.657 477.5,127.5C 329.504,129.498 181.17,130.165 32.5,129.5C 34.7487,123.995 37.7487,118.995 41.5,114.5 Z"/></g>
<g><path style="opacity:0.998" fill="#be36f6" d="M 477.5,127.5 C 481.594,133.351 484.927,139.685 487.5,146.5C 422.069,145.837 356.736,145.17 291.5,144.5C 292.552,144.649 293.552,144.483 294.5,144C 262.342,125.869 234.342,130.702 210.5,158.5C 206.069,158.769 201.735,158.436 197.5,157.5C 196.647,148.254 194.314,139.42 190.5,131C 184.663,130.279 179.997,132.279 176.5,137C 177.758,138.741 178.758,140.574 179.5,142.5C 128.167,143.833 76.8333,143.833 25.5,142.5C 27.0741,137.68 29.4074,133.347 32.5,129.5C 181.17,130.165 329.504,129.498 477.5,127.5 Z"/></g>
<g><path style="opacity:1" fill="#fdf9fd" d="M 197.5,157.5 C 199.399,167.724 200.399,178.058 200.5,188.5C 201.011,192.03 200.344,195.196 198.5,198C 196.559,198.743 194.726,198.576 193,197.5C 192.71,195.08 192.21,192.746 191.5,190.5C 191.612,184.274 190.946,178.274 189.5,172.5C 188.61,166.614 187.277,160.947 185.5,155.5C 184.639,150.557 182.639,146.224 179.5,142.5C 178.758,140.574 177.758,138.741 176.5,137C 179.997,132.279 184.663,130.279 190.5,131C 194.314,139.42 196.647,148.254 197.5,157.5 Z"/></g>
<g><path style="opacity:1" fill="#fcf8fd" d="M 291.5,144.5 C 280.676,147.334 271.676,153 264.5,161.5C 257.329,167.91 249.663,173.577 241.5,178.5C 233.046,183.03 224.046,184.864 214.5,184C 212.579,183.64 210.912,182.806 209.5,181.5C 215.222,175.445 221.556,170.111 228.5,165.5C 232.592,167.812 236.926,168.979 241.5,169C 242.991,164.625 241.324,162.125 236.5,161.5C 235.262,161.19 235.262,160.69 236.5,160C 238.94,158.697 241.44,157.53 244,156.5C 248.023,158.512 252.19,159.679 256.5,160C 258.053,156.549 257.053,154.049 253.5,152.5C 254.912,151.194 256.579,150.36 258.5,150C 263.415,148.584 268.415,147.584 273.5,147C 274.406,145.301 274.739,143.467 274.5,141.5C 264.982,141.129 255.982,143.129 247.5,147.5C 246.682,144.893 246.182,142.226 246,139.5C 243.733,138.065 241.733,138.398 240,140.5C 241.268,148.069 238.435,153.069 231.5,155.5C 230.686,153.234 230.186,150.9 230,148.5C 228.333,147.167 226.667,147.167 225,148.5C 225.009,153.137 224.175,157.471 222.5,161.5C 217.348,165.251 212.348,169.251 207.5,173.5C 206.369,171.926 206.202,170.259 207,168.5C 207.895,165.049 209.062,161.716 210.5,158.5C 234.342,130.702 262.342,125.869 294.5,144C 293.552,144.483 292.552,144.649 291.5,144.5 Z"/></g>
<g><path style="opacity:0.997" fill="#b83af6" d="M 25.5,142.5 C 76.8333,143.833 128.167,143.833 179.5,142.5C 182.639,146.224 184.639,150.557 185.5,155.5C 185.5,156.5 185.5,157.5 185.5,158.5C 129.833,158.5 74.1667,158.5 18.5,158.5C 20.0711,152.77 22.4044,147.437 25.5,142.5 Z"/></g>
<g><path style="opacity:1" fill="#bb43f6" d="M 236.5,161.5 C 231.833,162.833 227.167,162.833 222.5,161.5C 224.175,157.471 225.009,153.137 225,148.5C 226.667,147.167 228.333,147.167 230,148.5C 230.186,150.9 230.686,153.234 231.5,155.5C 238.435,153.069 241.268,148.069 240,140.5C 241.733,138.398 243.733,138.065 246,139.5C 246.182,142.226 246.682,144.893 247.5,147.5C 255.982,143.129 264.982,141.129 274.5,141.5C 274.739,143.467 274.406,145.301 273.5,147C 268.415,147.584 263.415,148.584 258.5,150C 256.579,150.36 254.912,151.194 253.5,152.5C 257.053,154.049 258.053,156.549 256.5,160C 252.19,159.679 248.023,158.512 244,156.5C 241.44,157.53 238.94,158.697 236.5,160C 235.262,160.69 235.262,161.19 236.5,161.5 Z"/></g>
<g><path style="opacity:0.999" fill="#b73bf5" d="M 291.5,144.5 C 356.736,145.17 422.069,145.837 487.5,146.5C 490.345,151.531 492.678,156.864 494.5,162.5C 417.665,162.833 340.998,162.499 264.5,161.5C 271.676,153 280.676,147.334 291.5,144.5 Z"/></g>
<g><path style="opacity:0.998" fill="#b140f5" d="M 185.5,155.5 C 187.277,160.947 188.61,166.614 189.5,172.5C 189.5,173.5 189.5,174.5 189.5,175.5C 130.331,175.832 71.331,175.499 12.5,174.5C 13.5361,168.715 15.5361,163.382 18.5,158.5C 74.1667,158.5 129.833,158.5 185.5,158.5C 185.5,157.5 185.5,156.5 185.5,155.5 Z"/></g>
<g><path style="opacity:0.999" fill="#b041f5" d="M 264.5,161.5 C 340.998,162.499 417.665,162.833 494.5,162.5C 496.762,167.285 498.428,172.285 499.5,177.5C 456.839,178.833 413.839,179.5 370.5,179.5C 327.332,179.5 284.332,179.167 241.5,178.5C 249.663,173.577 257.329,167.91 264.5,161.5 Z"/></g>
<g><path style="opacity:0.999" fill="#ab46f4" d="M 197.5,157.5 C 201.735,158.436 206.069,158.769 210.5,158.5C 209.062,161.716 207.895,165.049 207,168.5C 206.202,170.259 206.369,171.926 207.5,173.5C 212.348,169.251 217.348,165.251 222.5,161.5C 227.167,162.833 231.833,162.833 236.5,161.5C 241.324,162.125 242.991,164.625 241.5,169C 236.926,168.979 232.592,167.812 228.5,165.5C 221.556,170.111 215.222,175.445 209.5,181.5C 210.912,182.806 212.579,183.64 214.5,184C 224.046,184.864 233.046,183.03 241.5,178.5C 284.332,179.167 327.332,179.5 370.5,179.5C 413.839,179.5 456.839,178.833 499.5,177.5C 500.975,181.031 502.308,184.698 503.5,188.5C 453.21,189.829 402.71,190.495 352,190.5C 301.29,190.495 250.79,189.829 200.5,188.5C 200.399,178.058 199.399,167.724 197.5,157.5 Z"/></g>
<g><path style="opacity:0.998" fill="#ab46f4" d="M 189.5,172.5 C 190.946,178.274 191.612,184.274 191.5,190.5C 130.167,190.5 68.8333,190.5 7.5,190.5C 8.56599,184.88 10.2327,179.547 12.5,174.5C 71.331,175.499 130.331,175.832 189.5,175.5C 189.5,174.5 189.5,173.5 189.5,172.5 Z"/></g>
<g><path style="opacity:0.999" fill="#a54bf3" d="M 200.5,188.5 C 250.79,189.829 301.29,190.495 352,190.5C 402.71,190.495 453.21,189.829 503.5,188.5C 504.818,193.773 505.818,199.107 506.5,204.5C 420.167,204.5 333.833,204.5 247.5,204.5C 230.219,198.889 213.052,199.222 196,205.5C 178.92,199.276 161.753,198.943 144.5,204.5C 97.8333,204.5 51.1667,204.5 4.5,204.5C 4.87378,199.675 5.87378,195.008 7.5,190.5C 68.8333,190.5 130.167,190.5 191.5,190.5C 192.21,192.746 192.71,195.08 193,197.5C 194.726,198.576 196.559,198.743 198.5,198C 200.344,195.196 201.011,192.03 200.5,188.5 Z"/></g>
<g><path style="opacity:1" fill="#fefefd" d="M 247.5,204.5 C 255.145,207.824 261.478,212.824 266.5,219.5C 268.5,223.5 270.5,227.5 272.5,231.5C 278.293,246.693 279.96,262.359 277.5,278.5C 275.003,291.991 270.67,304.991 264.5,317.5C 257.156,328.618 248.489,338.784 238.5,348C 233.39,352.722 227.39,355.555 220.5,356.5C 215.003,356.757 210.003,355.257 205.5,352C 202.289,350.652 198.956,349.818 195.5,349.5C 189.43,351.363 183.43,353.53 177.5,356C 172.156,357.019 167.156,356.186 162.5,353.5C 156.549,349.55 150.882,345.217 145.5,340.5C 141.156,335.127 136.823,329.794 132.5,324.5C 130.668,320.164 128.335,316.164 125.5,312.5C 123.146,306.424 120.812,300.424 118.5,294.5C 116.888,288.101 115.555,281.768 114.5,275.5C 114.5,269.5 114.5,263.5 114.5,257.5C 114.5,255.167 114.5,252.833 114.5,250.5C 115.521,245.749 116.855,241.082 118.5,236.5C 120.864,228.77 124.531,221.77 129.5,215.5C 134.005,211.088 139.005,207.422 144.5,204.5C 161.753,198.943 178.92,199.276 196,205.5C 213.052,199.222 230.219,198.889 247.5,204.5 Z"/></g>
<g><path style="opacity:0.997" fill="#a04ff3" d="M 4.5,204.5 C 51.1667,204.5 97.8333,204.5 144.5,204.5C 139.005,207.422 134.005,211.088 129.5,215.5C 87.1667,215.5 44.8333,215.5 2.5,215.5C 2.42993,211.575 3.09659,207.909 4.5,204.5 Z"/></g>
<g><path style="opacity:0.999" fill="#9f50f2" d="M 247.5,204.5 C 333.833,204.5 420.167,204.5 506.5,204.5C 508.236,209.911 509.236,215.578 509.5,221.5C 428.713,219.507 347.713,218.841 266.5,219.5C 261.478,212.824 255.145,207.824 247.5,204.5 Z"/></g>
<g><path style="opacity:0.997" fill="#9955f2" d="M 2.5,215.5 C 44.8333,215.5 87.1667,215.5 129.5,215.5C 124.531,221.77 120.864,228.77 118.5,236.5C 78.8333,236.5 39.1667,236.5 -0.5,236.5C -0.5,235.167 -0.5,233.833 -0.5,232.5C 0.30333,226.804 1.30333,221.137 2.5,215.5 Z"/></g>
<g><path style="opacity:0.999" fill="#9a56f2" d="M 266.5,219.5 C 347.713,218.841 428.713,219.507 509.5,221.5C 510.026,225.312 510.693,228.979 511.5,232.5C 511.5,233.833 511.5,235.167 511.5,236.5C 467.5,236.5 423.5,236.5 379.5,236.5C 364.544,225.942 347.877,222.109 329.5,225C 324.344,225.996 319.344,227.496 314.5,229.5C 302.21,224.784 289.543,223.451 276.5,225.5C 277.456,227.075 278.123,228.742 278.5,230.5C 276.735,231.461 274.735,231.795 272.5,231.5C 270.5,227.5 268.5,223.5 266.5,219.5 Z"/></g>
<g><path style="opacity:1" fill="#fefefd" d="M 379.5,236.5 C 383.254,240.912 386.587,245.578 389.5,250.5C 391.364,255.426 393.031,260.426 394.5,265.5C 395.49,269.772 396.156,274.106 396.5,278.5C 396.5,279.167 396.5,279.833 396.5,280.5C 396.742,290.902 396.075,301.235 394.5,311.5C 392.877,315.978 391.544,320.645 390.5,325.5C 387.93,330.311 385.597,335.311 383.5,340.5C 380.266,344.622 377.266,348.955 374.5,353.5C 369.899,359.77 364.566,365.437 358.5,370.5C 352.683,376.241 345.683,379.575 337.5,380.5C 329.934,377.886 322.267,375.553 314.5,373.5C 312.833,373.667 311.167,373.833 309.5,374C 302.574,378.981 294.907,380.981 286.5,380C 281.12,377.649 276.12,374.816 271.5,371.5C 266.805,366.474 262.139,361.474 257.5,356.5C 255.192,353.185 252.859,349.851 250.5,346.5C 258.356,337.984 265.022,328.65 270.5,318.5C 277.427,306.387 281.76,293.387 283.5,279.5C 284.594,269.201 284.76,258.867 284,248.5C 283.037,242.12 281.204,236.12 278.5,230.5C 278.123,228.742 277.456,227.075 276.5,225.5C 289.543,223.451 302.21,224.784 314.5,229.5C 319.344,227.496 324.344,225.996 329.5,225C 347.877,222.109 364.544,225.942 379.5,236.5 Z"/></g>
<g><path style="opacity:0.997" fill="#925bf1" d="M -0.5,236.5 C 39.1667,236.5 78.8333,236.5 118.5,236.5C 116.855,241.082 115.521,245.749 114.5,250.5C 76.1667,250.5 37.8333,250.5 -0.5,250.5C -0.5,245.833 -0.5,241.167 -0.5,236.5 Z"/></g>
<g><path style="opacity:1" fill="#9962f1" d="M 255.5,229.5 C 257.39,229.297 258.89,229.963 260,231.5C 261.799,236.399 263.299,241.399 264.5,246.5C 262.839,251.231 260.672,251.564 258,247.5C 257.156,243.789 256.156,240.123 255,236.5C 254.297,234.071 254.463,231.738 255.5,229.5 Z"/></g>
<g><path style="opacity:0.997" fill="#925bf1" d="M 379.5,236.5 C 423.5,236.5 467.5,236.5 511.5,236.5C 511.5,241.167 511.5,245.833 511.5,250.5C 470.833,250.5 430.167,250.5 389.5,250.5C 386.587,245.578 383.254,240.912 379.5,236.5 Z"/></g>
<g><path style="opacity:1" fill="#8c60f0" d="M -0.5,250.5 C 37.8333,250.5 76.1667,250.5 114.5,250.5C 114.5,252.833 114.5,255.167 114.5,257.5C 113.527,259.948 113.194,262.615 113.5,265.5C 75.5,265.5 37.5,265.5 -0.5,265.5C -0.5,260.5 -0.5,255.5 -0.5,250.5 Z"/></g>
<g><path style="opacity:0.999" fill="#8c60f0" d="M 389.5,250.5 C 430.167,250.5 470.833,250.5 511.5,250.5C 511.5,255.5 511.5,260.5 511.5,265.5C 472.5,265.5 433.5,265.5 394.5,265.5C 393.031,260.426 391.364,255.426 389.5,250.5 Z"/></g>
<g><path style="opacity:0.997" fill="#8666ef" d="M 114.5,257.5 C 114.5,263.5 114.5,269.5 114.5,275.5C 114.5,276.833 114.5,278.167 114.5,279.5C 76.5,279.5 38.5,279.5 0.5,279.5C 0.5,278.833 0.166667,278.5 -0.5,278.5C -0.5,274.167 -0.5,269.833 -0.5,265.5C 37.5,265.5 75.5,265.5 113.5,265.5C 113.194,262.615 113.527,259.948 114.5,257.5 Z"/></g>
<g><path style="opacity:1" fill="#8e64f0" d="M 278.5,230.5 C 281.204,236.12 283.037,242.12 284,248.5C 284.76,258.867 284.594,269.201 283.5,279.5C 281.265,279.795 279.265,279.461 277.5,278.5C 279.96,262.359 278.293,246.693 272.5,231.5C 274.735,231.795 276.735,231.461 278.5,230.5 Z"/></g>
<g><path style="opacity:0.997" fill="#8666ef" d="M 394.5,265.5 C 433.5,265.5 472.5,265.5 511.5,265.5C 511.5,269.833 511.5,274.167 511.5,278.5C 510.833,278.5 510.5,278.833 510.5,279.5C 472.427,279.827 434.427,279.493 396.5,278.5C 396.156,274.106 395.49,269.772 394.5,265.5 Z"/></g>
<g><path style="opacity:0.997" fill="#806cee" d="M 114.5,275.5 C 115.555,281.768 116.888,288.101 118.5,294.5C 80.1811,296.494 41.5144,297.161 2.5,296.5C 1.26407,290.943 0.597401,285.277 0.5,279.5C 38.5,279.5 76.5,279.5 114.5,279.5C 114.5,278.167 114.5,276.833 114.5,275.5 Z"/></g>
<g><path style="opacity:1" fill="#8172ef" d="M 297.5,277.5 C 300.785,277.269 303.285,278.603 305,281.5C 308.566,286.295 310.733,291.628 311.5,297.5C 310.987,307.609 305.654,311.776 295.5,310C 289.024,305.918 286.857,300.085 289,292.5C 291.351,287.12 294.184,282.12 297.5,277.5 Z"/></g>
<g><path style="opacity:1" fill="#8272ef" d="M 327.5,277.5 C 330.325,277.081 332.491,278.081 334,280.5C 338.136,285.44 340.636,291.107 341.5,297.5C 340.224,308.641 334.224,312.474 323.5,309C 317.902,304.207 316.402,298.374 319,291.5C 321.593,286.639 324.427,281.972 327.5,277.5 Z"/></g>
<g><path style="opacity:0.997" fill="#7f6bee" d="M 396.5,278.5 C 434.427,279.493 472.427,279.827 510.5,279.5C 510.403,285.277 509.736,290.943 508.5,296.5C 471.5,296.5 434.5,296.5 397.5,296.5C 397.821,290.974 397.488,285.64 396.5,280.5C 396.5,279.833 396.5,279.167 396.5,278.5 Z"/></g>
<g><path style="opacity:1" fill="#f9f8fd" d="M 299.5,286.5 C 304.815,290.788 306.315,296.122 304,302.5C 301.599,303.602 299.099,303.769 296.5,303C 295.02,301.701 294.354,300.034 294.5,298C 295.219,293.731 296.886,289.898 299.5,286.5 Z"/></g>
<g><path style="opacity:1" fill="#f8f7fd" d="M 328.5,286.5 C 331.902,288.431 334.069,291.431 335,295.5C 336.271,302.56 333.438,305.06 326.5,303C 324.496,300.159 323.996,296.993 325,293.5C 326.193,291.114 327.36,288.78 328.5,286.5 Z"/></g>
<g><path style="opacity:0.997" fill="#7971ee" d="M 118.5,294.5 C 120.812,300.424 123.146,306.424 125.5,312.5C 85.2802,311.848 45.2802,312.515 5.5,314.5C 4.24235,308.545 3.24235,302.545 2.5,296.5C 41.5144,297.161 80.1811,296.494 118.5,294.5 Z"/></g>
<g><path style="opacity:1" fill="#8372ef" d="M 253.5,312.5 C 250.941,312.802 248.607,312.468 246.5,311.5C 255.976,296.23 260.476,279.564 260,261.5C 262,258.833 264,258.833 266,261.5C 266.698,279.71 262.531,296.71 253.5,312.5 Z"/></g>
<g><path style="opacity:1" fill="#7e74ee" d="M 277.5,278.5 C 279.265,279.461 281.265,279.795 283.5,279.5C 281.76,293.387 277.427,306.387 270.5,318.5C 268.265,318.795 266.265,318.461 264.5,317.5C 270.67,304.991 275.003,291.991 277.5,278.5 Z"/></g>
<g><path style="opacity:0.998" fill="#7a72ee" d="M 396.5,280.5 C 397.488,285.64 397.821,290.974 397.5,296.5C 434.5,296.5 471.5,296.5 508.5,296.5C 508.008,301.959 507.008,307.292 505.5,312.5C 468.33,312.832 431.33,312.498 394.5,311.5C 396.075,301.235 396.742,290.902 396.5,280.5 Z"/></g>
<g><path style="opacity:0.998" fill="#7377ed" d="M 125.5,312.5 C 128.335,316.164 130.668,320.164 132.5,324.5C 91.5,325.167 50.5,325.833 9.5,326.5C 7.87229,322.681 6.53895,318.681 5.5,314.5C 45.2802,312.515 85.2802,311.848 125.5,312.5 Z"/></g>
<g><path style="opacity:0.999" fill="#7377ed" d="M 394.5,311.5 C 431.33,312.498 468.33,312.832 505.5,312.5C 504.657,316.873 503.657,321.207 502.5,325.5C 465.167,325.5 427.833,325.5 390.5,325.5C 391.544,320.645 392.877,315.978 394.5,311.5 Z"/></g>
<g><path style="opacity:1" fill="#757eed" d="M 246.5,311.5 C 248.607,312.468 250.941,312.802 253.5,312.5C 247.132,322.043 239.799,330.877 231.5,339C 229.559,339.743 227.726,339.576 226,338.5C 225.333,337.5 225.333,336.5 226,335.5C 233.448,327.897 240.281,319.897 246.5,311.5 Z"/></g>
<g><path style="opacity:0.997" fill="#6e7bec" d="M 390.5,325.5 C 427.833,325.5 465.167,325.5 502.5,325.5C 501.035,330.563 499.368,335.563 497.5,340.5C 459.5,340.5 421.5,340.5 383.5,340.5C 385.597,335.311 387.93,330.311 390.5,325.5 Z"/></g>
<g><path style="opacity:1" fill="#747fed" d="M 141.5,306.5 C 143.144,306.286 144.644,306.62 146,307.5C 149.899,321.394 158.565,330.728 172,335.5C 172.684,336.784 172.517,337.951 171.5,339C 162.115,339.057 154.615,335.224 149,327.5C 144.831,322.161 141.998,316.161 140.5,309.5C 140.685,308.416 141.018,307.416 141.5,306.5 Z"/></g>
<g><path style="opacity:0.998" fill="#6d7cec" d="M 132.5,324.5 C 136.823,329.794 141.156,335.127 145.5,340.5C 101.487,339.839 57.8206,340.505 14.5,342.5C 12.057,337.5 10.3904,332.166 9.5,326.5C 50.5,325.833 91.5,325.167 132.5,324.5 Z"/></g>
<g><path style="opacity:0.997" fill="#6781eb" d="M 145.5,340.5 C 150.882,345.217 156.549,349.55 162.5,353.5C 114.67,354.499 66.6696,354.832 18.5,354.5C 16.9651,350.562 15.6318,346.562 14.5,342.5C 57.8206,340.505 101.487,339.839 145.5,340.5 Z"/></g>
<g><path style="opacity:1" fill="#6c82ec" d="M 264.5,317.5 C 266.265,318.461 268.265,318.795 270.5,318.5C 265.022,328.65 258.356,337.984 250.5,346.5C 252.859,349.851 255.192,353.185 257.5,356.5C 245.167,357.833 232.833,357.833 220.5,356.5C 227.39,355.555 233.39,352.722 238.5,348C 248.489,338.784 257.156,328.618 264.5,317.5 Z"/></g>
<g><path style="opacity:0.996" fill="#6781eb" d="M 383.5,340.5 C 421.5,340.5 459.5,340.5 497.5,340.5C 495.871,345.735 493.871,350.735 491.5,355.5C 452.5,354.833 413.5,354.167 374.5,353.5C 377.266,348.955 380.266,344.622 383.5,340.5 Z"/></g>
<g><path style="opacity:0.998" fill="#6186ea" d="M 220.5,356.5 C 232.833,357.833 245.167,357.833 257.5,356.5C 262.139,361.474 266.805,366.474 271.5,371.5C 189.833,371.5 108.167,371.5 26.5,371.5C 23.5602,365.954 20.8935,360.287 18.5,354.5C 66.6696,354.832 114.67,354.499 162.5,353.5C 167.156,356.186 172.156,357.019 177.5,356C 183.43,353.53 189.43,351.363 195.5,349.5C 198.956,349.818 202.289,350.652 205.5,352C 210.003,355.257 215.003,356.757 220.5,356.5 Z"/></g>
<g><path style="opacity:0.998" fill="#6186ea" d="M 374.5,353.5 C 413.5,354.167 452.5,354.833 491.5,355.5C 489.714,361.072 487.381,366.405 484.5,371.5C 442.33,371.832 400.33,371.499 358.5,370.5C 364.566,365.437 369.899,359.77 374.5,353.5 Z"/></g>
<g><path style="opacity:0.998" fill="#5a8cea" d="M 358.5,370.5 C 400.33,371.499 442.33,371.832 484.5,371.5C 481.404,377.367 478.071,383.033 474.5,388.5C 328.334,387.5 182.001,387.167 35.5,387.5C 32.5,382.167 29.5,376.833 26.5,371.5C 108.167,371.5 189.833,371.5 271.5,371.5C 276.12,374.816 281.12,377.649 286.5,380C 294.907,380.981 302.574,378.981 309.5,374C 311.167,373.833 312.833,373.667 314.5,373.5C 322.267,375.553 329.934,377.886 337.5,380.5C 345.683,379.575 352.683,376.241 358.5,370.5 Z"/></g>
<g><path style="opacity:0.999" fill="#5392e9" d="M 35.5,387.5 C 182.001,387.167 328.334,387.5 474.5,388.5C 471.22,394.441 467.553,400.108 463.5,405.5C 324.736,404.168 186.069,404.168 47.5,405.5C 43.141,399.795 39.141,393.795 35.5,387.5 Z"/></g>
<g><path style="opacity:0.998" fill="#4d98e8" d="M 463.5,405.5 C 460.305,410.569 456.638,415.235 452.5,419.5C 321.001,418.5 189.334,418.167 57.5,418.5C 53.9358,414.386 50.6025,410.052 47.5,405.5C 186.069,404.168 324.736,404.168 463.5,405.5 Z"/></g>
<g><path style="opacity:0.999" fill="#489be8" d="M 57.5,418.5 C 189.334,418.167 321.001,418.5 452.5,419.5C 450.628,422.582 448.295,425.249 445.5,427.5C 318.668,426.5 191.668,426.167 64.5,426.5C 62.1765,423.874 59.8432,421.207 57.5,418.5 Z"/></g>
<g><path style="opacity:0.998" fill="#43a0e7" d="M 64.5,426.5 C 191.668,426.167 318.668,426.5 445.5,427.5C 441.5,432.167 437.167,436.5 432.5,440.5C 314.5,440.5 196.5,440.5 78.5,440.5C 73.5,436.167 68.8333,431.5 64.5,426.5 Z"/></g>
<g><path style="opacity:0.997" fill="#3fa3e6" d="M 78.5,440.5 C 196.5,440.5 314.5,440.5 432.5,440.5C 430.167,443.5 427.5,446.167 424.5,448.5C 311.57,447.502 198.57,447.169 85.5,447.5C 82.8333,445.5 80.5,443.167 78.5,440.5 Z"/></g>
<g><path style="opacity:0.998" fill="#3ba7e6" d="M 85.5,447.5 C 198.57,447.169 311.57,447.502 424.5,448.5C 419.123,453.21 413.457,457.543 407.5,461.5C 306.167,461.5 204.833,461.5 103.5,461.5C 97.1294,457.314 91.1294,452.647 85.5,447.5 Z"/></g>
<g><path style="opacity:0.996" fill="#35ace5" d="M 103.5,461.5 C 204.833,461.5 306.167,461.5 407.5,461.5C 399.067,468.251 390.067,474.251 380.5,479.5C 297.5,478.167 214.5,478.167 131.5,479.5C 121.356,474.675 112.022,468.675 103.5,461.5 Z"/></g>
<g><path style="opacity:0.993" fill="#2eb2e4" d="M 380.5,479.5 C 370.564,485.301 360.231,490.301 349.5,494.5C 285.973,493.823 222.306,493.156 158.5,492.5C 148.801,489.483 139.801,485.149 131.5,479.5C 214.5,478.167 297.5,478.167 380.5,479.5 Z"/></g>
<g><path style="opacity:0.984" fill="#28b8e3" d="M 158.5,492.5 C 222.306,493.156 285.973,493.823 349.5,494.5C 326.439,503.183 302.773,508.85 278.5,511.5C 263.167,511.5 247.833,511.5 232.5,511.5C 206.88,508.928 182.213,502.595 158.5,492.5 Z"/></g>
</svg>
