<?xml version="1.0" encoding="UTF-8"?>
<!DOCTYPE svg PUBLIC "-//W3C//DTD SVG 1.1//EN" "http://www.w3.org/Graphics/SVG/1.1/DTD/svg11.dtd">
<svg xmlns="http://www.w3.org/2000/svg" version="1.1" width="512px" height="512px" style="shape-rendering:geometricPrecision; text-rendering:geometricPrecision; image-rendering:optimizeQuality; fill-rule:evenodd; clip-rule:evenodd" xmlns:xlink="http://www.w3.org/1999/xlink">
<g><path style="opacity:0.991" fill="#f109fd" d="M 232.5,-0.5 C 247.833,-0.5 263.167,-0.5 278.5,-0.5C 307.769,2.4843 335.769,10.151 362.5,22.5C 291.665,22.8325 220.998,22.4992 150.5,21.5C 176.746,9.77337 204.079,2.44003 232.5,-0.5 Z"/></g>
<g><path style="opacity:0.994" fill="#ea0ffc" d="M 150.5,21.5 C 220.998,22.4992 291.665,22.8325 362.5,22.5C 373.599,26.9705 383.933,32.6371 393.5,39.5C 393.565,39.9382 393.399,40.2716 393,40.5C 301.736,39.8346 210.569,39.1679 119.5,38.5C 129.023,31.5674 139.357,25.9007 150.5,21.5 Z"/></g>
<g><path style="opacity:0.996" fill="#e315fb" d="M 119.5,38.5 C 210.569,39.1679 301.736,39.8346 393,40.5C 393.399,40.2716 393.565,39.9382 393.5,39.5C 400.554,43.6868 407.221,48.3534 413.5,53.5C 307.904,54.4977 202.237,54.831 96.5,54.5C 103.61,48.3946 111.276,43.0612 119.5,38.5 Z"/></g>
<g><path style="opacity:0.997" fill="#dd1afa" d="M 413.5,53.5 C 419.489,58.1569 425.156,63.1569 430.5,68.5C 313.999,68.8329 197.665,68.4995 81.5,67.5C 86.1793,62.8223 91.1793,58.489 96.5,54.5C 202.237,54.831 307.904,54.4977 413.5,53.5 Z"/></g>
<g><path style="opacity:0.998" fill="#d620fa" d="M 81.5,67.5 C 197.665,68.4995 313.999,68.8329 430.5,68.5C 435.833,73.1667 440.833,78.1667 445.5,83.5C 319.001,84.3331 192.334,84.8331 65.5,85C 64.7562,86.0386 63.7562,86.5386 62.5,86.5C 68.5,79.8333 74.8333,73.5 81.5,67.5 Z"/></g>
<g><path style="opacity:0.999" fill="#d124f9" d="M 445.5,83.5 C 449.513,87.5149 453.179,91.8482 456.5,96.5C 322.5,97.8333 188.5,97.8333 54.5,96.5C 56.8171,92.8536 59.4838,89.5203 62.5,86.5C 63.7562,86.5386 64.7562,86.0386 65.5,85C 192.334,84.8331 319.001,84.3331 445.5,83.5 Z"/></g>
<g><path style="opacity:0.998" fill="#cb2af8" d="M 54.5,96.5 C 188.5,97.8333 322.5,97.8333 456.5,96.5C 461.576,101.918 465.909,107.918 469.5,114.5C 326.833,114.5 184.167,114.5 41.5,114.5C 45.0908,107.918 49.4242,101.918 54.5,96.5 Z"/></g>
<g><path style="opacity:0.999" fill="#c42ff7" d="M 41.5,114.5 C 184.167,114.5 326.833,114.5 469.5,114.5C 472.916,118.323 475.582,122.657 477.5,127.5C 329.504,129.498 181.17,130.165 32.5,129.5C 34.7487,123.995 37.7487,118.995 41.5,114.5 Z"/></g>
<g><path style="opacity:0.998" fill="#be35f6" d="M 477.5,127.5 C 481.594,133.351 484.927,139.685 487.5,146.5C 332.903,145.502 178.237,145.168 23.5,145.5C 26.0089,139.808 29.0089,134.474 32.5,129.5C 181.17,130.165 329.504,129.498 477.5,127.5 Z"/></g>
<g><path style="opacity:0.998" fill="#b73cf5" d="M 23.5,145.5 C 178.237,145.168 332.903,145.502 487.5,146.5C 490.345,151.531 492.678,156.864 494.5,162.5C 448.167,162.5 401.833,162.5 355.5,162.5C 336.403,150.762 316.07,147.928 294.5,154C 289.013,156.577 283.679,159.41 278.5,162.5C 263.167,162.5 247.833,162.5 232.5,162.5C 206.866,146.585 181.2,146.585 155.5,162.5C 109.095,162.828 62.7613,162.495 16.5,161.5C 18.8333,156.167 21.1667,150.833 23.5,145.5 Z"/></g>
<g><path style="opacity:1" fill="#fefefd" d="M 232.5,162.5 C 241.236,170.408 248.736,179.408 255,189.5C 261.235,179.099 269.068,170.099 278.5,162.5C 283.679,159.41 289.013,156.577 294.5,154C 316.07,147.928 336.403,150.762 355.5,162.5C 361.833,167.5 367.5,173.167 372.5,179.5C 375.083,182.997 377.416,186.664 379.5,190.5C 381.559,195.01 383.226,199.677 384.5,204.5C 385.707,209.414 386.374,214.414 386.5,219.5C 386.313,224.845 385.98,230.178 385.5,235.5C 384.598,239.755 383.598,244.089 382.5,248.5C 381.662,248.842 381.328,249.508 381.5,250.5C 375.794,250.829 370.128,250.495 364.5,249.5C 361.667,243.167 358.833,236.833 356,230.5C 354.445,228.485 352.611,228.152 350.5,229.5C 347.5,236.167 344.5,242.833 341.5,249.5C 336.208,250.495 330.875,250.828 325.5,250.5C 324.4,243.995 323.067,237.662 321.5,231.5C 319.118,217.424 316.285,203.424 313,189.5C 309.197,186.561 306.864,187.561 306,192.5C 302.848,206.442 300.014,220.442 297.5,234.5C 294.93,243.586 292.93,252.919 291.5,262.5C 290.325,267.809 288.825,273.142 287,278.5C 285.885,273.687 284.719,269.02 283.5,264.5C 283.326,259.793 282.326,255.293 280.5,251C 275.845,250.501 271.179,250.334 266.5,250.5C 264.239,243.305 261.406,236.305 258,229.5C 256.612,228.446 255.112,228.28 253.5,229C 249.958,235.612 246.791,242.445 244,249.5C 239.586,250.303 235.086,250.803 230.5,251C 228.81,254.621 227.81,258.454 227.5,262.5C 226.071,268.128 224.571,273.795 223,279.5C 222.09,274.308 220.924,269.308 219.5,264.5C 217.785,253.252 215.452,242.252 212.5,231.5C 210.037,217.017 206.87,202.684 203,188.5C 201.333,187.167 199.667,187.167 198,188.5C 194.617,203.468 191.45,218.468 188.5,233.5C 187.122,238.893 185.789,244.393 184.5,250C 179.5,250.667 174.5,250.667 169.5,250C 166.205,243.242 163.038,236.409 160,229.5C 158.333,228.167 156.667,228.167 155,229.5C 151.962,236.409 148.795,243.242 145.5,250C 140.467,250.171 135.467,250.671 130.5,251.5C 131.167,252.833 131.833,254.167 132.5,255.5C 125.524,256.664 118.524,256.831 111.5,256C 110.167,254.333 110.167,252.667 111.5,251C 117.491,250.501 123.491,250.334 129.5,250.5C 129.737,249.209 129.404,248.209 128.5,247.5C 127.456,242.645 126.123,237.978 124.5,233.5C 124.5,227.167 124.5,220.833 124.5,214.5C 124.851,211.097 125.518,207.763 126.5,204.5C 127.376,199.536 129.043,194.87 131.5,190.5C 133.258,186.646 135.258,182.979 137.5,179.5C 142.869,173.13 148.869,167.463 155.5,162.5C 181.2,146.585 206.866,146.585 232.5,162.5 Z"/></g>
<g><path style="opacity:0.998" fill="#b041f5" d="M 16.5,161.5 C 62.7613,162.495 109.095,162.828 155.5,162.5C 148.869,167.463 142.869,173.13 137.5,179.5C 95.1667,179.5 52.8333,179.5 10.5,179.5C 12.3024,173.426 14.3024,167.426 16.5,161.5 Z"/></g>
<g><path style="opacity:1" fill="#b144f5" d="M 232.5,162.5 C 247.833,162.5 263.167,162.5 278.5,162.5C 269.068,170.099 261.235,179.099 255,189.5C 248.736,179.408 241.236,170.408 232.5,162.5 Z"/></g>
<g><path style="opacity:0.997" fill="#b041f5" d="M 355.5,162.5 C 401.833,162.5 448.167,162.5 494.5,162.5C 496.762,167.285 498.428,172.285 499.5,177.5C 457.513,179.495 415.18,180.161 372.5,179.5C 367.5,173.167 361.833,167.5 355.5,162.5 Z"/></g>
<g><path style="opacity:0.998" fill="#aa46f4" d="M 499.5,177.5 C 500.975,181.031 502.308,184.698 503.5,188.5C 462.386,190.486 421.053,191.152 379.5,190.5C 377.416,186.664 375.083,182.997 372.5,179.5C 415.18,180.161 457.513,179.495 499.5,177.5 Z"/></g>
<g><path style="opacity:0.998" fill="#aa46f4" d="M 10.5,179.5 C 52.8333,179.5 95.1667,179.5 137.5,179.5C 135.258,182.979 133.258,186.646 131.5,190.5C 90.1667,190.5 48.8333,190.5 7.5,190.5C 8.30284,186.761 9.30284,183.095 10.5,179.5 Z"/></g>
<g><path style="opacity:0.996" fill="#a44bf3" d="M 503.5,188.5 C 504.818,193.773 505.818,199.107 506.5,204.5C 465.833,204.5 425.167,204.5 384.5,204.5C 383.226,199.677 381.559,195.01 379.5,190.5C 421.053,191.152 462.386,190.486 503.5,188.5 Z"/></g>
<g><path style="opacity:0.999" fill="#a44bf3" d="M 7.5,190.5 C 48.8333,190.5 90.1667,190.5 131.5,190.5C 129.043,194.87 127.376,199.536 126.5,204.5C 85.8333,204.5 45.1667,204.5 4.5,204.5C 4.87378,199.675 5.87378,195.008 7.5,190.5 Z"/></g>
<g><path style="opacity:0.997" fill="#9f50f2" d="M 4.5,204.5 C 45.1667,204.5 85.8333,204.5 126.5,204.5C 125.518,207.763 124.851,211.097 124.5,214.5C 123.549,215.919 123.216,217.585 123.5,219.5C 82.7609,219.173 42.0942,219.506 1.5,220.5C 1.87113,214.924 2.87113,209.591 4.5,204.5 Z"/></g>
<g><path style="opacity:1" fill="#a257f3" d="M 212.5,231.5 C 210.5,231.5 208.5,231.5 206.5,231.5C 204.883,223.133 203.049,214.8 201,206.5C 199.135,216.588 196.968,226.588 194.5,236.5C 192.5,236.5 190.5,236.5 188.5,236.5C 188.5,235.5 188.5,234.5 188.5,233.5C 191.45,218.468 194.617,203.468 198,188.5C 199.667,187.167 201.333,187.167 203,188.5C 206.87,202.684 210.037,217.017 212.5,231.5 Z"/></g>
<g><path style="opacity:1" fill="#a257f3" d="M 321.5,231.5 C 319.5,231.5 317.5,231.5 315.5,231.5C 313.881,223.116 312.047,214.783 310,206.5C 308.137,216.584 305.97,226.584 303.5,236.5C 300.918,236.975 298.918,236.308 297.5,234.5C 300.014,220.442 302.848,206.442 306,192.5C 306.864,187.561 309.197,186.561 313,189.5C 316.285,203.424 319.118,217.424 321.5,231.5 Z"/></g>
<g><path style="opacity:0.997" fill="#9f50f2" d="M 384.5,204.5 C 425.167,204.5 465.833,204.5 506.5,204.5C 508.236,209.911 509.236,215.578 509.5,221.5C 468.719,219.515 427.719,218.848 386.5,219.5C 386.374,214.414 385.707,209.414 384.5,204.5 Z"/></g>
<g><path style="opacity:1" fill="#fdfdfd" d="M 206.5,231.5 C 208.97,242.902 211.636,254.236 214.5,265.5C 216.599,276.493 218.765,287.493 221,298.5C 223.267,299.935 225.267,299.602 227,297.5C 228.848,286.76 231.015,276.093 233.5,265.5C 234.008,262.611 234.675,259.778 235.5,257C 239.871,256.828 244.204,256.328 248.5,255.5C 250.743,250.015 253.243,244.682 256,239.5C 258.116,245.186 260.616,250.686 263.5,256C 267.821,256.499 272.154,256.666 276.5,256.5C 276.833,259.167 277.167,261.833 277.5,264.5C 280.105,275.792 282.605,287.125 285,298.5C 287.776,300.14 289.776,299.473 291,296.5C 292.728,286.025 294.895,275.691 297.5,265.5C 299.5,255.833 301.5,246.167 303.5,236.5C 305.97,226.584 308.137,216.584 310,206.5C 312.047,214.783 313.881,223.116 315.5,231.5C 317.435,239.67 319.435,247.837 321.5,256C 329.5,256.667 337.5,256.667 345.5,256C 348.074,250.771 350.741,245.605 353.5,240.5C 356.09,245.349 358.424,250.349 360.5,255.5C 360.957,256.298 361.624,256.631 362.5,256.5C 367.833,257.167 373.167,257.833 378.5,258.5C 377.5,260.5 376.5,262.5 375.5,264.5C 371.904,269.436 367.904,274.103 363.5,278.5C 356.765,284.576 349.765,290.243 342.5,295.5C 334.144,300.867 325.811,306.201 317.5,311.5C 310.213,315.472 303.213,319.805 296.5,324.5C 289.244,328.762 282.577,333.762 276.5,339.5C 269.833,344.167 264.167,349.833 259.5,356.5C 258.185,357.476 256.852,358.476 255.5,359.5C 253.812,357.146 251.812,355.146 249.5,353.5C 245.167,348.5 240.5,343.833 235.5,339.5C 229.423,333.762 222.756,328.762 215.5,324.5C 208.704,319.93 201.704,315.597 194.5,311.5C 186.189,306.201 177.856,300.867 169.5,295.5C 162.235,290.243 155.235,284.576 148.5,278.5C 145.061,273.941 141.394,269.608 137.5,265.5C 136.758,263.02 135.758,260.687 134.5,258.5C 139.5,257.833 144.5,257.167 149.5,256.5C 152.815,251.204 155.648,245.538 158,239.5C 160.504,245.017 163.004,250.517 165.5,256C 173.5,256.667 181.5,256.667 189.5,256C 190,255.5 190.5,255 191,254.5C 191.978,248.442 193.145,242.442 194.5,236.5C 196.968,226.588 199.135,216.588 201,206.5C 203.049,214.8 204.883,223.133 206.5,231.5 Z"/></g>
<g><path style="opacity:0.997" fill="#9956f2" d="M 124.5,214.5 C 124.5,220.833 124.5,227.167 124.5,233.5C 124.5,234.5 124.5,235.5 124.5,236.5C 82.8333,236.5 41.1667,236.5 -0.5,236.5C -0.5,235.167 -0.5,233.833 -0.5,232.5C 0.293656,228.642 0.960323,224.642 1.5,220.5C 42.0942,219.506 82.7609,219.173 123.5,219.5C 123.216,217.585 123.549,215.919 124.5,214.5 Z"/></g>
<g><path style="opacity:0.998" fill="#9956f2" d="M 386.5,219.5 C 427.719,218.848 468.719,219.515 509.5,221.5C 510.026,225.312 510.693,228.979 511.5,232.5C 511.5,233.833 511.5,235.167 511.5,236.5C 469.33,236.832 427.33,236.499 385.5,235.5C 385.98,230.178 386.313,224.845 386.5,219.5 Z"/></g>
<g><path style="opacity:0.997" fill="#935bf1" d="M 124.5,233.5 C 126.123,237.978 127.456,242.645 128.5,247.5C 85.6699,248.499 42.6699,248.832 -0.5,248.5C -0.5,244.5 -0.5,240.5 -0.5,236.5C 41.1667,236.5 82.8333,236.5 124.5,236.5C 124.5,235.5 124.5,234.5 124.5,233.5 Z"/></g>
<g><path style="opacity:1" fill="#9663f1" d="M 206.5,231.5 C 208.5,231.5 210.5,231.5 212.5,231.5C 215.452,242.252 217.785,253.252 219.5,264.5C 218.081,265.451 216.415,265.784 214.5,265.5C 211.636,254.236 208.97,242.902 206.5,231.5 Z"/></g>
<g><path style="opacity:1" fill="#9361f1" d="M 283.5,264.5 C 281.611,265.742 279.611,265.742 277.5,264.5C 277.167,261.833 276.833,259.167 276.5,256.5C 272.154,256.666 267.821,256.499 263.5,256C 260.616,250.686 258.116,245.186 256,239.5C 253.243,244.682 250.743,250.015 248.5,255.5C 244.204,256.328 239.871,256.828 235.5,257C 234.675,259.778 234.008,262.611 233.5,265.5C 231.5,265.5 229.5,265.5 227.5,265.5C 227.5,264.5 227.5,263.5 227.5,262.5C 227.81,258.454 228.81,254.621 230.5,251C 235.086,250.803 239.586,250.303 244,249.5C 246.791,242.445 249.958,235.612 253.5,229C 255.112,228.28 256.612,228.446 258,229.5C 261.406,236.305 264.239,243.305 266.5,250.5C 271.179,250.334 275.845,250.501 280.5,251C 282.326,255.293 283.326,259.793 283.5,264.5 Z"/></g>
<g><path style="opacity:0.997" fill="#935bf1" d="M 385.5,235.5 C 427.33,236.499 469.33,236.832 511.5,236.5C 511.5,240.5 511.5,244.5 511.5,248.5C 468.5,248.5 425.5,248.5 382.5,248.5C 383.598,244.089 384.598,239.755 385.5,235.5 Z"/></g>
<g><path style="opacity:1" fill="#8e61f0" d="M 188.5,233.5 C 188.5,234.5 188.5,235.5 188.5,236.5C 190.5,236.5 192.5,236.5 194.5,236.5C 193.145,242.442 191.978,248.442 191,254.5C 190.5,255 190,255.5 189.5,256C 181.5,256.667 173.5,256.667 165.5,256C 163.004,250.517 160.504,245.017 158,239.5C 155.648,245.538 152.815,251.204 149.5,256.5C 144.125,256.172 138.792,256.505 133.5,257.5C 133.624,258.107 133.957,258.44 134.5,258.5C 135.758,260.687 136.758,263.02 137.5,265.5C 91.5,265.5 45.5,265.5 -0.5,265.5C -0.5,259.833 -0.5,254.167 -0.5,248.5C 42.6699,248.832 85.6699,248.499 128.5,247.5C 129.404,248.209 129.737,249.209 129.5,250.5C 123.491,250.334 117.491,250.501 111.5,251C 110.167,252.667 110.167,254.333 111.5,256C 118.524,256.831 125.524,256.664 132.5,255.5C 131.833,254.167 131.167,252.833 130.5,251.5C 135.467,250.671 140.467,250.171 145.5,250C 148.795,243.242 151.962,236.409 155,229.5C 156.667,228.167 158.333,228.167 160,229.5C 163.038,236.409 166.205,243.242 169.5,250C 174.5,250.667 179.5,250.667 184.5,250C 185.789,244.393 187.122,238.893 188.5,233.5 Z"/></g>
<g><path style="opacity:1" fill="#9264f1" d="M 297.5,234.5 C 298.918,236.308 300.918,236.975 303.5,236.5C 301.5,246.167 299.5,255.833 297.5,265.5C 295.5,265.5 293.5,265.5 291.5,265.5C 291.5,264.5 291.5,263.5 291.5,262.5C 292.93,252.919 294.93,243.586 297.5,234.5 Z"/></g>
<g><path style="opacity:1" fill="#925ff1" d="M 381.5,250.5 C 380.833,252.5 380.167,254.5 379.5,256.5C 373.833,256.5 368.167,256.5 362.5,256.5C 361.624,256.631 360.957,256.298 360.5,255.5C 358.424,250.349 356.09,245.349 353.5,240.5C 350.741,245.605 348.074,250.771 345.5,256C 337.5,256.667 329.5,256.667 321.5,256C 319.435,247.837 317.435,239.67 315.5,231.5C 317.5,231.5 319.5,231.5 321.5,231.5C 323.067,237.662 324.4,243.995 325.5,250.5C 330.875,250.828 336.208,250.495 341.5,249.5C 344.5,242.833 347.5,236.167 350.5,229.5C 352.611,228.152 354.445,228.485 356,230.5C 358.833,236.833 361.667,243.167 364.5,249.5C 370.128,250.495 375.794,250.829 381.5,250.5 Z"/></g>
<g><path style="opacity:1" fill="#fcfbfd" d="M 381.5,250.5 C 387.176,250.334 392.843,250.501 398.5,251C 401.362,253.558 401.029,255.391 397.5,256.5C 391.5,256.5 385.5,256.5 379.5,256.5C 380.167,254.5 380.833,252.5 381.5,250.5 Z"/></g>
<g><path style="opacity:0.999" fill="#8c60f0" d="M 382.5,248.5 C 425.5,248.5 468.5,248.5 511.5,248.5C 511.5,254.167 511.5,259.833 511.5,265.5C 465.997,265.832 420.664,265.499 375.5,264.5C 376.5,262.5 377.5,260.5 378.5,258.5C 384.934,257.87 391.267,257.203 397.5,256.5C 401.029,255.391 401.362,253.558 398.5,251C 392.843,250.501 387.176,250.334 381.5,250.5C 381.328,249.508 381.662,248.842 382.5,248.5 Z"/></g>
<g><path style="opacity:1" fill="#d1c0f8" d="M 149.5,256.5 C 144.5,257.167 139.5,257.833 134.5,258.5C 133.957,258.44 133.624,258.107 133.5,257.5C 138.792,256.505 144.125,256.172 149.5,256.5 Z"/></g>
<g><path style="opacity:1" fill="#c4acf7" d="M 362.5,256.5 C 368.167,256.5 373.833,256.5 379.5,256.5C 385.5,256.5 391.5,256.5 397.5,256.5C 391.267,257.203 384.934,257.87 378.5,258.5C 373.167,257.833 367.833,257.167 362.5,256.5 Z"/></g>
<g><path style="opacity:0.997" fill="#8666ef" d="M -0.5,265.5 C 45.5,265.5 91.5,265.5 137.5,265.5C 141.394,269.608 145.061,273.941 148.5,278.5C 99.3362,279.499 50.0028,279.832 0.5,279.5C 0.5,278.833 0.166667,278.5 -0.5,278.5C -0.5,274.167 -0.5,269.833 -0.5,265.5 Z"/></g>
<g><path style="opacity:1" fill="#886def" d="M 291.5,262.5 C 291.5,263.5 291.5,264.5 291.5,265.5C 293.5,265.5 295.5,265.5 297.5,265.5C 294.895,275.691 292.728,286.025 291,296.5C 289.776,299.473 287.776,300.14 285,298.5C 282.605,287.125 280.105,275.792 277.5,264.5C 279.611,265.742 281.611,265.742 283.5,264.5C 284.719,269.02 285.885,273.687 287,278.5C 288.825,273.142 290.325,267.809 291.5,262.5 Z"/></g>
<g><path style="opacity:0.997" fill="#8666ef" d="M 375.5,264.5 C 420.664,265.499 465.997,265.832 511.5,265.5C 511.5,269.833 511.5,274.167 511.5,278.5C 510.833,278.5 510.5,278.833 510.5,279.5C 461.33,279.832 412.33,279.499 363.5,278.5C 367.904,274.103 371.904,269.436 375.5,264.5 Z"/></g>
<g><path style="opacity:1" fill="#876def" d="M 227.5,262.5 C 227.5,263.5 227.5,264.5 227.5,265.5C 229.5,265.5 231.5,265.5 233.5,265.5C 231.015,276.093 228.848,286.76 227,297.5C 225.267,299.602 223.267,299.935 221,298.5C 218.765,287.493 216.599,276.493 214.5,265.5C 216.415,265.784 218.081,265.451 219.5,264.5C 220.924,269.308 222.09,274.308 223,279.5C 224.571,273.795 226.071,268.128 227.5,262.5 Z"/></g>
<g><path style="opacity:0.998" fill="#7f6cee" d="M 148.5,278.5 C 155.235,284.576 162.235,290.243 169.5,295.5C 114.002,296.499 58.3358,296.832 2.5,296.5C 1.26407,290.943 0.597401,285.277 0.5,279.5C 50.0028,279.832 99.3362,279.499 148.5,278.5 Z"/></g>
<g><path style="opacity:0.998" fill="#806cee" d="M 363.5,278.5 C 412.33,279.499 461.33,279.832 510.5,279.5C 510.403,285.277 509.736,290.943 508.5,296.5C 452.997,296.832 397.664,296.499 342.5,295.5C 349.765,290.243 356.765,284.576 363.5,278.5 Z"/></g>
<g><path style="opacity:0.999" fill="#7971ee" d="M 342.5,295.5 C 397.664,296.499 452.997,296.832 508.5,296.5C 508.008,301.959 507.008,307.292 505.5,312.5C 442.664,312.832 379.998,312.499 317.5,311.5C 325.811,306.201 334.144,300.867 342.5,295.5 Z"/></g>
<g><path style="opacity:0.998" fill="#7971ee" d="M 169.5,295.5 C 177.856,300.867 186.189,306.201 194.5,311.5C 131.454,311.841 68.4541,312.841 5.5,314.5C 4.24235,308.545 3.24235,302.545 2.5,296.5C 58.3358,296.832 114.002,296.499 169.5,295.5 Z"/></g>
<g><path style="opacity:0.999" fill="#7377ed" d="M 194.5,311.5 C 201.704,315.597 208.704,319.93 215.5,324.5C 146.833,325.167 78.1667,325.833 9.5,326.5C 7.87229,322.681 6.53895,318.681 5.5,314.5C 68.4541,312.841 131.454,311.841 194.5,311.5 Z"/></g>
<g><path style="opacity:0.999" fill="#7377ed" d="M 317.5,311.5 C 379.998,312.499 442.664,312.832 505.5,312.5C 504.657,316.873 503.657,321.207 502.5,325.5C 433.665,325.833 364.998,325.499 296.5,324.5C 303.213,319.805 310.213,315.472 317.5,311.5 Z"/></g>
<g><path style="opacity:0.998" fill="#6e7bec" d="M 215.5,324.5 C 222.756,328.762 229.423,333.762 235.5,339.5C 161.661,339.834 87.9943,340.834 14.5,342.5C 12.057,337.5 10.3904,332.166 9.5,326.5C 78.1667,325.833 146.833,325.167 215.5,324.5 Z"/></g>
<g><path style="opacity:0.998" fill="#6e7bec" d="M 296.5,324.5 C 364.998,325.499 433.665,325.833 502.5,325.5C 501.035,330.563 499.368,335.563 497.5,340.5C 423.665,340.833 349.998,340.499 276.5,339.5C 282.577,333.762 289.244,328.762 296.5,324.5 Z"/></g>
<g><path style="opacity:0.998" fill="#6781eb" d="M 235.5,339.5 C 240.5,343.833 245.167,348.5 249.5,353.5C 172.668,354.499 95.6685,354.833 18.5,354.5C 16.9651,350.562 15.6318,346.562 14.5,342.5C 87.9943,340.834 161.661,339.834 235.5,339.5 Z"/></g>
<g><path style="opacity:0.998" fill="#6781eb" d="M 276.5,339.5 C 349.998,340.499 423.665,340.833 497.5,340.5C 495.733,346.485 493.4,352.152 490.5,357.5C 413.332,357.833 336.332,357.499 259.5,356.5C 264.167,349.833 269.833,344.167 276.5,339.5 Z"/></g>
<g><path style="opacity:0.999" fill="#6186ea" d="M 249.5,353.5 C 251.812,355.146 253.812,357.146 255.5,359.5C 256.852,358.476 258.185,357.476 259.5,356.5C 336.332,357.499 413.332,357.833 490.5,357.5C 489.048,362.403 487.048,367.07 484.5,371.5C 331.833,371.5 179.167,371.5 26.5,371.5C 23.5602,365.954 20.8935,360.287 18.5,354.5C 95.6685,354.833 172.668,354.499 249.5,353.5 Z"/></g>
<g><path style="opacity:0.998" fill="#5a8cea" d="M 26.5,371.5 C 179.167,371.5 331.833,371.5 484.5,371.5C 481.404,377.367 478.071,383.033 474.5,388.5C 328.334,387.5 182.001,387.167 35.5,387.5C 32.5,382.167 29.5,376.833 26.5,371.5 Z"/></g>
<g><path style="opacity:0.999" fill="#5392e9" d="M 35.5,387.5 C 182.001,387.167 328.334,387.5 474.5,388.5C 471.22,394.441 467.553,400.108 463.5,405.5C 324.736,404.168 186.069,404.168 47.5,405.5C 43.141,399.795 39.141,393.795 35.5,387.5 Z"/></g>
<g><path style="opacity:0.998" fill="#4d98e8" d="M 463.5,405.5 C 460.305,410.569 456.638,415.235 452.5,419.5C 321.001,418.5 189.334,418.167 57.5,418.5C 53.9358,414.386 50.6025,410.052 47.5,405.5C 186.069,404.168 324.736,404.168 463.5,405.5 Z"/></g>
<g><path style="opacity:0.999" fill="#489be8" d="M 57.5,418.5 C 189.334,418.167 321.001,418.5 452.5,419.5C 450.628,422.582 448.295,425.249 445.5,427.5C 318.668,426.5 191.668,426.167 64.5,426.5C 62.1765,423.874 59.8432,421.207 57.5,418.5 Z"/></g>
<g><path style="opacity:0.998" fill="#43a0e7" d="M 64.5,426.5 C 191.668,426.167 318.668,426.5 445.5,427.5C 441.5,432.167 437.167,436.5 432.5,440.5C 314.5,440.5 196.5,440.5 78.5,440.5C 73.5,436.167 68.8333,431.5 64.5,426.5 Z"/></g>
<g><path style="opacity:0.997" fill="#3fa3e6" d="M 78.5,440.5 C 196.5,440.5 314.5,440.5 432.5,440.5C 430.167,443.5 427.5,446.167 424.5,448.5C 311.57,447.502 198.57,447.169 85.5,447.5C 82.8333,445.5 80.5,443.167 78.5,440.5 Z"/></g>
<g><path style="opacity:0.998" fill="#3ba7e6" d="M 85.5,447.5 C 198.57,447.169 311.57,447.502 424.5,448.5C 419.123,453.21 413.457,457.543 407.5,461.5C 306.167,461.5 204.833,461.5 103.5,461.5C 97.1294,457.314 91.1294,452.647 85.5,447.5 Z"/></g>
<g><path style="opacity:0.996" fill="#35ace5" d="M 103.5,461.5 C 204.833,461.5 306.167,461.5 407.5,461.5C 399.067,468.251 390.067,474.251 380.5,479.5C 297.5,478.167 214.5,478.167 131.5,479.5C 121.356,474.675 112.022,468.675 103.5,461.5 Z"/></g>
<g><path style="opacity:0.993" fill="#2eb2e4" d="M 380.5,479.5 C 370.564,485.301 360.231,490.301 349.5,494.5C 285.973,493.823 222.306,493.156 158.5,492.5C 148.801,489.483 139.801,485.149 131.5,479.5C 214.5,478.167 297.5,478.167 380.5,479.5 Z"/></g>
<g><path style="opacity:0.984" fill="#28b8e3" d="M 158.5,492.5 C 222.306,493.156 285.973,493.823 349.5,494.5C 326.439,503.183 302.773,508.85 278.5,511.5C 263.167,511.5 247.833,511.5 232.5,511.5C 206.88,508.928 182.213,502.595 158.5,492.5 Z"/></g>
</svg>
