<?xml version="1.0" encoding="UTF-8"?>
<!DOCTYPE svg PUBLIC "-//W3C//DTD SVG 1.1//EN" "http://www.w3.org/Graphics/SVG/1.1/DTD/svg11.dtd">
<svg xmlns="http://www.w3.org/2000/svg" version="1.1" width="512px" height="512px" style="shape-rendering:geometricPrecision; text-rendering:geometricPrecision; image-rendering:optimizeQuality; fill-rule:evenodd; clip-rule:evenodd" xmlns:xlink="http://www.w3.org/1999/xlink">
<g><path style="opacity:0.991" fill="#f109fd" d="M 232.5,-0.5 C 247.833,-0.5 263.167,-0.5 278.5,-0.5C 307.769,2.4843 335.769,10.151 362.5,22.5C 291.665,22.8325 220.998,22.4992 150.5,21.5C 176.746,9.77337 204.079,2.44003 232.5,-0.5 Z"/></g>
<g><path style="opacity:0.994" fill="#ea0ffc" d="M 150.5,21.5 C 220.998,22.4992 291.665,22.8325 362.5,22.5C 373.599,26.9705 383.933,32.6371 393.5,39.5C 393.565,39.9382 393.399,40.2716 393,40.5C 301.736,39.8346 210.569,39.1679 119.5,38.5C 129.023,31.5674 139.357,25.9007 150.5,21.5 Z"/></g>
<g><path style="opacity:0.996" fill="#e315fb" d="M 119.5,38.5 C 210.569,39.1679 301.736,39.8346 393,40.5C 393.399,40.2716 393.565,39.9382 393.5,39.5C 400.554,43.6868 407.221,48.3534 413.5,53.5C 307.904,54.4977 202.237,54.831 96.5,54.5C 103.61,48.3946 111.276,43.0612 119.5,38.5 Z"/></g>
<g><path style="opacity:0.997" fill="#dd1afa" d="M 413.5,53.5 C 419.489,58.1569 425.156,63.1569 430.5,68.5C 313.999,68.8329 197.665,68.4995 81.5,67.5C 86.1793,62.8223 91.1793,58.489 96.5,54.5C 202.237,54.831 307.904,54.4977 413.5,53.5 Z"/></g>
<g><path style="opacity:0.998" fill="#d620fa" d="M 81.5,67.5 C 197.665,68.4995 313.999,68.8329 430.5,68.5C 435.833,73.1667 440.833,78.1667 445.5,83.5C 319.001,84.3331 192.334,84.8331 65.5,85C 64.7562,86.0386 63.7562,86.5386 62.5,86.5C 68.5,79.8333 74.8333,73.5 81.5,67.5 Z"/></g>
<g><path style="opacity:0.999" fill="#d124f9" d="M 445.5,83.5 C 449.513,87.5149 453.179,91.8482 456.5,96.5C 322.5,97.8333 188.5,97.8333 54.5,96.5C 56.8171,92.8536 59.4838,89.5203 62.5,86.5C 63.7562,86.5386 64.7562,86.0386 65.5,85C 192.334,84.8331 319.001,84.3331 445.5,83.5 Z"/></g>
<g><path style="opacity:0.998" fill="#cb2af8" d="M 54.5,96.5 C 188.5,97.8333 322.5,97.8333 456.5,96.5C 461.576,101.918 465.909,107.918 469.5,114.5C 401.833,114.5 334.167,114.5 266.5,114.5C 259.14,111.881 251.807,111.881 244.5,114.5C 176.833,114.5 109.167,114.5 41.5,114.5C 45.0908,107.918 49.4242,101.918 54.5,96.5 Z"/></g>
<g><path style="opacity:1" fill="#fefdfd" d="M 266.5,114.5 C 269.827,117.8 273.16,121.133 276.5,124.5C 280.927,123.303 281.593,120.969 278.5,117.5C 289.772,115.136 297.772,119.136 302.5,129.5C 304.092,133.278 304.926,137.278 305,141.5C 307.235,142.98 309.068,142.647 310.5,140.5C 310.902,137.523 311.902,134.857 313.5,132.5C 320.189,133.998 325.189,137.664 328.5,143.5C 328.952,146.876 329.618,150.209 330.5,153.5C 332.353,154.76 334.186,154.76 336,153.5C 336.711,151.101 336.544,148.768 335.5,146.5C 341.972,145.614 347.139,147.947 351,153.5C 352.707,155.909 353.54,158.575 353.5,161.5C 353.5,162.833 353.5,164.167 353.5,165.5C 288.167,165.5 222.833,165.5 157.5,165.5C 157.5,163.833 157.5,162.167 157.5,160.5C 159.529,150.507 165.529,145.84 175.5,146.5C 174.456,148.768 174.289,151.101 175,153.5C 177.267,154.935 179.267,154.602 181,152.5C 181.363,149.456 181.863,146.456 182.5,143.5C 185.98,136.586 191.646,132.919 199.5,132.5C 199.336,135.187 199.503,137.854 200,140.5C 202,143.167 204,143.167 206,140.5C 206.42,136.809 206.92,133.142 207.5,129.5C 212.861,119.32 221.194,115.32 232.5,117.5C 229.58,120.571 230.08,122.905 234,124.5C 237.331,121.003 240.831,117.67 244.5,114.5C 251.807,111.881 259.14,111.881 266.5,114.5 Z"/></g>
<g><path style="opacity:0.999" fill="#c430f7" d="M 41.5,114.5 C 109.167,114.5 176.833,114.5 244.5,114.5C 240.831,117.67 237.331,121.003 234,124.5C 230.08,122.905 229.58,120.571 232.5,117.5C 221.194,115.32 212.861,119.32 207.5,129.5C 149.167,129.5 90.8333,129.5 32.5,129.5C 34.7487,123.995 37.7487,118.995 41.5,114.5 Z"/></g>
<g><path style="opacity:0.998" fill="#c430f7" d="M 266.5,114.5 C 334.167,114.5 401.833,114.5 469.5,114.5C 472.916,118.323 475.582,122.657 477.5,127.5C 419.51,129.496 361.176,130.163 302.5,129.5C 297.772,119.136 289.772,115.136 278.5,117.5C 281.593,120.969 280.927,123.303 276.5,124.5C 273.16,121.133 269.827,117.8 266.5,114.5 Z"/></g>
<g><path style="opacity:0.997" fill="#be35f6" d="M 477.5,127.5 C 480.927,132.016 483.593,137.016 485.5,142.5C 433.336,143.499 381.003,143.832 328.5,143.5C 325.189,137.664 320.189,133.998 313.5,132.5C 312.791,131.596 311.791,131.263 310.5,131.5C 310.5,134.5 310.5,137.5 310.5,140.5C 309.068,142.647 307.235,142.98 305,141.5C 304.926,137.278 304.092,133.278 302.5,129.5C 361.176,130.163 419.51,129.496 477.5,127.5 Z"/></g>
<g><path style="opacity:0.998" fill="#be36f6" d="M 32.5,129.5 C 90.8333,129.5 149.167,129.5 207.5,129.5C 206.92,133.142 206.42,136.809 206,140.5C 204,143.167 202,143.167 200,140.5C 199.503,137.854 199.336,135.187 199.5,132.5C 191.646,132.919 185.98,136.586 182.5,143.5C 129.997,143.832 77.664,143.499 25.5,142.5C 27.0741,137.68 29.4074,133.347 32.5,129.5 Z"/></g>
<g><path style="opacity:1" fill="#dd96fa" d="M 313.5,132.5 C 311.902,134.857 310.902,137.523 310.5,140.5C 310.5,137.5 310.5,134.5 310.5,131.5C 311.791,131.263 312.791,131.596 313.5,132.5 Z"/></g>
<g><path style="opacity:1" fill="#c045f6" d="M 234.5,136.5 C 238.273,136.263 241.94,136.763 245.5,138C 247.527,139.396 247.86,141.062 246.5,143C 234.721,141.864 225.387,146.031 218.5,155.5C 214.557,156.385 213.057,154.719 214,150.5C 219.257,143.46 226.09,138.793 234.5,136.5 Z"/></g>
<g><path style="opacity:0.997" fill="#b83bf5" d="M 25.5,142.5 C 77.664,143.499 129.997,143.832 182.5,143.5C 181.863,146.456 181.363,149.456 181,152.5C 179.267,154.602 177.267,154.935 175,153.5C 174.289,151.101 174.456,148.768 175.5,146.5C 165.529,145.84 159.529,150.507 157.5,160.5C 110.646,162.83 63.6459,163.164 16.5,161.5C 19.2611,154.981 22.2611,148.648 25.5,142.5 Z"/></g>
<g><path style="opacity:1" fill="#bf46f6" d="M 266.5,136.5 C 279.309,135.702 289.476,140.369 297,150.5C 297.852,155.254 296.019,156.588 291.5,154.5C 284.739,145.737 275.739,141.903 264.5,143C 263.978,142.439 263.645,141.772 263.5,141C 264.315,139.357 265.315,137.857 266.5,136.5 Z"/></g>
<g><path style="opacity:0.998" fill="#b83bf5" d="M 485.5,142.5 C 489.011,148.861 492.011,155.528 494.5,162.5C 447.428,162.828 400.428,162.495 353.5,161.5C 353.54,158.575 352.707,155.909 351,153.5C 347.139,147.947 341.972,145.614 335.5,146.5C 336.544,148.768 336.711,151.101 336,153.5C 334.186,154.76 332.353,154.76 330.5,153.5C 329.618,150.209 328.952,146.876 328.5,143.5C 381.003,143.832 433.336,143.499 485.5,142.5 Z"/></g>
<g><path style="opacity:0.998" fill="#b143f5" d="M 157.5,160.5 C 157.5,162.167 157.5,163.833 157.5,165.5C 222.833,165.5 288.167,165.5 353.5,165.5C 353.5,164.167 353.5,162.833 353.5,161.5C 400.428,162.495 447.428,162.828 494.5,162.5C 496.762,167.285 498.428,172.285 499.5,177.5C 477.01,178.833 454.177,179.5 431,179.5C 407.618,179.49 384.451,178.823 361.5,177.5C 361.141,175.629 360.141,174.129 358.5,173C 289.833,172.333 221.167,172.333 152.5,173C 151.29,174.039 150.29,175.206 149.5,176.5C 148.596,177.209 148.263,178.209 148.5,179.5C 102.5,179.5 56.5,179.5 10.5,179.5C 12.3024,173.426 14.3024,167.426 16.5,161.5C 63.6459,163.164 110.646,162.83 157.5,160.5 Z"/></g>
<g><path style="opacity:1" fill="#fefefd" d="M 361.5,177.5 C 361.666,183.176 361.499,188.843 361,194.5C 359.961,195.71 358.794,196.71 357.5,197.5C 289.5,197.5 221.5,197.5 153.5,197.5C 151.887,197.056 150.72,196.056 150,194.5C 149.501,188.509 149.334,182.509 149.5,176.5C 150.29,175.206 151.29,174.039 152.5,173C 221.167,172.333 289.833,172.333 358.5,173C 360.141,174.129 361.141,175.629 361.5,177.5 Z"/></g>
<g><path style="opacity:0.998" fill="#a849f4" d="M 149.5,176.5 C 149.334,182.509 149.501,188.509 150,194.5C 150.72,196.056 151.887,197.056 153.5,197.5C 104.336,198.499 55.0028,198.832 5.5,198.5C 6.70266,192.022 8.36932,185.688 10.5,179.5C 56.5,179.5 102.5,179.5 148.5,179.5C 148.263,178.209 148.596,177.209 149.5,176.5 Z"/></g>
<g><path style="opacity:1" fill="#a849f4" d="M 361.5,177.5 C 384.451,178.823 407.618,179.49 431,179.5C 454.177,179.5 477.01,178.833 499.5,177.5C 502.072,183.892 504.072,190.559 505.5,197.5C 456.069,198.83 406.736,198.83 357.5,197.5C 358.794,196.71 359.961,195.71 361,194.5C 361.499,188.843 361.666,183.176 361.5,177.5 Z"/></g>
<g><path style="opacity:0.999" fill="#a250f3" d="M 153.5,197.5 C 221.5,197.5 289.5,197.5 357.5,197.5C 406.736,198.83 456.069,198.83 505.5,197.5C 507.476,205.384 508.81,213.384 509.5,221.5C 456.716,219.511 403.716,218.845 350.5,219.5C 350.5,218.167 350.5,216.833 350.5,215.5C 350.942,211.846 351.276,208.179 351.5,204.5C 340.5,204.5 329.5,204.5 318.5,204.5C 305.013,203.275 291.679,203.275 278.5,204.5C 277.957,215.159 277.623,225.825 277.5,236.5C 275.5,236.5 273.5,236.5 271.5,236.5C 271.5,234.833 271.5,233.167 271.5,231.5C 271.5,228.5 271.5,225.5 271.5,222.5C 272.49,216.355 272.823,210.022 272.5,203.5C 261.167,203.5 249.833,203.5 238.5,203.5C 238.177,209.69 238.51,215.69 239.5,221.5C 239.5,224.833 239.5,228.167 239.5,231.5C 239.5,237.833 239.5,244.167 239.5,250.5C 237.833,250.5 236.167,250.5 234.5,250.5C 234.784,248.585 234.451,246.919 233.5,245.5C 233.557,231.821 233.224,218.154 232.5,204.5C 219.321,203.275 205.987,203.275 192.5,204.5C 181.5,204.5 170.5,204.5 159.5,204.5C 159.833,207.833 160.167,211.167 160.5,214.5C 160.5,216.167 160.5,217.833 160.5,219.5C 107.428,219.171 54.4284,219.505 1.5,220.5C 2.19675,213.019 3.53008,205.686 5.5,198.5C 55.0028,198.832 104.336,198.499 153.5,197.5 Z"/></g>
<g><path style="opacity:1" fill="#b87bf5" d="M 271.5,222.5 C 271.5,216.5 271.5,210.5 271.5,204.5C 260.833,204.5 250.167,204.5 239.5,204.5C 239.5,210.167 239.5,215.833 239.5,221.5C 238.51,215.69 238.177,209.69 238.5,203.5C 249.833,203.5 261.167,203.5 272.5,203.5C 272.823,210.022 272.49,216.355 271.5,222.5 Z"/></g>
<g><path style="opacity:1" fill="#fdfdfd" d="M 192.5,204.5 C 194.08,219.477 195.414,234.477 196.5,249.5C 197.98,260.116 198.98,270.783 199.5,281.5C 200.92,291.788 201.92,302.121 202.5,312.5C 203.893,327.161 205.227,341.828 206.5,356.5C 208.111,369.784 209.444,383.118 210.5,396.5C 203.13,396.074 196.13,394.241 189.5,391C 188.033,388.622 187.033,386.122 186.5,383.5C 186.638,378.586 185.972,373.919 184.5,369.5C 184.344,363.233 183.344,357.233 181.5,351.5C 181.72,346.9 181.054,342.567 179.5,338.5C 179.72,333.9 179.054,329.567 177.5,325.5C 177.638,320.586 176.972,315.919 175.5,311.5C 175.344,305.233 174.344,299.233 172.5,293.5C 172.648,288.678 171.981,284.012 170.5,279.5C 169.986,272.63 168.986,265.963 167.5,259.5C 167.376,254.951 166.709,250.618 165.5,246.5C 165.57,242.575 164.903,238.909 163.5,235.5C 163.116,228.281 162.116,221.281 160.5,214.5C 160.167,211.167 159.833,207.833 159.5,204.5C 170.5,204.5 181.5,204.5 192.5,204.5 Z"/></g>
<g><path style="opacity:1" fill="#fdfdfd" d="M 232.5,204.5 C 233.224,218.154 233.557,231.821 233.5,245.5C 234.226,255.817 234.56,266.15 234.5,276.5C 234.643,288.506 234.977,300.506 235.5,312.5C 235.638,322.175 235.971,331.842 236.5,341.5C 237.055,351.491 237.388,361.491 237.5,371.5C 238.308,380.476 238.642,389.476 238.5,398.5C 231.138,398.635 223.804,398.302 216.5,397.5C 215.82,383.292 214.487,369.292 212.5,355.5C 211.875,340.955 210.542,326.621 208.5,312.5C 208.152,300.631 207.152,288.964 205.5,277.5C 204.848,266.655 203.848,255.988 202.5,245.5C 201.347,231.845 200.347,218.179 199.5,204.5C 210.5,204.5 221.5,204.5 232.5,204.5 Z"/></g>
<g><path style="opacity:1" fill="#fefefd" d="M 271.5,222.5 C 271.5,225.5 271.5,228.5 271.5,231.5C 270.504,244.656 270.171,257.99 270.5,271.5C 269.586,289.666 268.919,307.999 268.5,326.5C 267.505,337.321 267.172,348.321 267.5,359.5C 266.505,372.323 266.171,385.323 266.5,398.5C 259.167,398.5 251.833,398.5 244.5,398.5C 244.829,384.656 244.496,370.99 243.5,357.5C 243.827,347.319 243.494,337.319 242.5,327.5C 242.823,321.31 242.49,315.31 241.5,309.5C 241.83,293.991 241.496,278.658 240.5,263.5C 240.828,252.654 240.494,241.987 239.5,231.5C 239.5,228.167 239.5,224.833 239.5,221.5C 239.5,215.833 239.5,210.167 239.5,204.5C 250.167,204.5 260.833,204.5 271.5,204.5C 271.5,210.5 271.5,216.5 271.5,222.5 Z"/></g>
<g><path style="opacity:1" fill="#fdfdfd" d="M 278.5,204.5 C 289.5,204.5 300.5,204.5 311.5,204.5C 310.653,218.179 309.653,231.845 308.5,245.5C 306.365,263.983 304.699,282.649 303.5,301.5C 301.027,319.28 299.361,337.28 298.5,355.5C 296.513,369.292 295.18,383.292 294.5,397.5C 287.173,397.944 279.84,398.277 272.5,398.5C 272.786,389.498 273.119,380.498 273.5,371.5C 274.213,361.516 274.547,351.516 274.5,341.5C 275.231,321.503 275.898,301.503 276.5,281.5C 277.095,266.507 277.428,251.507 277.5,236.5C 277.623,225.825 277.957,215.159 278.5,204.5 Z"/></g>
<g><path style="opacity:1" fill="#fdfdfd" d="M 318.5,204.5 C 329.5,204.5 340.5,204.5 351.5,204.5C 351.276,208.179 350.942,211.846 350.5,215.5C 348.94,221.613 347.94,227.947 347.5,234.5C 346.437,238.639 345.77,242.972 345.5,247.5C 344.105,251.591 343.438,255.924 343.5,260.5C 341.94,266.613 340.94,272.947 340.5,279.5C 339.437,283.639 338.77,287.972 338.5,292.5C 337.198,298.653 336.198,304.986 335.5,311.5C 334.437,315.639 333.77,319.972 333.5,324.5C 332.437,328.639 331.77,332.972 331.5,337.5C 330.028,341.919 329.362,346.586 329.5,351.5C 327.858,357.263 326.858,363.263 326.5,369.5C 325.437,373.639 324.77,377.972 324.5,382.5C 323.795,385.228 323.128,388.061 322.5,391C 315.811,393.47 308.977,395.303 302,396.5C 301.9,383.099 302.734,369.765 304.5,356.5C 305.912,338.142 307.579,319.809 309.5,301.5C 311.107,284.491 312.774,267.491 314.5,250.5C 315.669,235.149 317.002,219.816 318.5,204.5 Z"/></g>
<g><path style="opacity:0.998" fill="#9956f2" d="M 160.5,214.5 C 162.116,221.281 163.116,228.281 163.5,235.5C 109.003,236.499 54.3359,236.832 -0.5,236.5C -0.5,235.167 -0.5,233.833 -0.5,232.5C 0.293656,228.642 0.960323,224.642 1.5,220.5C 54.4284,219.505 107.428,219.171 160.5,219.5C 160.5,217.833 160.5,216.167 160.5,214.5 Z"/></g>
<g><path style="opacity:1" fill="#9e5df2" d="M 232.5,204.5 C 221.5,204.5 210.5,204.5 199.5,204.5C 200.347,218.179 201.347,231.845 202.5,245.5C 202.5,247.167 202.5,248.833 202.5,250.5C 200.379,250.675 198.379,250.341 196.5,249.5C 195.414,234.477 194.08,219.477 192.5,204.5C 205.987,203.275 219.321,203.275 232.5,204.5 Z"/></g>
<g><path style="opacity:1" fill="#9e5cf2" d="M 278.5,204.5 C 291.679,203.275 305.013,203.275 318.5,204.5C 317.002,219.816 315.669,235.149 314.5,250.5C 312.5,250.5 310.5,250.5 308.5,250.5C 308.5,248.833 308.5,247.167 308.5,245.5C 309.653,231.845 310.653,218.179 311.5,204.5C 300.5,204.5 289.5,204.5 278.5,204.5 Z"/></g>
<g><path style="opacity:0.999" fill="#9956f2" d="M 350.5,215.5 C 350.5,216.833 350.5,218.167 350.5,219.5C 403.716,218.845 456.716,219.511 509.5,221.5C 510.026,225.312 510.693,228.979 511.5,232.5C 511.5,233.833 511.5,235.167 511.5,236.5C 456.49,237.162 401.823,236.496 347.5,234.5C 347.94,227.947 348.94,221.613 350.5,215.5 Z"/></g>
<g><path style="opacity:0.998" fill="#925bf1" d="M 163.5,235.5 C 164.903,238.909 165.57,242.575 165.5,246.5C 165.5,247.833 165.5,249.167 165.5,250.5C 110.167,250.5 54.8333,250.5 -0.5,250.5C -0.5,245.833 -0.5,241.167 -0.5,236.5C 54.3359,236.832 109.003,236.499 163.5,235.5 Z"/></g>
<g><path style="opacity:0.998" fill="#925bf1" d="M 347.5,234.5 C 401.823,236.496 456.49,237.162 511.5,236.5C 511.5,241.167 511.5,245.833 511.5,250.5C 456.167,250.5 400.833,250.5 345.5,250.5C 345.5,249.5 345.5,248.5 345.5,247.5C 345.77,242.972 346.437,238.639 347.5,234.5 Z"/></g>
<g><path style="opacity:1" fill="#8c61f0" d="M 165.5,246.5 C 166.709,250.618 167.376,254.951 167.5,259.5C 167.5,261.5 167.5,263.5 167.5,265.5C 111.5,265.5 55.5,265.5 -0.5,265.5C -0.5,260.5 -0.5,255.5 -0.5,250.5C 54.8333,250.5 110.167,250.5 165.5,250.5C 165.5,249.167 165.5,247.833 165.5,246.5 Z"/></g>
<g><path style="opacity:1" fill="#8c61f0" d="M 345.5,247.5 C 345.5,248.5 345.5,249.5 345.5,250.5C 400.833,250.5 456.167,250.5 511.5,250.5C 511.5,255.5 511.5,260.5 511.5,265.5C 455.5,265.5 399.5,265.5 343.5,265.5C 343.5,263.833 343.5,262.167 343.5,260.5C 343.438,255.924 344.105,251.591 345.5,247.5 Z"/></g>
<g><path style="opacity:0.998" fill="#8666ef" d="M 167.5,259.5 C 168.986,265.963 169.986,272.63 170.5,279.5C 113.833,279.5 57.1667,279.5 0.5,279.5C 0.5,278.833 0.166667,278.5 -0.5,278.5C -0.5,274.167 -0.5,269.833 -0.5,265.5C 55.5,265.5 111.5,265.5 167.5,265.5C 167.5,263.5 167.5,261.5 167.5,259.5 Z"/></g>
<g><path style="opacity:1" fill="#8b68f0" d="M 202.5,245.5 C 203.848,255.988 204.848,266.655 205.5,277.5C 205.5,279.833 205.5,282.167 205.5,284.5C 203.833,284.5 202.167,284.5 200.5,284.5C 200.737,283.209 200.404,282.209 199.5,281.5C 198.98,270.783 197.98,260.116 196.5,249.5C 198.379,250.341 200.379,250.675 202.5,250.5C 202.5,248.833 202.5,247.167 202.5,245.5 Z"/></g>
<g><path style="opacity:1" fill="#8f6bf0" d="M 239.5,231.5 C 240.494,241.987 240.828,252.654 240.5,263.5C 240.5,268.833 240.5,274.167 240.5,279.5C 238.833,279.5 237.167,279.5 235.5,279.5C 235.737,278.209 235.404,277.209 234.5,276.5C 234.56,266.15 234.226,255.817 233.5,245.5C 234.451,246.919 234.784,248.585 234.5,250.5C 236.167,250.5 237.833,250.5 239.5,250.5C 239.5,244.167 239.5,237.833 239.5,231.5 Z"/></g>
<g><path style="opacity:1" fill="#906cf0" d="M 271.5,231.5 C 271.5,233.167 271.5,234.833 271.5,236.5C 273.5,236.5 275.5,236.5 277.5,236.5C 277.428,251.507 277.095,266.507 276.5,281.5C 275.596,282.209 275.263,283.209 275.5,284.5C 273.833,284.5 272.167,284.5 270.5,284.5C 270.5,280.167 270.5,275.833 270.5,271.5C 270.171,257.99 270.504,244.656 271.5,231.5 Z"/></g>
<g><path style="opacity:1" fill="#8a6cf0" d="M 308.5,245.5 C 308.5,247.167 308.5,248.833 308.5,250.5C 310.5,250.5 312.5,250.5 314.5,250.5C 312.774,267.491 311.107,284.491 309.5,301.5C 307.5,301.5 305.5,301.5 303.5,301.5C 304.699,282.649 306.365,263.983 308.5,245.5 Z"/></g>
<g><path style="opacity:0.998" fill="#8666ef" d="M 343.5,260.5 C 343.5,262.167 343.5,263.833 343.5,265.5C 399.5,265.5 455.5,265.5 511.5,265.5C 511.5,269.833 511.5,274.167 511.5,278.5C 510.833,278.5 510.5,278.833 510.5,279.5C 453.833,279.5 397.167,279.5 340.5,279.5C 340.94,272.947 341.94,266.613 343.5,260.5 Z"/></g>
<g><path style="opacity:0.998" fill="#806cee" d="M 0.5,279.5 C 57.1667,279.5 113.833,279.5 170.5,279.5C 171.981,284.012 172.648,288.678 172.5,293.5C 172.5,294.5 172.5,295.5 172.5,296.5C 115.833,296.5 59.1667,296.5 2.5,296.5C 1.26407,290.943 0.597401,285.277 0.5,279.5 Z"/></g>
<g><path style="opacity:1" fill="#8374ef" d="M 205.5,277.5 C 207.152,288.964 208.152,300.631 208.5,312.5C 206.5,312.5 204.5,312.5 202.5,312.5C 201.92,302.121 200.92,291.788 199.5,281.5C 200.404,282.209 200.737,283.209 200.5,284.5C 202.167,284.5 203.833,284.5 205.5,284.5C 205.5,282.167 205.5,279.833 205.5,277.5 Z"/></g>
<g><path style="opacity:0.998" fill="#806cee" d="M 340.5,279.5 C 397.167,279.5 453.833,279.5 510.5,279.5C 510.403,285.277 509.736,290.943 508.5,296.5C 451.833,296.5 395.167,296.5 338.5,296.5C 338.5,295.167 338.5,293.833 338.5,292.5C 338.77,287.972 339.437,283.639 340.5,279.5 Z"/></g>
<g><path style="opacity:0.998" fill="#7971ee" d="M 172.5,293.5 C 174.344,299.233 175.344,305.233 175.5,311.5C 118.787,311.842 62.1201,312.842 5.5,314.5C 4.24235,308.545 3.24235,302.545 2.5,296.5C 59.1667,296.5 115.833,296.5 172.5,296.5C 172.5,295.5 172.5,294.5 172.5,293.5 Z"/></g>
<g><path style="opacity:1" fill="#8579ef" d="M 240.5,263.5 C 241.496,278.658 241.83,293.991 241.5,309.5C 241.5,312.5 241.5,315.5 241.5,318.5C 239.833,318.5 238.167,318.5 236.5,318.5C 236.795,316.265 236.461,314.265 235.5,312.5C 234.977,300.506 234.643,288.506 234.5,276.5C 235.404,277.209 235.737,278.209 235.5,279.5C 237.167,279.5 238.833,279.5 240.5,279.5C 240.5,274.167 240.5,268.833 240.5,263.5 Z"/></g>
<g><path style="opacity:1" fill="#7f7aee" d="M 270.5,271.5 C 270.5,275.833 270.5,280.167 270.5,284.5C 272.167,284.5 273.833,284.5 275.5,284.5C 275.263,283.209 275.596,282.209 276.5,281.5C 275.898,301.503 275.231,321.503 274.5,341.5C 272.621,340.659 270.621,340.325 268.5,340.5C 268.5,335.833 268.5,331.167 268.5,326.5C 268.919,307.999 269.586,289.666 270.5,271.5 Z"/></g>
<g><path style="opacity:0.999" fill="#7971ee" d="M 338.5,292.5 C 338.5,293.833 338.5,295.167 338.5,296.5C 395.167,296.5 451.833,296.5 508.5,296.5C 508.008,301.959 507.008,307.292 505.5,312.5C 448.664,312.832 391.998,312.499 335.5,311.5C 336.198,304.986 337.198,298.653 338.5,292.5 Z"/></g>
<g><path style="opacity:1" fill="#757ded" d="M 303.5,301.5 C 305.5,301.5 307.5,301.5 309.5,301.5C 307.579,319.809 305.912,338.142 304.5,356.5C 301.988,358.179 299.988,357.845 298.5,355.5C 299.361,337.28 301.027,319.28 303.5,301.5 Z"/></g>
<g><path style="opacity:0.999" fill="#7377ed" d="M 175.5,311.5 C 176.972,315.919 177.638,320.586 177.5,325.5C 121.331,325.168 65.3309,325.501 9.5,326.5C 7.87229,322.681 6.53895,318.681 5.5,314.5C 62.1201,312.842 118.787,311.842 175.5,311.5 Z"/></g>
<g><path style="opacity:0.999" fill="#7377ed" d="M 335.5,311.5 C 391.998,312.499 448.664,312.832 505.5,312.5C 504.657,316.873 503.657,321.207 502.5,325.5C 445.998,325.832 389.664,325.499 333.5,324.5C 333.77,319.972 334.437,315.639 335.5,311.5 Z"/></g>
<g><path style="opacity:1" fill="#7881ed" d="M 241.5,309.5 C 242.49,315.31 242.823,321.31 242.5,327.5C 242.5,331.833 242.5,336.167 242.5,340.5C 240.379,340.325 238.379,340.659 236.5,341.5C 235.971,331.842 235.638,322.175 235.5,312.5C 236.461,314.265 236.795,316.265 236.5,318.5C 238.167,318.5 239.833,318.5 241.5,318.5C 241.5,315.5 241.5,312.5 241.5,309.5 Z"/></g>
<g><path style="opacity:0.998" fill="#6d7cec" d="M 333.5,324.5 C 389.664,325.499 445.998,325.832 502.5,325.5C 501.035,330.563 499.368,335.563 497.5,340.5C 442.167,340.5 386.833,340.5 331.5,340.5C 331.5,339.5 331.5,338.5 331.5,337.5C 331.77,332.972 332.437,328.639 333.5,324.5 Z"/></g>
<g><path style="opacity:0.998" fill="#6d7cec" d="M 177.5,325.5 C 179.054,329.567 179.72,333.9 179.5,338.5C 124.5,339.833 69.5,341.167 14.5,342.5C 12.057,337.5 10.3904,332.166 9.5,326.5C 65.3309,325.501 121.331,325.168 177.5,325.5 Z"/></g>
<g><path style="opacity:0.998" fill="#6781eb" d="M 179.5,338.5 C 181.054,342.567 181.72,346.9 181.5,351.5C 181.5,352.5 181.5,353.5 181.5,354.5C 127.167,354.5 72.8333,354.5 18.5,354.5C 16.9651,350.562 15.6318,346.562 14.5,342.5C 69.5,341.167 124.5,339.833 179.5,338.5 Z"/></g>
<g><path style="opacity:1" fill="#7082ec" d="M 202.5,312.5 C 204.5,312.5 206.5,312.5 208.5,312.5C 210.542,326.621 211.875,340.955 212.5,355.5C 211.012,357.845 209.012,358.179 206.5,356.5C 205.227,341.828 203.893,327.161 202.5,312.5 Z"/></g>
<g><path style="opacity:0.998" fill="#6781eb" d="M 331.5,337.5 C 331.5,338.5 331.5,339.5 331.5,340.5C 386.833,340.5 442.167,340.5 497.5,340.5C 495.871,345.735 493.871,350.735 491.5,355.5C 437.669,354.501 383.669,354.168 329.5,354.5C 329.5,353.5 329.5,352.5 329.5,351.5C 329.362,346.586 330.028,341.919 331.5,337.5 Z"/></g>
<g><path style="opacity:0.998" fill="#6186ea" d="M 181.5,351.5 C 183.344,357.233 184.344,363.233 184.5,369.5C 132.177,371.496 79.5106,372.162 26.5,371.5C 23.5602,365.954 20.8935,360.287 18.5,354.5C 72.8333,354.5 127.167,354.5 181.5,354.5C 181.5,353.5 181.5,352.5 181.5,351.5 Z"/></g>
<g><path style="opacity:1" fill="#6d8aec" d="M 242.5,327.5 C 243.494,337.319 243.827,347.319 243.5,357.5C 243.5,362.167 243.5,366.833 243.5,371.5C 241.5,371.5 239.5,371.5 237.5,371.5C 237.388,361.491 237.055,351.491 236.5,341.5C 238.379,340.659 240.379,340.325 242.5,340.5C 242.5,336.167 242.5,331.833 242.5,327.5 Z"/></g>
<g><path style="opacity:1" fill="#728eec" d="M 268.5,326.5 C 268.5,331.167 268.5,335.833 268.5,340.5C 270.621,340.325 272.621,340.659 274.5,341.5C 274.547,351.516 274.213,361.516 273.5,371.5C 271.5,371.5 269.5,371.5 267.5,371.5C 267.5,367.5 267.5,363.5 267.5,359.5C 267.172,348.321 267.505,337.321 268.5,326.5 Z"/></g>
<g><path style="opacity:0.998" fill="#6186ea" d="M 329.5,351.5 C 329.5,352.5 329.5,353.5 329.5,354.5C 383.669,354.168 437.669,354.501 491.5,355.5C 489.714,361.072 487.381,366.405 484.5,371.5C 431.489,372.162 378.823,371.496 326.5,369.5C 326.858,363.263 327.858,357.263 329.5,351.5 Z"/></g>
<g><path style="opacity:0.997" fill="#5a8cea" d="M 184.5,369.5 C 185.972,373.919 186.638,378.586 186.5,383.5C 186.5,384.833 186.5,386.167 186.5,387.5C 136.167,387.5 85.8333,387.5 35.5,387.5C 32.5,382.167 29.5,376.833 26.5,371.5C 79.5106,372.162 132.177,371.496 184.5,369.5 Z"/></g>
<g><path style="opacity:0.998" fill="#5a8cea" d="M 326.5,369.5 C 378.823,371.496 431.489,372.162 484.5,371.5C 481.404,377.367 478.071,383.033 474.5,388.5C 424.669,387.501 374.669,387.168 324.5,387.5C 324.5,385.833 324.5,384.167 324.5,382.5C 324.77,377.972 325.437,373.639 326.5,369.5 Z"/></g>
<g><path style="opacity:0.998" fill="#5692e9" d="M 212.5,355.5 C 214.487,369.292 215.82,383.292 216.5,397.5C 223.804,398.302 231.138,398.635 238.5,398.5C 238.642,389.476 238.308,380.476 237.5,371.5C 239.5,371.5 241.5,371.5 243.5,371.5C 243.5,366.833 243.5,362.167 243.5,357.5C 244.496,370.99 244.829,384.656 244.5,398.5C 251.833,398.5 259.167,398.5 266.5,398.5C 266.171,385.323 266.505,372.323 267.5,359.5C 267.5,363.5 267.5,367.5 267.5,371.5C 269.5,371.5 271.5,371.5 273.5,371.5C 273.119,380.498 272.786,389.498 272.5,398.5C 279.84,398.277 287.173,397.944 294.5,397.5C 295.18,383.292 296.513,369.292 298.5,355.5C 299.988,357.845 301.988,358.179 304.5,356.5C 302.734,369.765 301.9,383.099 302,396.5C 308.977,395.303 315.811,393.47 322.5,391C 323.128,388.061 323.795,385.228 324.5,382.5C 324.5,384.167 324.5,385.833 324.5,387.5C 374.669,387.168 424.669,387.501 474.5,388.5C 471.22,394.441 467.553,400.108 463.5,405.5C 324.736,404.168 186.069,404.168 47.5,405.5C 43.141,399.795 39.141,393.795 35.5,387.5C 85.8333,387.5 136.167,387.5 186.5,387.5C 186.5,386.167 186.5,384.833 186.5,383.5C 187.033,386.122 188.033,388.622 189.5,391C 196.13,394.241 203.13,396.074 210.5,396.5C 209.444,383.118 208.111,369.784 206.5,356.5C 209.012,358.179 211.012,357.845 212.5,355.5 Z"/></g>
<g><path style="opacity:0.998" fill="#4d98e8" d="M 463.5,405.5 C 460.305,410.569 456.638,415.235 452.5,419.5C 321.001,418.5 189.334,418.167 57.5,418.5C 53.9358,414.386 50.6025,410.052 47.5,405.5C 186.069,404.168 324.736,404.168 463.5,405.5 Z"/></g>
<g><path style="opacity:0.999" fill="#489be8" d="M 57.5,418.5 C 189.334,418.167 321.001,418.5 452.5,419.5C 450.628,422.582 448.295,425.249 445.5,427.5C 318.668,426.5 191.668,426.167 64.5,426.5C 62.1765,423.874 59.8432,421.207 57.5,418.5 Z"/></g>
<g><path style="opacity:0.998" fill="#43a0e7" d="M 64.5,426.5 C 191.668,426.167 318.668,426.5 445.5,427.5C 441.5,432.167 437.167,436.5 432.5,440.5C 314.5,440.5 196.5,440.5 78.5,440.5C 73.5,436.167 68.8333,431.5 64.5,426.5 Z"/></g>
<g><path style="opacity:0.997" fill="#3fa3e6" d="M 78.5,440.5 C 196.5,440.5 314.5,440.5 432.5,440.5C 430.167,443.5 427.5,446.167 424.5,448.5C 311.57,447.502 198.57,447.169 85.5,447.5C 82.8333,445.5 80.5,443.167 78.5,440.5 Z"/></g>
<g><path style="opacity:0.998" fill="#3ba7e6" d="M 85.5,447.5 C 198.57,447.169 311.57,447.502 424.5,448.5C 419.123,453.21 413.457,457.543 407.5,461.5C 306.167,461.5 204.833,461.5 103.5,461.5C 97.1294,457.314 91.1294,452.647 85.5,447.5 Z"/></g>
<g><path style="opacity:0.996" fill="#35ace5" d="M 103.5,461.5 C 204.833,461.5 306.167,461.5 407.5,461.5C 399.067,468.251 390.067,474.251 380.5,479.5C 297.5,478.167 214.5,478.167 131.5,479.5C 121.356,474.675 112.022,468.675 103.5,461.5 Z"/></g>
<g><path style="opacity:0.993" fill="#2eb2e4" d="M 380.5,479.5 C 370.564,485.301 360.231,490.301 349.5,494.5C 285.973,493.823 222.306,493.156 158.5,492.5C 148.801,489.483 139.801,485.149 131.5,479.5C 214.5,478.167 297.5,478.167 380.5,479.5 Z"/></g>
<g><path style="opacity:0.984" fill="#28b8e3" d="M 158.5,492.5 C 222.306,493.156 285.973,493.823 349.5,494.5C 326.439,503.183 302.773,508.85 278.5,511.5C 263.167,511.5 247.833,511.5 232.5,511.5C 206.88,508.928 182.213,502.595 158.5,492.5 Z"/></g>
</svg>
